CSLSans-SemiBoldItalic.ufo
<glyph name="ampersand" format="2">
  <advance width="691"/>
  <unicode hex="0026"/>
  <outline>
    <contour>
      <point x="255" y="88" type="qcurve" smooth="yes"/>
      <point x="329" y="88"/>
      <point x="385" y="137" type="qcurve"/>
      <point x="259" y="312" type="line"/>
      <point x="152" y="267"/>
      <point x="152" y="175" type="qcurve" smooth="yes"/>
      <point x="153" y="88"/>
    </contour>
    <contour>
      <point x="313" y="429" type="qcurve"/>
      <point x="318" y="432" type="line"/>
      <point x="366" y="455"/>
      <point x="428" y="510"/>
      <point x="428" y="555" type="qcurve" smooth="yes"/>
      <point x="428" y="585"/>
      <point x="390" y="617"/>
      <point x="362" y="617" type="qcurve" smooth="yes"/>
      <point x="319" y="617"/>
      <point x="276" y="560"/>
      <point x="276" y="520" type="qcurve" smooth="yes"/>
      <point x="276" y="478"/>
    </contour>
    <contour>
      <point x="227" y="-12" type="qcurve" smooth="yes"/>
      <point x="127" y="-12"/>
      <point x="33" y="85"/>
      <point x="33" y="155" type="qcurve" smooth="yes"/>
      <point x="33" y="298"/>
      <point x="212" y="379" type="qcurve"/>
      <point x="161" y="442"/>
      <point x="161" y="515" type="qcurve" smooth="yes"/>
      <point x="161" y="594"/>
      <point x="279" y="710"/>
      <point x="377" y="710" type="qcurve" smooth="yes"/>
      <point x="448" y="710"/>
      <point x="545" y="636"/>
      <point x="545" y="568" type="qcurve" smooth="yes"/>
      <point x="545" y="448"/>
      <point x="362" y="362" type="qcurve"/>
      <point x="457" y="227" type="line"/>
      <point x="493" y="296"/>
      <point x="511" y="378" type="qcurve"/>
      <point x="668" y="378" type="line"/>
      <point x="648" y="278" type="line"/>
      <point x="573" y="278" type="line"/>
      <point x="552" y="207"/>
      <point x="514" y="148" type="qcurve"/>
      <point x="619" y="0" type="line"/>
      <point x="483" y="0" type="line"/>
      <point x="434" y="68" type="line"/>
      <point x="348" y="-12"/>
    </contour>
  </outline>
</glyph>
<glyph name="plus" format="2">
  <advance width="600"/>
  <unicode hex="002B"/>
  <outline>
    <contour>
      <point x="313" y="62" type="line"/>
      <point x="207" y="62" type="line"/>
      <point x="246" y="257" type="line"/>
      <point x="69" y="257" type="line"/>
      <point x="88" y="354" type="line"/>
      <point x="265" y="354" type="line"/>
      <point x="304" y="548" type="line"/>
      <point x="409" y="548" type="line"/>
      <point x="371" y="354" type="line"/>
      <point x="547" y="354" type="line"/>
      <point x="528" y="257" type="line"/>
      <point x="351" y="257" type="line"/>
    </contour>
  </outline>
</glyph>
<glyph name="zero" format="2">
  <advance width="600"/>
  <unicode hex="0030"/>
  <outline>
    <contour>
      <point x="259" y="-12" type="qcurve" smooth="yes"/>
      <point x="188" y="-12"/>
      <point x="98" y="52"/>
      <point x="55" y="164"/>
      <point x="55" y="238" type="qcurve" smooth="yes"/>
      <point x="55" y="328"/>
      <point x="96" y="497"/>
      <point x="175" y="631"/>
      <point x="292" y="710"/>
      <point x="368" y="710" type="qcurve" smooth="yes"/>
      <point x="439" y="710"/>
      <point x="529" y="647"/>
      <point x="572" y="534"/>
      <point x="572" y="460" type="qcurve" smooth="yes"/>
      <point x="572" y="330"/>
      <point x="484" y="95"/>
      <point x="393" y="29" type="qcurve" smooth="yes"/>
      <point x="335" y="-12"/>
    </contour>
    <contour>
      <point x="271" y="89" type="line" smooth="yes"/>
      <point x="386" y="89"/>
      <point x="424" y="295" type="qcurve" smooth="yes"/>
      <point x="446" y="404" type="line" smooth="yes"/>
      <point x="454" y="442"/>
      <point x="454" y="484" type="qcurve" smooth="yes"/>
      <point x="454" y="609"/>
      <point x="356" y="609" type="qcurve" smooth="yes"/>
      <point x="239" y="609"/>
      <point x="204" y="403" type="qcurve"/>
      <point x="181" y="294" type="line"/>
      <point x="173" y="251"/>
      <point x="173" y="214" type="qcurve" smooth="yes"/>
      <point x="173" y="89"/>
      <point x="267" y="89" type="qcurve" smooth="yes"/>
    </contour>
  </outline>
</glyph>
<glyph name="two" format="2">
  <advance width="600"/>
  <unicode hex="0032"/>
  <outline>
    <contour>
      <point x="481" y="0" type="line"/>
      <point x="21" y="0" type="line"/>
      <point x="44" y="117" type="line"/>
      <point x="298" y="311" type="line" smooth="yes"/>
      <point x="435" y="414"/>
      <point x="435" y="516" type="qcurve" smooth="yes"/>
      <point x="435" y="557"/>
      <point x="384" y="604"/>
      <point x="345" y="604" type="qcurve" smooth="yes"/>
      <point x="292" y="604"/>
      <point x="229" y="545"/>
      <point x="211" y="496" type="qcurve"/>
      <point x="108" y="539" type="line"/>
      <point x="142" y="616"/>
      <point x="263" y="710"/>
      <point x="355" y="710" type="qcurve" smooth="yes"/>
      <point x="455" y="710"/>
      <point x="563" y="601"/>
      <point x="563" y="524" type="qcurve" smooth="yes"/>
      <point x="563" y="438"/>
      <point x="448" y="297"/>
      <point x="346" y="226" type="qcurve"/>
      <point x="179" y="103" type="line"/>
      <point x="502" y="103" type="line"/>
    </contour>
  </outline>
</glyph>
<glyph name="colon" format="2">
  <advance width="314"/>
  <unicode hex="003A"/>
  <outline>
    <contour>
      <point x="182" y="371" type="qcurve" smooth="yes"/>
      <point x="146" y="371"/>
      <point x="116" y="403"/>
      <point x="116" y="424" type="qcurve" smooth="yes"/>
      <point x="116" y="532"/>
      <point x="206" y="532" type="qcurve" smooth="yes"/>
      <point x="243" y="532"/>
      <point x="273" y="500"/>
      <point x="273" y="479" type="qcurve" smooth="yes"/>
      <point x="273" y="371"/>
    </contour>
    <contour>
      <point x="106" y="-12" type="qcurve" smooth="yes"/>
      <point x="69" y="-12"/>
      <point x="39" y="20"/>
      <point x="39" y="41" type="qcurve" smooth="yes"/>
      <point x="39" y="149"/>
      <point x="130" y="149" type="qcurve" smooth="yes"/>
      <point x="166" y="149"/>
      <point x="197" y="116"/>
      <point x="197" y="96" type="qcurve" smooth="yes"/>
      <point x="197" y="84"/>
      <point x="195" y="73"/>
      <point x="193" y="63"/>
      <point x="191" y="55" type="qcurve"/>
      <point x="179" y="-12"/>
    </contour>
  </outline>
</glyph>
<glyph name="Q" format="2">
  <advance width="686"/>
  <unicode hex="0051"/>
  <outline>
    <contour>
      <point x="302" y="-12" type="qcurve" smooth="yes"/>
      <point x="252" y="-12"/>
      <point x="163" y="21"/>
      <point x="95" y="89"/>
      <point x="56" y="194"/>
      <point x="56" y="265" type="qcurve" smooth="yes"/>
      <point x="56" y="350"/>
      <point x="105" y="510"/>
      <point x="197" y="634"/>
      <point x="329" y="710"/>
      <point x="413" y="710" type="qcurve" smooth="yes"/>
      <point x="462" y="710"/>
      <point x="552" y="676"/>
      <point x="619" y="607"/>
      <point x="659" y="503"/>
      <point x="659" y="433" type="qcurve" smooth="yes"/>
      <point x="659" y="347"/>
      <point x="610" y="187"/>
      <point x="517" y="63"/>
      <point x="385" y="-12"/>
    </contour>
    <contour>
      <point x="311" y="86" type="qcurve" smooth="yes"/>
      <point x="394" y="86"/>
      <point x="502" y="195"/>
      <point x="522" y="294" type="qcurve" smooth="yes"/>
      <point x="540" y="381" type="line" smooth="yes"/>
      <point x="544" y="401"/>
      <point x="549" y="442"/>
      <point x="549" y="458" type="qcurve" smooth="yes"/>
      <point x="549" y="530"/>
      <point x="475" y="612"/>
      <point x="404" y="612" type="qcurve" smooth="yes"/>
      <point x="319" y="612"/>
      <point x="212" y="500"/>
      <point x="193" y="404" type="qcurve" smooth="yes"/>
      <point x="175" y="317" type="line" smooth="yes"/>
      <point x="171" y="297"/>
      <point x="166" y="258"/>
      <point x="166" y="240" type="qcurve" smooth="yes"/>
      <point x="166" y="168"/>
      <point x="240" y="86"/>
    </contour>
    <contour>
      <point x="548" y="-12" type="line"/>
      <point x="288" y="267" type="line"/>
      <point x="407" y="267" type="line"/>
      <point x="667" y="-12" type="line"/>
    </contour>
  </outline>
</glyph>
<glyph name="V" format="2">
  <advance width="616"/>
  <unicode hex="0056"/>
  <outline>
    <contour>
      <point x="325" y="0" type="line"/>
      <point x="186" y="0" type="line"/>
      <point x="104" y="698" type="line"/>
      <point x="225" y="698" type="line"/>
      <point x="242" y="527" type="line" smooth="yes"/>
      <point x="253" y="422"/>
      <point x="257" y="369" type="qcurve" smooth="yes"/>
      <point x="276" y="127" type="line"/>
      <point x="282" y="127" type="line"/>
      <point x="392" y="362" type="line" smooth="yes"/>
      <point x="415" y="411"/>
      <point x="462" y="503" type="qcurve" smooth="yes"/>
      <point x="560" y="698" type="line"/>
      <point x="688" y="698" type="line"/>
    </contour>
  </outline>
</glyph>
<glyph name="asciicircum" format="2">
  <advance width="600"/>
  <unicode hex="005E"/>
  <outline>
    <contour>
      <point x="476" y="286" type="line"/>
      <point x="369" y="578" type="line"/>
      <point x="361" y="578" type="line"/>
      <point x="145" y="286" type="line"/>
      <point x="58" y="338" type="line"/>
      <point x="324" y="698" type="line"/>
      <point x="438" y="698" type="line"/>
      <point x="573" y="325" type="line"/>
    </contour>
  </outline>
</glyph>
<glyph name="k" format="2">
  <advance width="538"/>
  <unicode hex="006B"/>
  <outline>
    <contour>
      <point x="472" y="0" type="line"/>
      <point x="409" y="0" type="line" smooth="yes"/>
      <point x="337" y="0"/>
      <point x="315" y="70" type="qcurve"/>
      <point x="253" y="234" type="line"/>
      <point x="169" y="155" type="line"/>
      <point x="139" y="0" type="line"/>
      <point x="23" y="0" type="line"/>
      <point x="171" y="740" type="line"/>
      <point x="287" y="740" type="line"/>
      <point x="198" y="294" type="line"/>
      <point x="204" y="294" type="line"/>
      <point x="283" y="383" type="line"/>
      <point x="427" y="522" type="line"/>
      <point x="564" y="522" type="line"/>
      <point x="344" y="311" type="line"/>
      <point x="429" y="95" type="line"/>
      <point x="491" y="95" type="line"/>
    </contour>
  </outline>
</glyph>
<glyph name="copyright" format="2">
  <advance width="776"/>
  <unicode hex="00A9"/>
  <outline>
    <contour>
      <point x="352" y="-12" type="qcurve" smooth="yes"/>
      <point x="220" y="-12"/>
      <point x="61" y="157"/>
      <point x="61" y="293" type="qcurve" smooth="yes"/>
      <point x="61" y="427"/>
      <point x="176" y="613"/>
      <point x="357" y="709"/>
      <point x="455" y="709" type="qcurve" smooth="yes"/>
      <point x="586" y="709"/>
      <point x="746" y="537"/>
      <point x="746" y="405" type="qcurve" smooth="yes"/>
      <point x="746" y="303"/>
      <point x="678" y="147"/>
      <point x="566" y="41"/>
      <point x="425" y="-12"/>
    </contour>
    <contour>
      <point x="356" y="49" type="qcurve" smooth="yes"/>
      <point x="468" y="49"/>
      <point x="636" y="188"/>
      <point x="662" y="297" type="qcurve"/>
      <point x="677" y="366"/>
      <point x="677" y="405" type="qcurve" smooth="yes"/>
      <point x="677" y="515"/>
      <point x="550" y="648"/>
      <point x="451" y="648" type="qcurve" smooth="yes"/>
      <point x="339" y="648"/>
      <point x="170" y="508"/>
      <point x="146" y="401" type="qcurve" smooth="yes"/>
      <point x="131" y="330"/>
      <point x="131" y="293" type="qcurve" smooth="yes"/>
      <point x="131" y="182"/>
      <point x="256" y="49"/>
    </contour>
    <contour>
      <point x="381" y="141" type="qcurve" smooth="yes"/>
      <point x="312" y="141"/>
      <point x="222" y="226"/>
      <point x="222" y="308" type="qcurve" smooth="yes"/>
      <point x="222" y="366"/>
      <point x="271" y="481"/>
      <point x="365" y="556"/>
      <point x="433" y="556" type="qcurve" smooth="yes"/>
      <point x="554" y="556"/>
      <point x="584" y="449" type="qcurve"/>
      <point x="501" y="413" type="line"/>
      <point x="489" y="470"/>
      <point x="432" y="470" type="qcurve" smooth="yes"/>
      <point x="393" y="470"/>
      <point x="351" y="422"/>
      <point x="338" y="351"/>
      <point x="331" y="321"/>
      <point x="328" y="304"/>
      <point x="328" y="291" type="qcurve" smooth="yes"/>
      <point x="328" y="263"/>
      <point x="361" y="227"/>
      <point x="394" y="227" type="qcurve" smooth="yes"/>
      <point x="443" y="227"/>
      <point x="483" y="286" type="qcurve"/>
      <point x="557" y="243" type="line"/>
      <point x="496" y="141"/>
    </contour>
  </outline>
</glyph>
<glyph name="ordfeminine" format="2">
  <advance width="423"/>
  <unicode hex="00AA"/>
  <outline>
    <contour>
      <point x="211" y="398" type="qcurve" smooth="yes"/>
      <point x="241" y="398"/>
      <point x="288" y="428"/>
      <point x="296" y="461" type="qcurve"/>
      <point x="304" y="500" type="line"/>
      <point x="241" y="500" type="line" smooth="yes"/>
      <point x="201" y="500"/>
      <point x="167" y="467"/>
      <point x="164" y="432" type="qcurve"/>
      <point x="164" y="398"/>
    </contour>
    <contour>
      <point x="177" y="339" type="qcurve" smooth="yes"/>
      <point x="134" y="339"/>
      <point x="78" y="385"/>
      <point x="78" y="428" type="qcurve"/>
      <point x="81" y="551"/>
      <point x="252" y="551" type="qcurve" smooth="yes"/>
      <point x="314" y="551" type="line"/>
      <point x="320" y="579"/>
      <point x="320" y="582"/>
      <point x="321" y="584" type="qcurve"/>
      <point x="321" y="596" type="line" smooth="yes"/>
      <point x="321" y="645"/>
      <point x="265" y="645" type="qcurve" smooth="yes"/>
      <point x="235" y="645"/>
      <point x="191" y="620"/>
      <point x="172" y="597" type="qcurve"/>
      <point x="123" y="638" type="line"/>
      <point x="150" y="673"/>
      <point x="224" y="710"/>
      <point x="276" y="710" type="qcurve" smooth="yes"/>
      <point x="333" y="710"/>
      <point x="409" y="659"/>
      <point x="409" y="605" type="qcurve" smooth="yes"/>
      <point x="409" y="595"/>
      <point x="408" y="586" type="qcurve"/>
      <point x="405" y="566"/>
      <point x="374" y="413" type="qcurve"/>
      <point x="412" y="413" type="line"/>
      <point x="399" y="347" type="line"/>
      <point x="350" y="347" type="line" smooth="yes"/>
      <point x="304" y="347"/>
      <point x="298" y="382" type="qcurve"/>
      <point x="294" y="388"/>
      <point x="294" y="407" type="qcurve"/>
      <point x="290" y="407" type="line"/>
      <point x="273" y="375"/>
      <point x="215" y="339"/>
    </contour>
  </outline>
</glyph>
<glyph name="guillemotleft" format="2">
  <advance width="538"/>
  <unicode hex="00AB"/>
  <outline>
    <contour>
      <point x="419" y="61" type="line"/>
      <point x="265" y="226" type="line"/>
      <point x="286" y="333" type="line"/>
      <point x="494" y="493" type="line"/>
      <point x="525" y="413" type="line"/>
      <point x="369" y="270" type="line"/>
      <point x="467" y="132" type="line"/>
    </contour>
    <contour>
      <point x="188" y="61" type="line"/>
      <point x="33" y="226" type="line"/>
      <point x="55" y="333" type="line"/>
      <point x="263" y="493" type="line"/>
      <point x="294" y="413" type="line"/>
      <point x="138" y="270" type="line"/>
      <point x="236" y="132" type="line"/>
    </contour>
  </outline>
</glyph>
<glyph name="logicalnot" format="2">
  <advance width="600"/>
  <unicode hex="00AC"/>
  <outline>
    <contour>
      <point x="482" y="78" type="line"/>
      <point x="383" y="78" type="line"/>
      <point x="419" y="257" type="line"/>
      <point x="67" y="257" type="line"/>
      <point x="86" y="355" type="line"/>
      <point x="537" y="355" type="line"/>
    </contour>
  </outline>
</glyph>
<glyph name="u00AD" format="2">
  <advance width="392"/>
  <unicode hex="00AD"/>
  <outline>
    <contour>
      <point x="333" y="247" type="line"/>
      <point x="54" y="247" type="line"/>
      <point x="77" y="362" type="line"/>
      <point x="356" y="362" type="line"/>
    </contour>
  </outline>
</glyph>
<glyph name="registered" format="2">
  <advance width="459"/>
  <unicode hex="00AE"/>
  <outline>
    <contour>
      <point x="253" y="297" type="qcurve" smooth="yes"/>
      <point x="174" y="297"/>
      <point x="76" y="396"/>
      <point x="76" y="472" type="qcurve" smooth="yes"/>
      <point x="76" y="578"/>
      <point x="208" y="710"/>
      <point x="301" y="710" type="qcurve" smooth="yes"/>
      <point x="378" y="710"/>
      <point x="478" y="610"/>
      <point x="478" y="536" type="qcurve" smooth="yes"/>
      <point x="478" y="429"/>
      <point x="344" y="297"/>
    </contour>
    <contour>
      <point x="258" y="339" type="qcurve" smooth="yes"/>
      <point x="307" y="339"/>
      <point x="373" y="382"/>
      <point x="413" y="446"/>
      <point x="431" y="514"/>
      <point x="431" y="538" type="qcurve" smooth="yes"/>
      <point x="431" y="602"/>
      <point x="352" y="668"/>
      <point x="296" y="668" type="qcurve" smooth="yes"/>
      <point x="237" y="668"/>
      <point x="160" y="606"/>
      <point x="123" y="515"/>
      <point x="123" y="469" type="qcurve" smooth="yes"/>
      <point x="123" y="405"/>
      <point x="200" y="339"/>
    </contour>
    <contour>
      <point x="350" y="400" type="line"/>
      <point x="294" y="400" type="line"/>
      <point x="270" y="470" type="line"/>
      <point x="245" y="470" type="line"/>
      <point x="231" y="400" type="line"/>
      <point x="178" y="400" type="line"/>
      <point x="220" y="609" type="line"/>
      <point x="306" y="609" type="line" smooth="yes"/>
      <point x="342" y="609"/>
      <point x="375" y="573"/>
      <point x="375" y="548" type="qcurve" smooth="yes"/>
      <point x="375" y="525"/>
      <point x="347" y="486"/>
      <point x="321" y="478" type="qcurve"/>
    </contour>
    <contour>
      <point x="285" y="508" type="line" smooth="yes"/>
      <point x="319" y="508"/>
      <point x="319" y="549" type="qcurve" smooth="yes"/>
      <point x="319" y="568"/>
      <point x="297" y="568" type="qcurve" smooth="yes"/>
      <point x="264" y="568" type="line"/>
      <point x="252" y="508" type="line"/>
    </contour>
  </outline>
</glyph>
<glyph name="macron" format="2">
  <advance width="589"/>
  <unicode hex="00AF"/>
  <outline>
    <contour>
      <point x="448" y="630" type="line"/>
      <point x="172" y="630" type="line"/>
      <point x="190" y="718" type="line"/>
      <point x="466" y="718" type="line"/>
    </contour>
  </outline>
</glyph>
<glyph name="threesuperior" format="2">
  <advance width="335"/>
  <unicode hex="00B3"/>
  <outline>
    <contour>
      <point x="173" y="323" type="qcurve" smooth="yes"/>
      <point x="66" y="323"/>
      <point x="38" y="395" type="qcurve"/>
      <point x="98" y="437" type="line"/>
      <point x="117" y="389"/>
      <point x="174" y="389" type="qcurve" smooth="yes"/>
      <point x="228" y="389"/>
      <point x="241" y="436" type="qcurve"/>
      <point x="243" y="449" type="line"/>
      <point x="243" y="486"/>
      <point x="188" y="486" type="qcurve" smooth="yes"/>
      <point x="147" y="486" type="line"/>
      <point x="160" y="552" type="line"/>
      <point x="200" y="552" type="line" smooth="yes"/>
      <point x="262" y="552"/>
      <point x="268" y="590" type="qcurve" smooth="yes"/>
      <point x="270" y="605" type="line"/>
      <point x="269" y="619"/>
      <point x="245" y="639"/>
      <point x="222" y="639" type="qcurve" smooth="yes"/>
      <point x="178" y="639"/>
      <point x="139" y="594" type="qcurve"/>
      <point x="93" y="644" type="line"/>
      <point x="119" y="672"/>
      <point x="185" y="704"/>
      <point x="232" y="704" type="qcurve" smooth="yes"/>
      <point x="293" y="704"/>
      <point x="355" y="653"/>
      <point x="355" y="614" type="qcurve" smooth="yes"/>
      <point x="355" y="575"/>
      <point x="307" y="529"/>
      <point x="267" y="521" type="qcurve"/>
      <point x="267" y="519" type="line"/>
      <point x="329" y="505"/>
      <point x="329" y="445" type="qcurve" smooth="yes"/>
      <point x="329" y="393"/>
      <point x="249" y="323"/>
    </contour>
  </outline>
</glyph>
<glyph name="periodcentered" format="2">
  <advance width="338"/>
  <unicode hex="00B7"/>
  <outline>
    <contour>
      <point x="162" y="224" type="qcurve" smooth="yes"/>
      <point x="125" y="224"/>
      <point x="95" y="255"/>
      <point x="95" y="276" type="qcurve" smooth="yes"/>
      <point x="95" y="384"/>
      <point x="186" y="384" type="qcurve" smooth="yes"/>
      <point x="222" y="384"/>
      <point x="252" y="352"/>
      <point x="252" y="332" type="qcurve" smooth="yes"/>
      <point x="252" y="323" type="line"/>
      <point x="248" y="291"/>
      <point x="236" y="254"/>
      <point x="219" y="241" type="qcurve"/>
      <point x="198" y="224"/>
    </contour>
  </outline>
</glyph>
<glyph name="u00B9" format="2">
  <advance width="312"/>
  <unicode hex="00B9"/>
  <outline>
    <contour>
      <point x="238" y="329" type="line"/>
      <point x="157" y="329" type="line"/>
      <point x="215" y="621" type="line"/>
      <point x="126" y="576" type="line"/>
      <point x="142" y="657" type="line"/>
      <point x="226" y="698" type="line"/>
      <point x="312" y="698" type="line"/>
    </contour>
  </outline>
</glyph>
<glyph name="ordmasculine" format="2">
  <advance width="412"/>
  <unicode hex="00BA"/>
  <outline>
    <contour>
      <point x="239" y="404" type="qcurve" smooth="yes"/>
      <point x="309" y="404"/>
      <point x="329" y="496" type="qcurve"/>
      <point x="343" y="570"/>
      <point x="343" y="580" type="qcurve"/>
      <point x="341" y="644"/>
      <point x="278" y="644" type="qcurve" smooth="yes"/>
      <point x="243" y="644"/>
      <point x="197" y="591"/>
      <point x="174" y="509"/>
      <point x="174" y="468" type="qcurve"/>
      <point x="179" y="404"/>
    </contour>
    <contour>
      <point x="230" y="338" type="qcurve" smooth="yes"/>
      <point x="161" y="338"/>
      <point x="88" y="422"/>
      <point x="88" y="488" type="qcurve" smooth="yes"/>
      <point x="88" y="541"/>
      <point x="132" y="643"/>
      <point x="220" y="710"/>
      <point x="287" y="710" type="qcurve" smooth="yes"/>
      <point x="348" y="710"/>
      <point x="429" y="633"/>
      <point x="429" y="561" type="qcurve" smooth="yes"/>
      <point x="429" y="502"/>
      <point x="381" y="400"/>
      <point x="292" y="338"/>
    </contour>
  </outline>
</glyph>
<glyph name="questiondown" format="2">
  <advance width="483"/>
  <unicode hex="00BF"/>
  <outline>
    <contour>
      <point x="287" y="374" type="qcurve" smooth="yes"/>
      <point x="252" y="374"/>
      <point x="220" y="402"/>
      <point x="220" y="426" type="qcurve" smooth="yes"/>
      <point x="220" y="534"/>
      <point x="311" y="534" type="qcurve" smooth="yes"/>
      <point x="346" y="534"/>
      <point x="378" y="506"/>
      <point x="378" y="482" type="qcurve" smooth="yes"/>
      <point x="378" y="374"/>
    </contour>
    <contour>
      <point x="177" y="-188" type="qcurve" smooth="yes"/>
      <point x="90" y="-188"/>
      <point x="-17" y="-104"/>
      <point x="-17" y="-23" type="qcurve" smooth="yes"/>
      <point x="-17" y="64"/>
      <point x="103" y="189"/>
      <point x="196" y="210" type="qcurve"/>
      <point x="215" y="298" type="line"/>
      <point x="328" y="298" type="line"/>
      <point x="296" y="140" type="line"/>
      <point x="107" y="123"/>
      <point x="107" y="-10" type="qcurve" smooth="yes"/>
      <point x="107" y="-49"/>
      <point x="156" y="-86"/>
      <point x="192" y="-86" type="qcurve" smooth="yes"/>
      <point x="278" y="-86"/>
      <point x="317" y="15" type="qcurve"/>
      <point x="413" y="-27" type="line"/>
      <point x="343" y="-188"/>
    </contour>
  </outline>
</glyph>
<glyph name="Acircumflex" format="2">
  <advance width="645"/>
  <unicode hex="00C2"/>
  <outline>
    <contour>
      <point x="301" y="747" type="line"/>
      <point x="243" y="795" type="line"/>
      <point x="392" y="947" type="line"/>
      <point x="503" y="947" type="line"/>
      <point x="597" y="795" type="line"/>
      <point x="534" y="748" type="line"/>
      <point x="437" y="863" type="line"/>
    </contour>
    <contour>
      <point x="573" y="0" type="line"/>
      <point x="450" y="0" type="line"/>
      <point x="430" y="183" type="line"/>
      <point x="189" y="183" type="line"/>
      <point x="97" y="0" type="line"/>
      <point x="-32" y="0" type="line"/>
      <point x="333" y="698" type="line"/>
      <point x="488" y="698" type="line"/>
    </contour>
    <contour>
      <point x="421" y="286" type="line"/>
      <point x="392" y="588" type="line"/>
      <point x="385" y="588" type="line"/>
      <point x="238" y="286" type="line"/>
    </contour>
  </outline>
</glyph>
<glyph name="Atilde" format="2">
  <advance width="645"/>
  <unicode hex="00C3"/>
  <outline>
    <contour>
      <point x="498" y="770" type="qcurve" smooth="yes"/>
      <point x="461" y="770"/>
      <point x="403" y="802" type="qcurve" smooth="yes"/>
      <point x="378" y="815"/>
      <point x="353" y="815" type="qcurve" smooth="yes"/>
      <point x="337" y="815"/>
      <point x="315" y="804"/>
      <point x="301" y="794" type="qcurve"/>
      <point x="294" y="790" type="line"/>
      <point x="257" y="847" type="line"/>
      <point x="302" y="906"/>
      <point x="366" y="906" type="qcurve" smooth="yes"/>
      <point x="406" y="906"/>
      <point x="461" y="874" type="qcurve"/>
      <point x="488" y="860"/>
      <point x="512" y="860" type="qcurve" smooth="yes"/>
      <point x="529" y="860"/>
      <point x="553" y="872"/>
      <point x="570" y="886" type="qcurve"/>
      <point x="607" y="829" type="line"/>
      <point x="561" y="770"/>
    </contour>
    <contour>
      <point x="573" y="0" type="line"/>
      <point x="450" y="0" type="line"/>
      <point x="430" y="183" type="line"/>
      <point x="189" y="183" type="line"/>
      <point x="97" y="0" type="line"/>
      <point x="-32" y="0" type="line"/>
      <point x="333" y="698" type="line"/>
      <point x="488" y="698" type="line"/>
    </contour>
    <contour>
      <point x="421" y="286" type="line"/>
      <point x="392" y="588" type="line"/>
      <point x="385" y="588" type="line"/>
      <point x="238" y="286" type="line"/>
    </contour>
  </outline>
</glyph>
<glyph name="Aring" format="2">
  <advance width="645"/>
  <unicode hex="00C5"/>
  <outline>
    <contour>
      <point x="421" y="286" type="line"/>
      <point x="392" y="588" type="line"/>
      <point x="385" y="588" type="line"/>
      <point x="238" y="286" type="line"/>
    </contour>
    <contour>
      <point x="421" y="793" type="qcurve" smooth="yes"/>
      <point x="457" y="793"/>
      <point x="487" y="855"/>
      <point x="487" y="890" type="qcurve" smooth="yes"/>
      <point x="487" y="930"/>
      <point x="443" y="930" type="qcurve" smooth="yes"/>
      <point x="415" y="930"/>
      <point x="386" y="895"/>
      <point x="376" y="849"/>
      <point x="376" y="834" type="qcurve" smooth="yes"/>
      <point x="376" y="793"/>
    </contour>
    <contour>
      <point x="573" y="0" type="line"/>
      <point x="450" y="0" type="line"/>
      <point x="430" y="183" type="line"/>
      <point x="189" y="183" type="line"/>
      <point x="97" y="0" type="line"/>
      <point x="-32" y="0" type="line"/>
      <point x="333" y="698" type="line"/>
      <point x="488" y="698" type="line"/>
    </contour>
    <contour>
      <point x="415" y="729" type="qcurve" smooth="yes"/>
      <point x="361" y="729"/>
      <point x="297" y="793"/>
      <point x="297" y="842" type="qcurve" smooth="yes"/>
      <point x="297" y="908"/>
      <point x="384" y="994"/>
      <point x="449" y="994" type="qcurve" smooth="yes"/>
      <point x="498" y="994"/>
      <point x="566" y="933"/>
      <point x="566" y="880" type="qcurve" smooth="yes"/>
      <point x="566" y="812"/>
      <point x="477" y="729"/>
    </contour>
  </outline>
</glyph>
<glyph name="Ecircumflex" format="2">
  <advance width="573"/>
  <unicode hex="00CA"/>
  <outline>
    <contour>
      <point x="278" y="747" type="line"/>
      <point x="220" y="795" type="line"/>
      <point x="369" y="947" type="line"/>
      <point x="480" y="947" type="line"/>
      <point x="574" y="795" type="line"/>
      <point x="511" y="748" type="line"/>
      <point x="414" y="863" type="line"/>
    </contour>
    <contour>
      <point x="476" y="0" type="line"/>
      <point x="29" y="0" type="line"/>
      <point x="169" y="698" type="line"/>
      <point x="603" y="698" type="line"/>
      <point x="581" y="591" type="line"/>
      <point x="268" y="591" type="line"/>
      <point x="231" y="406" type="line"/>
      <point x="510" y="406" type="line"/>
      <point x="488" y="299" type="line"/>
      <point x="210" y="299" type="line"/>
      <point x="171" y="107" type="line"/>
      <point x="497" y="107" type="line"/>
    </contour>
  </outline>
</glyph>
<glyph name="Otilde" format="2">
  <advance width="690"/>
  <unicode hex="00D5"/>
  <outline>
    <contour>
      <point x="519" y="770" type="qcurve" smooth="yes"/>
      <point x="497" y="770"/>
      <point x="481" y="776" type="qcurve" smooth="yes"/>
      <point x="459" y="784"/>
      <point x="422" y="802"/>
      <point x="390" y="815"/>
      <point x="374" y="815" type="qcurve" smooth="yes"/>
      <point x="357" y="815"/>
      <point x="331" y="802"/>
      <point x="315" y="790" type="qcurve"/>
      <point x="278" y="847" type="line"/>
      <point x="323" y="906"/>
      <point x="387" y="906" type="qcurve" smooth="yes"/>
      <point x="427" y="906"/>
      <point x="482" y="874" type="qcurve"/>
      <point x="509" y="860"/>
      <point x="532" y="860" type="qcurve" smooth="yes"/>
      <point x="551" y="860"/>
      <point x="574" y="873"/>
      <point x="591" y="886" type="qcurve"/>
      <point x="628" y="829" type="line"/>
      <point x="582" y="770"/>
    </contour>
    <contour>
      <point x="305" y="-12" type="qcurve" smooth="yes"/>
      <point x="196" y="-12"/>
      <point x="56" y="135"/>
      <point x="56" y="267" type="qcurve" smooth="yes"/>
      <point x="56" y="388"/>
      <point x="160" y="610"/>
      <point x="264" y="672" type="qcurve" smooth="yes"/>
      <point x="330" y="710"/>
      <point x="414" y="710" type="qcurve" smooth="yes"/>
      <point x="527" y="710"/>
      <point x="663" y="561"/>
      <point x="663" y="431" type="qcurve" smooth="yes"/>
      <point x="663" y="316"/>
      <point x="574" y="113"/>
      <point x="413" y="-12"/>
    </contour>
    <contour>
      <point x="315" y="96" type="qcurve" smooth="yes"/>
      <point x="399" y="96"/>
      <point x="498" y="203"/>
      <point x="515" y="299" type="qcurve"/>
      <point x="535" y="398" type="line" smooth="yes"/>
      <point x="540" y="423"/>
      <point x="540" y="442" type="qcurve"/>
      <point x="541" y="456" type="line"/>
      <point x="538" y="602"/>
      <point x="405" y="602" type="qcurve" smooth="yes"/>
      <point x="244" y="602"/>
      <point x="203" y="398" type="qcurve" smooth="yes"/>
      <point x="184" y="300" type="line" smooth="yes"/>
      <point x="179" y="275"/>
      <point x="179" y="256" type="qcurve"/>
      <point x="178" y="242" type="line"/>
      <point x="178" y="96"/>
    </contour>
  </outline>
</glyph>
<glyph name="Ugrave" format="2">
  <advance width="669"/>
  <unicode hex="00D9"/>
  <outline>
    <contour>
      <point x="410" y="746" type="line"/>
      <point x="313" y="917" type="line"/>
      <point x="417" y="966" type="line"/>
      <point x="483" y="778" type="line"/>
    </contour>
    <contour>
      <point x="297" y="-12" type="qcurve" smooth="yes"/>
      <point x="184" y="-12"/>
      <point x="76" y="103"/>
      <point x="76" y="205" type="qcurve" smooth="yes"/>
      <point x="76" y="247"/>
      <point x="86" y="300" type="qcurve" smooth="yes"/>
      <point x="165" y="698" type="line"/>
      <point x="285" y="698" type="line"/>
      <point x="201" y="278" type="line" smooth="yes"/>
      <point x="193" y="240"/>
      <point x="193" y="211" type="qcurve"/>
      <point x="196" y="99"/>
      <point x="305" y="99" type="qcurve" smooth="yes"/>
      <point x="376" y="99"/>
      <point x="456" y="185"/>
      <point x="473" y="275" type="qcurve" smooth="yes"/>
      <point x="526" y="542"/>
      <point x="558" y="698" type="qcurve"/>
      <point x="677" y="698" type="line"/>
      <point x="593" y="276" type="line" smooth="yes"/>
      <point x="564" y="124"/>
      <point x="425" y="-12"/>
    </contour>
  </outline>
</glyph>
<glyph name="Uacute" format="2">
  <advance width="669"/>
  <unicode hex="00DA"/>
  <outline>
    <contour>
      <point x="443" y="746" type="line"/>
      <point x="372" y="784" type="line"/>
      <point x="485" y="966" type="line"/>
      <point x="581" y="916" type="line"/>
    </contour>
    <contour>
      <point x="297" y="-12" type="qcurve" smooth="yes"/>
      <point x="184" y="-12"/>
      <point x="76" y="103"/>
      <point x="76" y="205" type="qcurve" smooth="yes"/>
      <point x="76" y="247"/>
      <point x="86" y="300" type="qcurve" smooth="yes"/>
      <point x="165" y="698" type="line"/>
      <point x="285" y="698" type="line"/>
      <point x="201" y="278" type="line" smooth="yes"/>
      <point x="193" y="240"/>
      <point x="193" y="211" type="qcurve"/>
      <point x="196" y="99"/>
      <point x="305" y="99" type="qcurve" smooth="yes"/>
      <point x="376" y="99"/>
      <point x="456" y="185"/>
      <point x="473" y="275" type="qcurve" smooth="yes"/>
      <point x="526" y="542"/>
      <point x="558" y="698" type="qcurve"/>
      <point x="677" y="698" type="line"/>
      <point x="593" y="276" type="line" smooth="yes"/>
      <point x="564" y="124"/>
      <point x="425" y="-12"/>
    </contour>
  </outline>
</glyph>
<glyph name="Udieresis" format="2">
  <advance width="669"/>
  <unicode hex="00DC"/>
  <outline>
    <contour>
      <point x="334" y="771" type="qcurve" smooth="yes"/>
      <point x="279" y="771"/>
      <point x="279" y="814" type="qcurve" smooth="yes"/>
      <point x="279" y="850"/>
      <point x="314" y="905"/>
      <point x="359" y="905" type="qcurve" smooth="yes"/>
      <point x="413" y="905"/>
      <point x="413" y="862" type="qcurve" smooth="yes"/>
      <point x="413" y="771"/>
    </contour>
    <contour>
      <point x="527" y="771" type="qcurve" smooth="yes"/>
      <point x="471" y="771"/>
      <point x="471" y="814" type="qcurve" smooth="yes"/>
      <point x="471" y="905"/>
      <point x="552" y="905" type="qcurve" smooth="yes"/>
      <point x="606" y="905"/>
      <point x="606" y="862" type="qcurve" smooth="yes"/>
      <point x="606" y="771"/>
    </contour>
    <contour>
      <point x="297" y="-12" type="qcurve" smooth="yes"/>
      <point x="184" y="-12"/>
      <point x="76" y="103"/>
      <point x="76" y="205" type="qcurve" smooth="yes"/>
      <point x="76" y="247"/>
      <point x="86" y="300" type="qcurve" smooth="yes"/>
      <point x="165" y="698" type="line"/>
      <point x="285" y="698" type="line"/>
      <point x="201" y="278" type="line" smooth="yes"/>
      <point x="193" y="240"/>
      <point x="193" y="211" type="qcurve"/>
      <point x="196" y="99"/>
      <point x="305" y="99" type="qcurve" smooth="yes"/>
      <point x="376" y="99"/>
      <point x="456" y="185"/>
      <point x="473" y="275" type="qcurve" smooth="yes"/>
      <point x="526" y="542"/>
      <point x="558" y="698" type="qcurve"/>
      <point x="677" y="698" type="line"/>
      <point x="593" y="276" type="line" smooth="yes"/>
      <point x="564" y="124"/>
      <point x="425" y="-12"/>
    </contour>
  </outline>
</glyph>
<glyph name="Yacute" format="2">
  <advance width="606"/>
  <unicode hex="00DD"/>
  <outline>
    <contour>
      <point x="309" y="0" type="line"/>
      <point x="189" y="0" type="line"/>
      <point x="244" y="272" type="line"/>
      <point x="96" y="698" type="line"/>
      <point x="219" y="698" type="line"/>
      <point x="322" y="386" type="line"/>
      <point x="327" y="386" type="line"/>
      <point x="547" y="698" type="line"/>
      <point x="682" y="698" type="line"/>
      <point x="363" y="264" type="line"/>
    </contour>
    <contour>
      <point x="401" y="746" type="line"/>
      <point x="331" y="784" type="line"/>
      <point x="444" y="966" type="line"/>
      <point x="539" y="916" type="line"/>
    </contour>
  </outline>
</glyph>
<glyph name="Thorn" format="2">
  <advance width="615"/>
  <unicode hex="00DE"/>
  <outline>
    <contour>
      <point x="362" y="249" type="line" smooth="yes"/>
      <point x="399" y="249"/>
      <point x="456" y="288"/>
      <point x="466" y="331" type="qcurve" smooth="yes"/>
      <point x="475" y="372" type="line"/>
      <point x="478" y="384"/>
      <point x="478" y="398" type="qcurve" smooth="yes"/>
      <point x="478" y="458"/>
      <point x="402" y="461" type="qcurve"/>
      <point x="241" y="461" type="line"/>
      <point x="199" y="249" type="line"/>
    </contour>
    <contour>
      <point x="149" y="0" type="line"/>
      <point x="28" y="0" type="line"/>
      <point x="168" y="698" type="line"/>
      <point x="289" y="698" type="line"/>
      <point x="263" y="568" type="line"/>
      <point x="401" y="568" type="line" smooth="yes"/>
      <point x="506" y="568"/>
      <point x="603" y="467"/>
      <point x="603" y="389" type="qcurve" smooth="yes"/>
      <point x="603" y="278"/>
      <point x="459" y="141"/>
      <point x="347" y="141" type="qcurve" smooth="yes"/>
      <point x="176" y="141" type="line"/>
    </contour>
  </outline>
</glyph>
<glyph name="ccedilla" format="2">
  <advance width="491"/>
  <unicode hex="00E7"/>
  <outline>
    <contour>
      <point x="214" y="-210" type="qcurve" smooth="yes"/>
      <point x="175" y="-210"/>
      <point x="119" y="-186"/>
      <point x="107" y="-167" type="qcurve"/>
      <point x="154" y="-120" type="line"/>
      <point x="160" y="-129"/>
      <point x="192" y="-147"/>
      <point x="213" y="-147" type="qcurve"/>
      <point x="257" y="-144"/>
      <point x="260" y="-118" type="qcurve"/>
      <point x="260" y="-115" type="line" smooth="yes"/>
      <point x="260" y="-83"/>
      <point x="200" y="-76" type="qcurve"/>
      <point x="176" y="-74" type="line"/>
      <point x="200" y="-10" type="line"/>
      <point x="126" y="1"/>
      <point x="38" y="107"/>
      <point x="38" y="209" type="qcurve" smooth="yes"/>
      <point x="38" y="277"/>
      <point x="77" y="395"/>
      <point x="148" y="483"/>
      <point x="247" y="534"/>
      <point x="307" y="534" type="qcurve" smooth="yes"/>
      <point x="379" y="534"/>
      <point x="474" y="464"/>
      <point x="488" y="404" type="qcurve"/>
      <point x="391" y="365" type="line"/>
      <point x="381" y="399"/>
      <point x="342" y="437"/>
      <point x="301" y="437" type="qcurve" smooth="yes"/>
      <point x="198" y="437"/>
      <point x="174" y="307" type="qcurve" smooth="yes"/>
      <point x="154" y="204"/>
      <point x="153" y="189" type="qcurve"/>
      <point x="153" y="183" type="line" smooth="yes"/>
      <point x="153" y="84"/>
      <point x="247" y="84" type="qcurve" smooth="yes"/>
      <point x="288" y="84"/>
      <point x="336" y="129"/>
      <point x="362" y="174" type="qcurve"/>
      <point x="451" y="132" type="line"/>
      <point x="386" y="1"/>
      <point x="260" y="-11" type="qcurve"/>
      <point x="243" y="-58" type="line"/>
      <point x="245" y="-61" type="line"/>
      <point x="261" y="-55"/>
      <point x="283" y="-55" type="qcurve" smooth="yes"/>
      <point x="309" y="-55"/>
      <point x="345" y="-82"/>
      <point x="345" y="-111" type="qcurve" smooth="yes"/>
      <point x="345" y="-135"/>
      <point x="325" y="-172"/>
      <point x="289" y="-197"/>
      <point x="241" y="-210"/>
    </contour>
  </outline>
</glyph>
<glyph name="ecircumflex" format="2">
  <advance width="513"/>
  <unicode hex="00EA"/>
  <outline>
    <contour>
      <point x="450" y="583" type="line"/>
      <point x="353" y="699" type="line"/>
      <point x="217" y="584" type="line"/>
      <point x="159" y="631" type="line"/>
      <point x="308" y="783" type="line"/>
      <point x="419" y="783" type="line"/>
      <point x="513" y="631" type="line"/>
    </contour>
    <contour>
      <point x="250" y="-12" type="qcurve" smooth="yes"/>
      <point x="139" y="-12"/>
      <point x="38" y="109"/>
      <point x="38" y="210" type="qcurve" smooth="yes"/>
      <point x="38" y="285"/>
      <point x="100" y="434"/>
      <point x="224" y="534"/>
      <point x="317" y="534" type="qcurve" smooth="yes"/>
      <point x="391" y="534"/>
      <point x="497" y="460"/>
      <point x="497" y="390" type="qcurve" smooth="yes"/>
      <point x="497" y="304"/>
      <point x="325" y="218"/>
      <point x="156" y="213" type="qcurve"/>
      <point x="155" y="203" type="line"/>
      <point x="153" y="192"/>
      <point x="153" y="183" type="qcurve" smooth="yes"/>
      <point x="153" y="84"/>
      <point x="258" y="84" type="qcurve" smooth="yes"/>
      <point x="341" y="84"/>
      <point x="397" y="161" type="qcurve"/>
      <point x="470" y="101" type="line"/>
      <point x="423" y="43"/>
      <point x="317" y="-12"/>
    </contour>
    <contour>
      <point x="169" y="291" type="line"/>
      <point x="292" y="296"/>
      <point x="383" y="338"/>
      <point x="383" y="382" type="qcurve" smooth="yes"/>
      <point x="383" y="443"/>
      <point x="309" y="443" type="qcurve" smooth="yes"/>
      <point x="199" y="443"/>
      <point x="170" y="299" type="qcurve"/>
    </contour>
  </outline>
</glyph>
<glyph name="iacute" format="2">
  <advance width="274"/>
  <unicode hex="00ED"/>
  <outline>
    <contour>
      <point x="215" y="581" type="line"/>
      <point x="145" y="619" type="line"/>
      <point x="258" y="802" type="line"/>
      <point x="354" y="751" type="line"/>
    </contour>
    <contour>
      <point x="203" y="0" type="line"/>
      <point x="121" y="0" type="line" smooth="yes"/>
      <point x="79" y="0"/>
      <point x="39" y="41"/>
      <point x="39" y="74" type="qcurve" smooth="yes"/>
      <point x="39" y="80"/>
      <point x="127" y="522" type="qcurve"/>
      <point x="243" y="522" type="line"/>
      <point x="157" y="95" type="line"/>
      <point x="222" y="95" type="line"/>
    </contour>
  </outline>
</glyph>
<glyph name="divide" format="2">
  <advance width="600"/>
  <unicode hex="00F7"/>
  <outline>
    <contour>
      <point x="336" y="428" type="qcurve" smooth="yes"/>
      <point x="270" y="428"/>
      <point x="270" y="473" type="qcurve" smooth="yes"/>
      <point x="270" y="573"/>
      <point x="359" y="573" type="qcurve" smooth="yes"/>
      <point x="394" y="573"/>
      <point x="425" y="547"/>
      <point x="425" y="527" type="qcurve" smooth="yes"/>
      <point x="425" y="428"/>
    </contour>
    <contour>
      <point x="528" y="257" type="line"/>
      <point x="70" y="257" type="line"/>
      <point x="90" y="355" type="line"/>
      <point x="548" y="355" type="line"/>
    </contour>
    <contour>
      <point x="259" y="38" type="qcurve" smooth="yes"/>
      <point x="193" y="38"/>
      <point x="193" y="80" type="qcurve" smooth="yes"/>
      <point x="193" y="83" type="line" smooth="yes"/>
      <point x="193" y="183"/>
      <point x="282" y="183" type="qcurve" smooth="yes"/>
      <point x="317" y="183"/>
      <point x="348" y="157"/>
      <point x="348" y="137" type="qcurve" smooth="yes"/>
      <point x="348" y="38"/>
    </contour>
  </outline>
</glyph>
<glyph name="Cacute" format="2">
  <advance width="622"/>
  <unicode hex="0106"/>
  <outline>
    <contour>
      <point x="300" y="-12" type="qcurve" smooth="yes"/>
      <point x="192" y="-12"/>
      <point x="56" y="130"/>
      <point x="56" y="270" type="qcurve" smooth="yes"/>
      <point x="56" y="387"/>
      <point x="144" y="588"/>
      <point x="301" y="710"/>
      <point x="406" y="710" type="qcurve" smooth="yes"/>
      <point x="585" y="710"/>
      <point x="637" y="544" type="qcurve"/>
      <point x="529" y="498" type="line"/>
      <point x="515" y="548"/>
      <point x="454" y="602"/>
      <point x="396" y="602" type="qcurve" smooth="yes"/>
      <point x="317" y="602"/>
      <point x="222" y="498"/>
      <point x="206" y="414" type="qcurve" smooth="yes"/>
      <point x="183" y="302" type="line" smooth="yes"/>
      <point x="177" y="270"/>
      <point x="177" y="246" type="qcurve" smooth="yes"/>
      <point x="177" y="176"/>
      <point x="242" y="96"/>
      <point x="310" y="96" type="qcurve" smooth="yes"/>
      <point x="370" y="96"/>
      <point x="450" y="154"/>
      <point x="478" y="210" type="qcurve"/>
      <point x="578" y="163" type="line"/>
      <point x="489" y="-12"/>
    </contour>
    <contour>
      <point x="436" y="746" type="line"/>
      <point x="366" y="784" type="line"/>
      <point x="479" y="966" type="line"/>
      <point x="574" y="916" type="line"/>
    </contour>
  </outline>
</glyph>
<glyph name="dcroat" format="2">
  <advance width="588"/>
  <unicode hex="0111"/>
  <outline>
    <contour>
      <point x="236" y="86" type="qcurve" smooth="yes"/>
      <point x="275" y="86"/>
      <point x="336" y="134"/>
      <point x="377" y="207"/>
      <point x="385" y="246" type="qcurve" smooth="yes"/>
      <point x="405" y="348"/>
      <point x="405" y="358" type="qcurve" smooth="yes"/>
      <point x="405" y="393"/>
      <point x="357" y="436"/>
      <point x="309" y="436" type="qcurve" smooth="yes"/>
      <point x="204" y="436"/>
      <point x="177" y="304" type="qcurve" smooth="yes"/>
      <point x="171" y="271" type="line"/>
      <point x="157" y="215"/>
      <point x="157" y="177" type="qcurve"/>
      <point x="161" y="86"/>
    </contour>
    <contour>
      <point x="185" y="-12" type="qcurve" smooth="yes"/>
      <point x="112" y="-12"/>
      <point x="38" y="92"/>
      <point x="38" y="176" type="qcurve" smooth="yes"/>
      <point x="38" y="244"/>
      <point x="72" y="374"/>
      <point x="136" y="473"/>
      <point x="228" y="534"/>
      <point x="286" y="534" type="qcurve" smooth="yes"/>
      <point x="337" y="534"/>
      <point x="410" y="478"/>
      <point x="418" y="433" type="qcurve"/>
      <point x="423" y="433" type="line"/>
      <point x="456" y="597" type="line"/>
      <point x="306" y="597" type="line"/>
      <point x="322" y="679" type="line"/>
      <point x="472" y="679" type="line"/>
      <point x="484" y="740" type="line"/>
      <point x="600" y="740" type="line"/>
      <point x="588" y="679" type="line"/>
      <point x="647" y="679" type="line"/>
      <point x="629" y="597" type="line"/>
      <point x="572" y="597" type="line"/>
      <point x="471" y="95" type="line"/>
      <point x="535" y="95" type="line"/>
      <point x="516" y="0" type="line"/>
      <point x="433" y="0" type="line"/>
      <point x="360" y="2"/>
      <point x="354" y="62" type="qcurve"/>
      <point x="353" y="76" type="line"/>
      <point x="356" y="105"/>
      <point x="359" y="118" type="qcurve"/>
      <point x="355" y="118" type="line"/>
      <point x="323" y="53"/>
      <point x="247" y="-12"/>
    </contour>
  </outline>
</glyph>
<glyph name="Gcircumflex" format="2">
  <advance width="622"/>
  <unicode hex="011C"/>
  <outline>
    <contour>
      <point x="612" y="375" type="line"/>
      <point x="589" y="257" type="line"/>
      <point x="574" y="194"/>
      <point x="523" y="94"/>
      <point x="447" y="25"/>
      <point x="343" y="-12"/>
      <point x="274" y="-12" type="qcurve" smooth="yes"/>
      <point x="225" y="-12"/>
      <point x="139" y="25"/>
      <point x="74" y="97"/>
      <point x="37" y="204"/>
      <point x="37" y="274" type="qcurve" smooth="yes"/>
      <point x="37" y="355"/>
      <point x="82" y="511"/>
      <point x="171" y="634"/>
      <point x="304" y="710"/>
      <point x="393" y="710" type="qcurve" smooth="yes"/>
      <point x="445" y="710"/>
      <point x="525" y="682"/>
      <point x="584" y="637"/>
      <point x="620" y="579"/>
      <point x="629" y="550" type="qcurve"/>
      <point x="528" y="502" type="line"/>
      <point x="524" y="523"/>
      <point x="503" y="562"/>
      <point x="467" y="593"/>
      <point x="416" y="611"/>
      <point x="382" y="611" type="qcurve" smooth="yes"/>
      <point x="302" y="611"/>
      <point x="198" y="505"/>
      <point x="180" y="414" type="qcurve" smooth="yes"/>
      <point x="163" y="326" type="line"/>
      <point x="158" y="306"/>
      <point x="151" y="263"/>
      <point x="151" y="243" type="qcurve" smooth="yes"/>
      <point x="151" y="211"/>
      <point x="168" y="154"/>
      <point x="202" y="111"/>
      <point x="255" y="86"/>
      <point x="290" y="86" type="qcurve" smooth="yes"/>
      <point x="355" y="86"/>
      <point x="454" y="158"/>
      <point x="468" y="229" type="qcurve" smooth="yes"/>
      <point x="478" y="275" type="line"/>
      <point x="309" y="275" type="line"/>
      <point x="329" y="375" type="line"/>
    </contour>
    <contour>
      <point x="400" y="945" type="line"/>
      <point x="508" y="945" type="line"/>
      <point x="599" y="794" type="line"/>
      <point x="540" y="751" type="line"/>
      <point x="444" y="866" type="line"/>
      <point x="307" y="750" type="line"/>
      <point x="252" y="795" type="line"/>
    </contour>
  </outline>
</glyph>
<glyph name="gcircumflex" format="2">
  <advance width="568"/>
  <unicode hex="011D"/>
  <outline>
    <contour>
      <point x="456" y="583" type="line"/>
      <point x="360" y="699" type="line"/>
      <point x="224" y="584" type="line"/>
      <point x="166" y="631" type="line"/>
      <point x="315" y="783" type="line"/>
      <point x="426" y="783" type="line"/>
      <point x="519" y="631" type="line"/>
    </contour>
    <contour>
      <point x="204" y="-212" type="qcurve" smooth="yes"/>
      <point x="67" y="-212"/>
      <point x="1" y="-120" type="qcurve"/>
      <point x="77" y="-52" type="line"/>
      <point x="118" y="-117"/>
      <point x="202" y="-117" type="qcurve" smooth="yes"/>
      <point x="312" y="-117"/>
      <point x="339" y="17" type="qcurve" smooth="yes"/>
      <point x="361" y="127" type="line"/>
      <point x="356" y="127" type="line"/>
      <point x="326" y="61"/>
      <point x="244" y="-3"/>
      <point x="186" y="-3" type="qcurve" smooth="yes"/>
      <point x="115" y="-3"/>
      <point x="40" y="101"/>
      <point x="40" y="185" type="qcurve" smooth="yes"/>
      <point x="40" y="281"/>
      <point x="100" y="439"/>
      <point x="210" y="534"/>
      <point x="285" y="534" type="qcurve" smooth="yes"/>
      <point x="333" y="534"/>
      <point x="408" y="481"/>
      <point x="418" y="433" type="qcurve"/>
      <point x="423" y="433" type="line"/>
      <point x="440" y="522" type="line"/>
      <point x="556" y="522" type="line"/>
      <point x="454" y="9" type="line" smooth="yes"/>
      <point x="434" y="-96"/>
      <point x="316" y="-212"/>
    </contour>
    <contour>
      <point x="237" y="94" type="qcurve"/>
      <point x="286" y="94"/>
      <point x="371" y="183"/>
      <point x="386" y="255" type="qcurve" smooth="yes"/>
      <point x="398" y="318" type="line" smooth="yes"/>
      <point x="404" y="349"/>
      <point x="404" y="355" type="qcurve" smooth="yes"/>
      <point x="404" y="372"/>
      <point x="389" y="410"/>
      <point x="348" y="436"/>
      <point x="309" y="436" type="qcurve" smooth="yes"/>
      <point x="203" y="436"/>
      <point x="178" y="304" type="qcurve" smooth="yes"/>
      <point x="172" y="272"/>
      <point x="159" y="210"/>
      <point x="159" y="185" type="qcurve" smooth="yes"/>
      <point x="159" y="99"/>
    </contour>
  </outline>
</glyph>
<glyph name="gdotaccent" format="2">
  <advance width="568"/>
  <unicode hex="0121"/>
  <outline>
    <contour>
      <point x="237" y="94" type="qcurve"/>
      <point x="286" y="94"/>
      <point x="371" y="183"/>
      <point x="386" y="255" type="qcurve" smooth="yes"/>
      <point x="398" y="318" type="line" smooth="yes"/>
      <point x="404" y="349"/>
      <point x="404" y="355" type="qcurve" smooth="yes"/>
      <point x="404" y="372"/>
      <point x="389" y="410"/>
      <point x="348" y="436"/>
      <point x="309" y="436" type="qcurve" smooth="yes"/>
      <point x="203" y="436"/>
      <point x="178" y="304" type="qcurve" smooth="yes"/>
      <point x="172" y="272"/>
      <point x="159" y="210"/>
      <point x="159" y="185" type="qcurve" smooth="yes"/>
      <point x="159" y="99"/>
    </contour>
    <contour>
      <point x="204" y="-212" type="qcurve" smooth="yes"/>
      <point x="67" y="-212"/>
      <point x="1" y="-120" type="qcurve"/>
      <point x="77" y="-52" type="line"/>
      <point x="118" y="-117"/>
      <point x="202" y="-117" type="qcurve" smooth="yes"/>
      <point x="312" y="-117"/>
      <point x="339" y="17" type="qcurve" smooth="yes"/>
      <point x="361" y="127" type="line"/>
      <point x="356" y="127" type="line"/>
      <point x="326" y="61"/>
      <point x="244" y="-3"/>
      <point x="186" y="-3" type="qcurve" smooth="yes"/>
      <point x="115" y="-3"/>
      <point x="40" y="101"/>
      <point x="40" y="185" type="qcurve" smooth="yes"/>
      <point x="40" y="281"/>
      <point x="100" y="439"/>
      <point x="210" y="534"/>
      <point x="285" y="534" type="qcurve" smooth="yes"/>
      <point x="333" y="534"/>
      <point x="408" y="481"/>
      <point x="418" y="433" type="qcurve"/>
      <point x="423" y="433" type="line"/>
      <point x="440" y="522" type="line"/>
      <point x="556" y="522" type="line"/>
      <point x="454" y="9" type="line" smooth="yes"/>
      <point x="434" y="-96"/>
      <point x="316" y="-212"/>
    </contour>
    <contour>
      <point x="345" y="600" type="qcurve" smooth="yes"/>
      <point x="282" y="600"/>
      <point x="282" y="650" type="qcurve" smooth="yes"/>
      <point x="282" y="658"/>
      <point x="290" y="704"/>
      <point x="326" y="744"/>
      <point x="367" y="744" type="qcurve" smooth="yes"/>
      <point x="430" y="744"/>
      <point x="430" y="695" type="qcurve" smooth="yes"/>
      <point x="430" y="600"/>
    </contour>
  </outline>
</glyph>
<glyph name="Hbar" format="2">
  <advance width="702"/>
  <unicode hex="0126"/>
  <outline>
    <contour>
      <point x="526" y="406" type="line"/>
      <point x="547" y="516" type="line"/>
      <point x="257" y="516" type="line"/>
      <point x="235" y="406" type="line"/>
    </contour>
    <contour>
      <point x="564" y="0" type="line"/>
      <point x="444" y="0" type="line"/>
      <point x="505" y="299" type="line"/>
      <point x="214" y="299" type="line"/>
      <point x="153" y="0" type="line"/>
      <point x="33" y="0" type="line"/>
      <point x="136" y="516" type="line"/>
      <point x="66" y="516" type="line"/>
      <point x="84" y="606" type="line"/>
      <point x="154" y="606" type="line"/>
      <point x="173" y="698" type="line"/>
      <point x="293" y="698" type="line"/>
      <point x="275" y="606" type="line"/>
      <point x="565" y="606" type="line"/>
      <point x="584" y="698" type="line"/>
      <point x="704" y="698" type="line"/>
      <point x="686" y="606" type="line"/>
      <point x="755" y="606" type="line"/>
      <point x="737" y="516" type="line"/>
      <point x="667" y="516" type="line"/>
    </contour>
  </outline>
</glyph>
<glyph name="ibreve" format="2">
  <advance width="274"/>
  <unicode hex="012D"/>
  <outline>
    <contour>
      <point x="203" y="0" type="line"/>
      <point x="121" y="0" type="line" smooth="yes"/>
      <point x="79" y="0"/>
      <point x="39" y="41"/>
      <point x="39" y="74" type="qcurve" smooth="yes"/>
      <point x="39" y="80"/>
      <point x="127" y="522" type="qcurve"/>
      <point x="243" y="522" type="line"/>
      <point x="157" y="95" type="line"/>
      <point x="222" y="95" type="line"/>
    </contour>
    <contour>
      <point x="201" y="586" type="qcurve" smooth="yes"/>
      <point x="152" y="586"/>
      <point x="88" y="633"/>
      <point x="52" y="704"/>
      <point x="47" y="742" type="qcurve"/>
      <point x="113" y="776" type="line"/>
      <point x="129" y="743" type="line"/>
      <point x="143" y="707"/>
      <point x="177" y="672"/>
      <point x="207" y="672" type="qcurve" smooth="yes"/>
      <point x="239" y="672"/>
      <point x="285" y="716"/>
      <point x="319" y="761" type="qcurve" smooth="yes"/>
      <point x="330" y="776" type="line"/>
      <point x="400" y="740" type="line"/>
      <point x="325" y="586"/>
    </contour>
  </outline>
</glyph>
<glyph name="ij" format="2">
  <advance width="540"/>
  <unicode hex="0133"/>
  <outline>
    <contour>
      <point x="203" y="603" type="qcurve" smooth="yes"/>
      <point x="143" y="603"/>
      <point x="143" y="648" type="qcurve" smooth="yes"/>
      <point x="143" y="666"/>
      <point x="155" y="711"/>
      <point x="192" y="745"/>
      <point x="228" y="745" type="qcurve" smooth="yes"/>
      <point x="260" y="745"/>
      <point x="289" y="719"/>
      <point x="289" y="700" type="qcurve" smooth="yes"/>
      <point x="289" y="663"/>
      <point x="251" y="603"/>
    </contour>
    <contour>
      <point x="479" y="603" type="qcurve" smooth="yes"/>
      <point x="418" y="603"/>
      <point x="418" y="648" type="qcurve" smooth="yes"/>
      <point x="418" y="665"/>
      <point x="430" y="711"/>
      <point x="466" y="745"/>
      <point x="503" y="745" type="qcurve" smooth="yes"/>
      <point x="535" y="745"/>
      <point x="564" y="719"/>
      <point x="564" y="700" type="qcurve" smooth="yes"/>
      <point x="564" y="663"/>
      <point x="527" y="603"/>
    </contour>
    <contour>
      <point x="203" y="0" type="line"/>
      <point x="121" y="0" type="line" smooth="yes"/>
      <point x="79" y="0"/>
      <point x="39" y="42"/>
      <point x="39" y="73" type="qcurve" smooth="yes"/>
      <point x="39" y="85"/>
      <point x="127" y="522" type="qcurve"/>
      <point x="243" y="522" type="line"/>
      <point x="157" y="95" type="line"/>
      <point x="222" y="95" type="line"/>
    </contour>
    <contour>
      <point x="254" y="-200" type="qcurve" smooth="yes"/>
      <point x="180" y="-200" type="line"/>
      <point x="198" y="-105" type="line"/>
      <point x="277" y="-105" type="line"/>
      <point x="402" y="522" type="line"/>
      <point x="518" y="522" type="line"/>
      <point x="398" y="-76" type="line" smooth="yes"/>
      <point x="385" y="-141"/>
      <point x="317" y="-200"/>
    </contour>
  </outline>
</glyph>
<glyph name="jcircumflex" format="2">
  <advance width="267"/>
  <unicode hex="0135"/>
  <outline>
    <contour>
      <point x="-19" y="-200" type="qcurve" smooth="yes"/>
      <point x="-93" y="-200" type="line"/>
      <point x="-74" y="-105" type="line"/>
      <point x="4" y="-105" type="line"/>
      <point x="130" y="522" type="line"/>
      <point x="246" y="522" type="line"/>
      <point x="125" y="-75" type="line" smooth="yes"/>
      <point x="112" y="-140"/>
      <point x="44" y="-200"/>
    </contour>
    <contour>
      <point x="320" y="583" type="line"/>
      <point x="223" y="699" type="line"/>
      <point x="87" y="584" type="line"/>
      <point x="29" y="631" type="line"/>
      <point x="178" y="783" type="line"/>
      <point x="289" y="783" type="line"/>
      <point x="383" y="631" type="line"/>
    </contour>
  </outline>
</glyph>
<glyph name="u0136" format="2">
  <advance width="641"/>
  <unicode hex="0136"/>
  <outline>
    <contour>
      <point x="236" y="-264" type="qcurve"/>
      <point x="163" y="-264" type="line"/>
      <point x="189" y="-241"/>
      <point x="220" y="-200"/>
      <point x="234" y="-173" type="qcurve"/>
      <point x="204" y="-167"/>
      <point x="201" y="-141" type="qcurve" smooth="yes"/>
      <point x="200" y="-130" type="line"/>
      <point x="201" y="-119" type="line"/>
      <point x="201" y="-86"/>
      <point x="246" y="-51"/>
      <point x="271" y="-51" type="qcurve" smooth="yes"/>
      <point x="325" y="-51"/>
      <point x="325" y="-97" type="qcurve"/>
      <point x="324" y="-99"/>
      <point x="324" y="-107"/>
      <point x="321" y="-127" type="qcurve"/>
      <point x="298" y="-212"/>
    </contour>
    <contour>
      <point x="578" y="0" type="line"/>
      <point x="445" y="0" type="line"/>
      <point x="308" y="316" type="line"/>
      <point x="189" y="198" type="line"/>
      <point x="149" y="0" type="line"/>
      <point x="29" y="0" type="line"/>
      <point x="169" y="698" type="line"/>
      <point x="290" y="698" type="line"/>
      <point x="221" y="355" type="line"/>
      <point x="227" y="355" type="line"/>
      <point x="340" y="480" type="line"/>
      <point x="552" y="698" type="line"/>
      <point x="700" y="698" type="line"/>
      <point x="402" y="397" type="line"/>
    </contour>
  </outline>
</glyph>
<glyph name="kcedilla" format="2">
  <advance width="538"/>
  <unicode hex="0137"/>
  <outline>
    <contour>
      <point x="472" y="0" type="line"/>
      <point x="409" y="0" type="line" smooth="yes"/>
      <point x="337" y="0"/>
      <point x="315" y="70" type="qcurve"/>
      <point x="253" y="234" type="line"/>
      <point x="169" y="155" type="line"/>
      <point x="139" y="0" type="line"/>
      <point x="23" y="0" type="line"/>
      <point x="171" y="740" type="line"/>
      <point x="287" y="740" type="line"/>
      <point x="198" y="294" type="line"/>
      <point x="204" y="294" type="line"/>
      <point x="283" y="383" type="line"/>
      <point x="427" y="522" type="line"/>
      <point x="564" y="522" type="line"/>
      <point x="344" y="311" type="line"/>
      <point x="429" y="95" type="line"/>
      <point x="491" y="95" type="line"/>
    </contour>
    <contour>
      <point x="201" y="-264" type="qcurve"/>
      <point x="128" y="-264" type="line"/>
      <point x="154" y="-241"/>
      <point x="185" y="-200"/>
      <point x="199" y="-173" type="qcurve"/>
      <point x="169" y="-167"/>
      <point x="166" y="-141" type="qcurve" smooth="yes"/>
      <point x="165" y="-130" type="line"/>
      <point x="166" y="-119" type="line"/>
      <point x="166" y="-86"/>
      <point x="211" y="-51"/>
      <point x="236" y="-51" type="qcurve" smooth="yes"/>
      <point x="290" y="-51"/>
      <point x="290" y="-97" type="qcurve"/>
      <point x="289" y="-99"/>
      <point x="289" y="-107"/>
      <point x="286" y="-127" type="qcurve"/>
      <point x="263" y="-212"/>
    </contour>
  </outline>
</glyph>
<glyph name="nacute" format="2">
  <advance width="578"/>
  <unicode hex="0144"/>
  <outline>
    <contour>
      <point x="371" y="581" type="line"/>
      <point x="301" y="619" type="line"/>
      <point x="414" y="802" type="line"/>
      <point x="509" y="751" type="line"/>
    </contour>
    <contour>
      <point x="509" y="0" type="line"/>
      <point x="426" y="0" type="line"/>
      <point x="350" y="2"/>
      <point x="350" y="69" type="qcurve" smooth="yes"/>
      <point x="350" y="101"/>
      <point x="363" y="151" type="qcurve"/>
      <point x="374" y="203" type="line"/>
      <point x="403" y="326"/>
      <point x="403" y="369" type="qcurve" smooth="yes"/>
      <point x="403" y="435"/>
      <point x="340" y="435" type="qcurve" smooth="yes"/>
      <point x="304" y="435"/>
      <point x="242" y="387"/>
      <point x="201" y="315"/>
      <point x="194" y="277" type="qcurve" smooth="yes"/>
      <point x="139" y="0" type="line"/>
      <point x="23" y="0" type="line"/>
      <point x="127" y="522" type="line"/>
      <point x="243" y="522" type="line"/>
      <point x="220" y="407" type="line"/>
      <point x="226" y="407" type="line"/>
      <point x="254" y="468"/>
      <point x="335" y="534"/>
      <point x="394" y="534" type="qcurve" smooth="yes"/>
      <point x="461" y="534"/>
      <point x="522" y="457"/>
      <point x="522" y="395" type="qcurve" smooth="yes"/>
      <point x="522" y="355"/>
      <point x="512" y="313" type="qcurve"/>
      <point x="468" y="95" type="line"/>
      <point x="528" y="95" type="line"/>
    </contour>
  </outline>
</glyph>
<glyph name="Ncedilla" format="2">
  <advance width="694"/>
  <unicode hex="0145"/>
  <outline>
    <contour>
      <point x="560" y="0" type="line"/>
      <point x="428" y="0" type="line"/>
      <point x="299" y="369" type="line"/>
      <point x="253" y="518" type="line"/>
      <point x="247" y="518" type="line"/>
      <point x="143" y="0" type="line"/>
      <point x="29" y="0" type="line"/>
      <point x="169" y="698" type="line"/>
      <point x="301" y="698" type="line"/>
      <point x="429" y="329" type="line"/>
      <point x="476" y="180" type="line"/>
      <point x="482" y="180" type="line"/>
      <point x="586" y="698" type="line"/>
      <point x="700" y="698" type="line"/>
    </contour>
    <contour>
      <point x="248" y="-264" type="qcurve"/>
      <point x="175" y="-264" type="line"/>
      <point x="201" y="-241"/>
      <point x="232" y="-200"/>
      <point x="246" y="-173" type="qcurve"/>
      <point x="216" y="-167"/>
      <point x="213" y="-141" type="qcurve" smooth="yes"/>
      <point x="212" y="-130" type="line"/>
      <point x="213" y="-119" type="line"/>
      <point x="213" y="-86"/>
      <point x="258" y="-51"/>
      <point x="283" y="-51" type="qcurve" smooth="yes"/>
      <point x="337" y="-51"/>
      <point x="337" y="-97" type="qcurve"/>
      <point x="336" y="-99"/>
      <point x="336" y="-107"/>
      <point x="333" y="-127" type="qcurve"/>
      <point x="310" y="-212"/>
    </contour>
  </outline>
</glyph>
<glyph name="Racute" format="2">
  <advance width="644"/>
  <unicode hex="0154"/>
  <outline>
    <contour>
      <point x="388" y="378" type="line" smooth="yes"/>
      <point x="427" y="378"/>
      <point x="479" y="423"/>
      <point x="504" y="492"/>
      <point x="504" y="527" type="qcurve" smooth="yes"/>
      <point x="504" y="591"/>
      <point x="428" y="591" type="qcurve" smooth="yes"/>
      <point x="268" y="591" type="line"/>
      <point x="225" y="378" type="line"/>
    </contour>
    <contour>
      <point x="543" y="0" type="line"/>
      <point x="414" y="0" type="line"/>
      <point x="335" y="275" type="line"/>
      <point x="204" y="275" type="line"/>
      <point x="149" y="0" type="line"/>
      <point x="29" y="0" type="line"/>
      <point x="169" y="698" type="line"/>
      <point x="432" y="698" type="line" smooth="yes"/>
      <point x="534" y="698"/>
      <point x="628" y="599"/>
      <point x="628" y="523" type="qcurve" smooth="yes"/>
      <point x="628" y="443"/>
      <point x="536" y="315"/>
      <point x="453" y="289" type="qcurve"/>
    </contour>
    <contour>
      <point x="415" y="746" type="line"/>
      <point x="344" y="784" type="line"/>
      <point x="457" y="966" type="line"/>
      <point x="553" y="916" type="line"/>
    </contour>
  </outline>
</glyph>
<glyph name="u0157" format="2">
  <advance width="383"/>
  <unicode hex="0157"/>
  <outline>
    <contour>
      <point x="33" y="-264" type="qcurve"/>
      <point x="-40" y="-264" type="line"/>
      <point x="-14" y="-243"/>
      <point x="18" y="-200"/>
      <point x="31" y="-173" type="qcurve"/>
      <point x="-3" y="-167"/>
      <point x="-3" y="-133" type="qcurve" smooth="yes"/>
      <point x="-3" y="-121"/>
      <point x="2" y="-103" type="qcurve" smooth="yes"/>
      <point x="15" y="-51"/>
      <point x="69" y="-51" type="qcurve" smooth="yes"/>
      <point x="100" y="-51"/>
      <point x="122" y="-76"/>
      <point x="122" y="-102" type="qcurve" smooth="yes"/>
      <point x="122" y="-111"/>
      <point x="119" y="-122"/>
      <point x="118" y="-127" type="qcurve"/>
      <point x="95" y="-212"/>
    </contour>
    <contour>
      <point x="139" y="0" type="line"/>
      <point x="23" y="0" type="line"/>
      <point x="127" y="522" type="line"/>
      <point x="243" y="522" type="line"/>
      <point x="220" y="404" type="line"/>
      <point x="226" y="404" type="line"/>
      <point x="245" y="452"/>
      <point x="329" y="522"/>
      <point x="381" y="522" type="qcurve" smooth="yes"/>
      <point x="409" y="522" type="line"/>
      <point x="385" y="408" type="line"/>
      <point x="350" y="408" type="line" smooth="yes"/>
      <point x="281" y="408"/>
      <point x="207" y="349"/>
      <point x="196" y="288" type="qcurve" smooth="yes"/>
    </contour>
  </outline>
</glyph>
<glyph name="Tcedilla" format="2">
  <advance width="564"/>
  <unicode hex="0162"/>
  <outline>
    <contour>
      <point x="289" y="0" type="line"/>
      <point x="169" y="0" type="line"/>
      <point x="287" y="591" type="line"/>
      <point x="92" y="591" type="line"/>
      <point x="114" y="698" type="line"/>
      <point x="624" y="698" type="line"/>
      <point x="603" y="591" type="line"/>
      <point x="408" y="591" type="line"/>
    </contour>
    <contour>
      <point x="183" y="-264" type="qcurve"/>
      <point x="110" y="-264" type="line"/>
      <point x="156" y="-224"/>
      <point x="180" y="-173" type="qcurve"/>
      <point x="146" y="-167"/>
      <point x="146" y="-133" type="qcurve"/>
      <point x="147" y="-123" type="line" smooth="yes"/>
      <point x="155" y="-51"/>
      <point x="218" y="-51" type="qcurve" smooth="yes"/>
      <point x="270" y="-51"/>
      <point x="271" y="-92" type="qcurve"/>
      <point x="272" y="-97" type="line"/>
      <point x="270" y="-114" type="line"/>
      <point x="251" y="-206"/>
    </contour>
  </outline>
</glyph>
<glyph name="utilde" format="2">
  <advance width="574"/>
  <unicode hex="0169"/>
  <outline>
    <contour>
      <point x="425" y="605" type="qcurve" smooth="yes"/>
      <point x="402" y="605"/>
      <point x="369" y="617"/>
      <point x="352" y="627" type="qcurve"/>
      <point x="341" y="632" type="line"/>
      <point x="305" y="651"/>
      <point x="281" y="651" type="qcurve" smooth="yes"/>
      <point x="264" y="651"/>
      <point x="240" y="638"/>
      <point x="222" y="625" type="qcurve"/>
      <point x="184" y="682" type="line"/>
      <point x="230" y="741"/>
      <point x="293" y="741" type="qcurve" smooth="yes"/>
      <point x="329" y="741"/>
      <point x="385" y="711" type="qcurve" smooth="yes"/>
      <point x="414" y="696"/>
      <point x="438" y="696" type="qcurve" smooth="yes"/>
      <point x="455" y="696"/>
      <point x="479" y="707"/>
      <point x="497" y="721" type="qcurve"/>
      <point x="534" y="664" type="line"/>
      <point x="487" y="605"/>
    </contour>
    <contour>
      <point x="176" y="-12" type="qcurve" smooth="yes"/>
      <point x="110" y="-12"/>
      <point x="49" y="64"/>
      <point x="49" y="127" type="qcurve" smooth="yes"/>
      <point x="49" y="162"/>
      <point x="57" y="199" type="qcurve" smooth="yes"/>
      <point x="121" y="522" type="line"/>
      <point x="237" y="522" type="line"/>
      <point x="175" y="207" type="line"/>
      <point x="168" y="179"/>
      <point x="168" y="154" type="qcurve" smooth="yes"/>
      <point x="168" y="87"/>
      <point x="228" y="87" type="qcurve" smooth="yes"/>
      <point x="279" y="87"/>
      <point x="358" y="186"/>
      <point x="371" y="246" type="qcurve" smooth="yes"/>
      <point x="427" y="522" type="line"/>
      <point x="543" y="522" type="line"/>
      <point x="457" y="95" type="line"/>
      <point x="521" y="95" type="line"/>
      <point x="503" y="0" type="line"/>
      <point x="418" y="0" type="line"/>
      <point x="340" y="4"/>
      <point x="340" y="72" type="qcurve" smooth="yes"/>
      <point x="340" y="85"/>
      <point x="344" y="106" type="qcurve"/>
      <point x="345" y="115" type="line"/>
      <point x="340" y="115" type="line"/>
      <point x="309" y="50"/>
      <point x="231" y="-12"/>
    </contour>
  </outline>
</glyph>
<glyph name="uring" format="2">
  <advance width="574"/>
  <unicode hex="016F"/>
  <outline>
    <contour>
      <point x="342" y="565" type="qcurve" smooth="yes"/>
      <point x="288" y="565"/>
      <point x="224" y="629"/>
      <point x="224" y="678" type="qcurve" smooth="yes"/>
      <point x="224" y="746"/>
      <point x="313" y="829"/>
      <point x="376" y="829" type="qcurve" smooth="yes"/>
      <point x="425" y="829"/>
      <point x="493" y="769"/>
      <point x="493" y="716" type="qcurve" smooth="yes"/>
      <point x="493" y="645"/>
      <point x="402" y="565"/>
    </contour>
    <contour>
      <point x="348" y="629" type="qcurve" smooth="yes"/>
      <point x="383" y="629"/>
      <point x="414" y="686"/>
      <point x="414" y="726" type="qcurve" smooth="yes"/>
      <point x="414" y="765"/>
      <point x="370" y="765" type="qcurve" smooth="yes"/>
      <point x="343" y="765"/>
      <point x="314" y="733"/>
      <point x="303" y="689"/>
      <point x="303" y="670" type="qcurve" smooth="yes"/>
      <point x="303" y="629"/>
    </contour>
    <contour>
      <point x="176" y="-12" type="qcurve" smooth="yes"/>
      <point x="110" y="-12"/>
      <point x="49" y="64"/>
      <point x="49" y="127" type="qcurve" smooth="yes"/>
      <point x="49" y="162"/>
      <point x="57" y="199" type="qcurve" smooth="yes"/>
      <point x="121" y="522" type="line"/>
      <point x="237" y="522" type="line"/>
      <point x="175" y="207" type="line"/>
      <point x="168" y="179"/>
      <point x="168" y="154" type="qcurve" smooth="yes"/>
      <point x="168" y="87"/>
      <point x="228" y="87" type="qcurve" smooth="yes"/>
      <point x="279" y="87"/>
      <point x="358" y="186"/>
      <point x="371" y="246" type="qcurve" smooth="yes"/>
      <point x="427" y="522" type="line"/>
      <point x="543" y="522" type="line"/>
      <point x="457" y="95" type="line"/>
      <point x="521" y="95" type="line"/>
      <point x="503" y="0" type="line"/>
      <point x="418" y="0" type="line"/>
      <point x="340" y="4"/>
      <point x="340" y="72" type="qcurve" smooth="yes"/>
      <point x="340" y="85"/>
      <point x="344" y="106" type="qcurve"/>
      <point x="345" y="115" type="line"/>
      <point x="340" y="115" type="line"/>
      <point x="309" y="50"/>
      <point x="231" y="-12"/>
    </contour>
  </outline>
</glyph>
<glyph name="Wcircumflex" format="2">
  <advance width="911"/>
  <unicode hex="0174"/>
  <outline>
    <contour>
      <point x="674" y="0" type="line"/>
      <point x="535" y="0" type="line"/>
      <point x="528" y="190" type="line" smooth="yes"/>
      <point x="524" y="282"/>
      <point x="523" y="344" type="qcurve" smooth="yes"/>
      <point x="519" y="563" type="line"/>
      <point x="512" y="563" type="line"/>
      <point x="273" y="0" type="line"/>
      <point x="131" y="0" type="line"/>
      <point x="111" y="698" type="line"/>
      <point x="230" y="698" type="line"/>
      <point x="231" y="390" type="line"/>
      <point x="229" y="302" type="line" smooth="yes"/>
      <point x="227" y="215"/>
      <point x="227" y="127" type="qcurve"/>
      <point x="235" y="127" type="line"/>
      <point x="334" y="375" type="line" smooth="yes"/>
      <point x="355" y="426"/>
      <point x="402" y="535" type="qcurve" smooth="yes"/>
      <point x="473" y="698" type="line"/>
      <point x="608" y="698" type="line"/>
      <point x="617" y="445" type="line"/>
      <point x="619" y="279" type="line"/>
      <point x="619" y="122" type="line"/>
      <point x="627" y="122" type="line"/>
      <point x="677" y="254" type="line" smooth="yes"/>
      <point x="728" y="391"/>
      <point x="768" y="491" type="qcurve" smooth="yes"/>
      <point x="851" y="698" type="line"/>
      <point x="973" y="698" type="line"/>
    </contour>
    <contour>
      <point x="435" y="747" type="line"/>
      <point x="376" y="795" type="line"/>
      <point x="525" y="947" type="line"/>
      <point x="637" y="947" type="line"/>
      <point x="730" y="795" type="line"/>
      <point x="667" y="748" type="line"/>
      <point x="571" y="863" type="line"/>
    </contour>
  </outline>
</glyph>
<glyph name="wcircumflex" format="2">
  <advance width="772"/>
  <unicode hex="0175"/>
  <outline>
    <contour>
      <point x="561" y="0" type="line"/>
      <point x="435" y="0" type="line"/>
      <point x="421" y="153" type="line" smooth="yes"/>
      <point x="416" y="200"/>
      <point x="414" y="236" type="qcurve" smooth="yes"/>
      <point x="405" y="373" type="line"/>
      <point x="399" y="373" type="line"/>
      <point x="300" y="155" type="line"/>
      <point x="228" y="0" type="line"/>
      <point x="98" y="0" type="line"/>
      <point x="63" y="522" type="line"/>
      <point x="177" y="522" type="line"/>
      <point x="189" y="125" type="line"/>
      <point x="194" y="125" type="line"/>
      <point x="374" y="522" type="line"/>
      <point x="483" y="522" type="line"/>
      <point x="512" y="123" type="line"/>
      <point x="517" y="123" type="line"/>
      <point x="685" y="522" type="line"/>
      <point x="799" y="522" type="line"/>
    </contour>
    <contour>
      <point x="558" y="583" type="line"/>
      <point x="462" y="699" type="line"/>
      <point x="326" y="584" type="line"/>
      <point x="268" y="631" type="line"/>
      <point x="416" y="783" type="line"/>
      <point x="528" y="783" type="line"/>
      <point x="621" y="631" type="line"/>
    </contour>
  </outline>
</glyph>
<glyph name="Ycircumflex" format="2">
  <advance width="606"/>
  <unicode hex="0176"/>
  <outline>
    <contour>
      <point x="270" y="747" type="line"/>
      <point x="212" y="795" type="line"/>
      <point x="361" y="947" type="line"/>
      <point x="472" y="947" type="line"/>
      <point x="566" y="795" type="line"/>
      <point x="503" y="748" type="line"/>
      <point x="406" y="863" type="line"/>
    </contour>
    <contour>
      <point x="309" y="0" type="line"/>
      <point x="189" y="0" type="line"/>
      <point x="244" y="272" type="line"/>
      <point x="96" y="698" type="line"/>
      <point x="219" y="698" type="line"/>
      <point x="322" y="386" type="line"/>
      <point x="327" y="386" type="line"/>
      <point x="547" y="698" type="line"/>
      <point x="682" y="698" type="line"/>
      <point x="363" y="264" type="line"/>
    </contour>
  </outline>
</glyph>
<glyph name="Zacute" format="2">
  <advance width="568"/>
  <unicode hex="0179"/>
  <outline>
    <contour>
      <point x="481" y="0" type="line"/>
      <point x="-12" y="0" type="line"/>
      <point x="10" y="109" type="line"/>
      <point x="450" y="591" type="line"/>
      <point x="119" y="591" type="line"/>
      <point x="140" y="698" type="line"/>
      <point x="615" y="698" type="line"/>
      <point x="593" y="589" type="line"/>
      <point x="152" y="107" type="line"/>
      <point x="502" y="107" type="line"/>
    </contour>
    <contour>
      <point x="397" y="746" type="line"/>
      <point x="326" y="784" type="line"/>
      <point x="439" y="966" type="line"/>
      <point x="535" y="916" type="line"/>
    </contour>
  </outline>
</glyph>
<glyph name="zacute" format="2">
  <advance width="475"/>
  <unicode hex="017A"/>
  <outline>
    <contour>
      <point x="320" y="581" type="line"/>
      <point x="250" y="619" type="line"/>
      <point x="363" y="802" type="line"/>
      <point x="458" y="751" type="line"/>
    </contour>
    <contour>
      <point x="396" y="0" type="line"/>
      <point x="-9" y="0" type="line"/>
      <point x="10" y="95" type="line"/>
      <point x="329" y="427" type="line"/>
      <point x="78" y="427" type="line"/>
      <point x="97" y="522" type="line"/>
      <point x="487" y="522" type="line"/>
      <point x="468" y="427" type="line"/>
      <point x="148" y="95" type="line"/>
      <point x="415" y="95" type="line"/>
    </contour>
  </outline>
</glyph>
<glyph name="florin" format="2">
  <advance width="476"/>
  <unicode hex="0192"/>
  <outline>
    <contour>
      <point x="41" y="-134" type="qcurve" smooth="yes"/>
      <point x="-62" y="-134" type="line"/>
      <point x="-42" y="-39" type="line"/>
      <point x="84" y="-39" type="line"/>
      <point x="168" y="273" type="line"/>
      <point x="60" y="273" type="line"/>
      <point x="80" y="371" type="line"/>
      <point x="196" y="371" type="line"/>
      <point x="249" y="567" type="line" smooth="yes"/>
      <point x="283" y="698"/>
      <point x="420" y="698" type="qcurve" smooth="yes"/>
      <point x="529" y="698" type="line"/>
      <point x="510" y="603" type="line"/>
      <point x="377" y="603" type="line"/>
      <point x="315" y="371" type="line"/>
      <point x="460" y="371" type="line"/>
      <point x="441" y="273" type="line"/>
      <point x="288" y="273" type="line"/>
      <point x="213" y="-4" type="line" smooth="yes"/>
      <point x="176" y="-134"/>
    </contour>
  </outline>
</glyph>
<glyph name="ohorn" format="2">
  <advance width="546"/>
  <unicode hex="01A1"/>
  <outline>
    <contour>
      <point x="246" y="84" type="qcurve" smooth="yes"/>
      <point x="344" y="84"/>
      <point x="373" y="225" type="qcurve" smooth="yes"/>
      <point x="389" y="301" type="line"/>
      <point x="393" y="313"/>
      <point x="393" y="340" type="qcurve"/>
      <point x="392" y="384"/>
      <point x="347" y="437"/>
      <point x="300" y="437" type="qcurve" smooth="yes"/>
      <point x="203" y="437"/>
      <point x="173" y="297" type="qcurve" smooth="yes"/>
      <point x="157" y="220" type="line"/>
      <point x="153" y="204"/>
      <point x="153" y="182" type="qcurve" smooth="yes"/>
      <point x="153" y="138"/>
      <point x="196" y="84"/>
    </contour>
    <contour>
      <point x="239" y="-12" type="qcurve" smooth="yes"/>
      <point x="152" y="-12"/>
      <point x="38" y="93"/>
      <point x="38" y="204" type="qcurve" smooth="yes"/>
      <point x="38" y="289"/>
      <point x="104" y="440"/>
      <point x="224" y="534"/>
      <point x="307" y="534" type="qcurve" smooth="yes"/>
      <point x="348" y="534"/>
      <point x="379" y="525" type="qcurve"/>
      <point x="392" y="522" type="line"/>
      <point x="467" y="522" type="line"/>
      <point x="489" y="630" type="line"/>
      <point x="591" y="630" type="line"/>
      <point x="583" y="585" type="line"/>
      <point x="577" y="542"/>
      <point x="559" y="481"/>
      <point x="517" y="449"/>
      <point x="473" y="449" type="qcurve"/>
      <point x="508" y="396"/>
      <point x="508" y="317" type="qcurve" smooth="yes"/>
      <point x="508" y="228"/>
      <point x="440" y="78"/>
      <point x="318" y="-12"/>
    </contour>
  </outline>
</glyph>
<glyph name="Aringacute" format="2">
  <advance width="645"/>
  <unicode hex="01FA"/>
  <outline>
    <contour>
      <point x="416" y="729" type="qcurve" smooth="yes"/>
      <point x="367" y="729"/>
      <point x="299" y="780"/>
      <point x="299" y="830" type="qcurve" smooth="yes"/>
      <point x="299" y="894"/>
      <point x="344" y="930" type="qcurve" smooth="yes"/>
      <point x="381" y="960"/>
      <point x="434" y="964" type="qcurve"/>
      <point x="542" y="1066" type="line"/>
      <point x="600" y="1003" type="line"/>
      <point x="523" y="948" type="line"/>
      <point x="530" y="944"/>
      <point x="536" y="940" type="qcurve"/>
      <point x="570" y="914"/>
      <point x="570" y="864" type="qcurve" smooth="yes"/>
      <point x="570" y="799"/>
      <point x="478" y="729"/>
    </contour>
    <contour>
      <point x="425" y="790" type="qcurve" smooth="yes"/>
      <point x="489" y="790"/>
      <point x="490" y="866" type="qcurve" smooth="yes"/>
      <point x="490" y="904"/>
      <point x="444" y="904" type="qcurve" smooth="yes"/>
      <point x="385" y="904"/>
      <point x="380" y="828" type="qcurve"/>
      <point x="380" y="790"/>
    </contour>
    <contour>
      <point x="573" y="0" type="line"/>
      <point x="450" y="0" type="line"/>
      <point x="430" y="183" type="line"/>
      <point x="189" y="183" type="line"/>
      <point x="97" y="0" type="line"/>
      <point x="-32" y="0" type="line"/>
      <point x="333" y="698" type="line"/>
      <point x="488" y="698" type="line"/>
    </contour>
    <contour>
      <point x="421" y="286" type="line"/>
      <point x="392" y="588" type="line"/>
      <point x="385" y="588" type="line"/>
      <point x="238" y="286" type="line"/>
    </contour>
  </outline>
</glyph>
<glyph name="oslashacute" format="2">
  <advance width="546"/>
  <unicode hex="01FF"/>
  <outline>
    <contour>
      <point x="345" y="581" type="line"/>
      <point x="275" y="619" type="line"/>
      <point x="388" y="802" type="line"/>
      <point x="484" y="751" type="line"/>
    </contour>
    <contour>
      <point x="32" y="-42" type="line"/>
      <point x="-27" y="12" type="line"/>
      <point x="58" y="100" type="line"/>
      <point x="38" y="140"/>
      <point x="38" y="204" type="qcurve" smooth="yes"/>
      <point x="38" y="284"/>
      <point x="100" y="435"/>
      <point x="221" y="534"/>
      <point x="308" y="534" type="qcurve" smooth="yes"/>
      <point x="388" y="534"/>
      <point x="441" y="488" type="qcurve"/>
      <point x="514" y="564" type="line"/>
      <point x="573" y="510" type="line"/>
      <point x="488" y="422" type="line"/>
      <point x="508" y="376"/>
      <point x="508" y="317" type="qcurve" smooth="yes"/>
      <point x="508" y="227"/>
      <point x="439" y="78"/>
      <point x="317" y="-12"/>
      <point x="238" y="-12" type="qcurve" smooth="yes"/>
      <point x="159" y="-12"/>
      <point x="105" y="33" type="qcurve"/>
    </contour>
    <contour>
      <point x="155" y="192" type="qcurve"/>
      <point x="371" y="412" type="line"/>
      <point x="345" y="441"/>
      <point x="301" y="441" type="qcurve" smooth="yes"/>
      <point x="257" y="441"/>
      <point x="188" y="374"/>
      <point x="173" y="305" type="qcurve"/>
      <point x="163" y="254" type="line"/>
      <point x="158" y="233"/>
      <point x="157" y="206"/>
    </contour>
    <contour>
      <point x="245" y="81" type="qcurve" smooth="yes"/>
      <point x="299" y="81"/>
      <point x="335" y="130" type="qcurve" smooth="yes"/>
      <point x="374" y="185"/>
      <point x="389" y="298" type="qcurve" smooth="yes"/>
      <point x="392" y="323" type="line"/>
      <point x="391" y="326" type="line"/>
      <point x="392" y="329" type="line"/>
      <point x="175" y="110" type="line"/>
      <point x="200" y="81"/>
    </contour>
  </outline>
</glyph>
<glyph name="u0237" format="2">
  <advance width="267"/>
  <unicode hex="0237"/>
  <outline>
    <contour>
      <point x="-19" y="-200" type="qcurve" smooth="yes"/>
      <point x="-93" y="-200" type="line"/>
      <point x="-74" y="-105" type="line"/>
      <point x="4" y="-105" type="line"/>
      <point x="130" y="522" type="line"/>
      <point x="246" y="522" type="line"/>
      <point x="125" y="-75" type="line" smooth="yes"/>
      <point x="112" y="-140"/>
      <point x="44" y="-200"/>
    </contour>
  </outline>
</glyph>
<glyph name="afii57929" format="2">
  <advance width="589"/>
  <unicode hex="02BC"/>
  <outline>
    <contour>
      <point x="335" y="536" type="line"/>
      <point x="254" y="536" type="line"/>
      <point x="299" y="740" type="line"/>
      <point x="431" y="740" type="line"/>
    </contour>
  </outline>
</glyph>
<glyph name="hungarumlaut" format="2">
  <advance width="588"/>
  <unicode hex="02DD"/>
  <outline>
    <contour>
      <point x="407" y="582" type="line"/>
      <point x="343" y="614" type="line"/>
      <point x="453" y="799" type="line"/>
      <point x="542" y="751" type="line"/>
    </contour>
    <contour>
      <point x="227" y="582" type="line"/>
      <point x="162" y="614" type="line"/>
      <point x="272" y="799" type="line"/>
      <point x="361" y="751" type="line"/>
    </contour>
  </outline>
</glyph>
<glyph name="gravecmb" format="2">
  <unicode hex="0300"/>
  <outline>
    <contour>
      <point x="-8" y="581" type="line"/>
      <point x="-105" y="752" type="line"/>
      <point x="-1" y="801" type="line"/>
      <point x="64" y="614" type="line"/>
    </contour>
  </outline>
</glyph>
<glyph name="gravecomb" format="2">
  <advance width="0"/>
  <unicode hex="0300"/>
  <outline>
    <contour>
      <point x="-8" y="581" type="line"/>
      <point x="-105" y="752" type="line"/>
      <point x="-1" y="801" type="line"/>
      <point x="64" y="614" type="line"/>
    </contour>
  </outline>
</glyph>
<glyph name="acutecomb" format="2">
  <unicode hex="0301"/>
  <outline>
    <contour>
      <point x="28" y="581" type="line"/>
      <point x="-42" y="619" type="line"/>
      <point x="71" y="802" type="line"/>
      <point x="167" y="751" type="line"/>
    </contour>
  </outline>
</glyph>
<glyph name="u0302" format="2">
  <advance width="0"/>
  <unicode hex="0302"/>
  <outline>
    <contour>
      <point x="128" y="583" type="line"/>
      <point x="32" y="699" type="line"/>
      <point x="-104" y="584" type="line"/>
      <point x="-162" y="631" type="line"/>
      <point x="-13" y="783" type="line"/>
      <point x="98" y="783" type="line"/>
      <point x="191" y="631" type="line"/>
    </contour>
  </outline>
</glyph>
<glyph name="tildecomb" format="2">
  <unicode hex="0303"/>
  <outline>
    <contour>
      <point x="94" y="605" type="qcurve" smooth="yes"/>
      <point x="72" y="605"/>
      <point x="41" y="616"/>
      <point x="26" y="624" type="qcurve"/>
      <point x="9" y="632" type="line"/>
      <point x="-26" y="651"/>
      <point x="-51" y="651" type="qcurve" smooth="yes"/>
      <point x="-66" y="651"/>
      <point x="-91" y="638"/>
      <point x="-110" y="625" type="qcurve"/>
      <point x="-147" y="682" type="line"/>
      <point x="-125" y="709"/>
      <point x="-73" y="741"/>
      <point x="-38" y="741" type="qcurve" smooth="yes"/>
      <point x="-14" y="741"/>
      <point x="23" y="725"/>
      <point x="38" y="718" type="qcurve"/>
      <point x="58" y="708"/>
      <point x="90" y="696"/>
      <point x="106" y="696" type="qcurve" smooth="yes"/>
      <point x="123" y="696"/>
      <point x="147" y="707"/>
      <point x="165" y="721" type="qcurve"/>
      <point x="203" y="664" type="line"/>
      <point x="180" y="637"/>
      <point x="128" y="605"/>
    </contour>
  </outline>
</glyph>
<glyph name="u0307" format="2">
  <unicode hex="0307"/>
  <outline>
    <contour>
      <point x="17" y="600" type="qcurve" smooth="yes"/>
      <point x="-46" y="600"/>
      <point x="-46" y="650" type="qcurve" smooth="yes"/>
      <point x="-46" y="692"/>
      <point x="-9" y="744"/>
      <point x="39" y="744" type="qcurve" smooth="yes"/>
      <point x="102" y="744"/>
      <point x="102" y="695" type="qcurve" smooth="yes"/>
      <point x="102" y="685"/>
      <point x="99" y="676" type="qcurve"/>
      <point x="95" y="600"/>
    </contour>
  </outline>
</glyph>
<glyph name="u030A" format="2">
  <unicode hex="030A"/>
  <outline>
    <contour>
      <point x="16" y="629" type="qcurve" smooth="yes"/>
      <point x="51" y="629"/>
      <point x="83" y="686"/>
      <point x="83" y="726" type="qcurve" smooth="yes"/>
      <point x="83" y="765"/>
      <point x="38" y="765" type="qcurve" smooth="yes"/>
      <point x="12" y="765"/>
      <point x="-17" y="733"/>
      <point x="-28" y="688"/>
      <point x="-28" y="670" type="qcurve" smooth="yes"/>
      <point x="-28" y="629"/>
    </contour>
    <contour>
      <point x="10" y="565" type="qcurve" smooth="yes"/>
      <point x="-39" y="565"/>
      <point x="-107" y="625"/>
      <point x="-107" y="678" type="qcurve" smooth="yes"/>
      <point x="-107" y="745"/>
      <point x="-18" y="829"/>
      <point x="44" y="829" type="qcurve" smooth="yes"/>
      <point x="93" y="829"/>
      <point x="162" y="769"/>
      <point x="162" y="716" type="qcurve" smooth="yes"/>
      <point x="162" y="647"/>
      <point x="72" y="565"/>
    </contour>
  </outline>
</glyph>
<glyph name="commaturnedabovecmb" format="2">
  <unicode hex="0312"/>
  <outline>
    <contour>
      <point x="12" y="583" type="qcurve"/>
      <point x="-43" y="584"/>
      <point x="-43" y="628" type="qcurve" smooth="yes"/>
      <point x="-43" y="674"/>
      <point x="12" y="768"/>
      <point x="46" y="796" type="qcurve"/>
      <point x="119" y="796" type="line"/>
      <point x="69" y="755"/>
      <point x="48" y="705" type="qcurve"/>
      <point x="67" y="702"/>
      <point x="82" y="679"/>
      <point x="82" y="660" type="qcurve"/>
      <point x="75" y="621"/>
      <point x="45" y="583"/>
    </contour>
  </outline>
</glyph>
<glyph name="u0315" format="2">
  <unicode hex="0315"/>
  <outline>
    <contour>
      <point x="43" y="536" type="line"/>
      <point x="-37" y="536" type="line"/>
      <point x="8" y="740" type="line"/>
      <point x="140" y="740" type="line"/>
    </contour>
  </outline>
</glyph>
<glyph name="u031B" format="2">
  <advance width="0"/>
  <unicode hex="031B"/>
  <outline>
    <contour>
      <point x="16" y="447" type="qcurve" smooth="yes"/>
      <point x="-117" y="447" type="line"/>
      <point x="-102" y="522" type="line"/>
      <point x="5" y="522" type="line"/>
      <point x="27" y="630" type="line"/>
      <point x="130" y="630" type="line"/>
      <point x="110" y="530" type="line" smooth="yes"/>
      <point x="102" y="486"/>
      <point x="60" y="447"/>
    </contour>
  </outline>
</glyph>
<glyph name="dotbelowcmb" format="2">
  <unicode hex="0323"/>
  <outline>
    <contour>
      <point x="-34" y="-190" type="qcurve" smooth="yes"/>
      <point x="-93" y="-190"/>
      <point x="-93" y="-144" type="qcurve" smooth="yes"/>
      <point x="-93" y="-139"/>
      <point x="-88" y="-129"/>
      <point x="-88" y="-112" type="qcurve"/>
      <point x="-80" y="-85"/>
      <point x="-46" y="-58"/>
      <point x="-15" y="-58" type="qcurve" smooth="yes"/>
      <point x="44" y="-58"/>
      <point x="44" y="-104" type="qcurve" smooth="yes"/>
      <point x="44" y="-111"/>
      <point x="39" y="-127"/>
      <point x="39" y="-136" type="qcurve"/>
      <point x="31" y="-163"/>
      <point x="-3" y="-190"/>
    </contour>
  </outline>
</glyph>
<glyph name="u0328" format="2">
  <advance width="0"/>
  <unicode hex="0328"/>
  <outline>
    <contour>
      <point x="-97" y="-210" type="qcurve" smooth="yes"/>
      <point x="-139" y="-210"/>
      <point x="-207" y="-171"/>
      <point x="-207" y="-130" type="qcurve" smooth="yes"/>
      <point x="-207" y="-48"/>
      <point x="-74" y="-5" type="qcurve"/>
      <point x="-77" y="12" type="line"/>
      <point x="-15" y="18" type="line"/>
      <point x="1" y="0" type="line"/>
      <point x="-69" y="-44"/>
      <point x="-117" y="-93"/>
      <point x="-117" y="-115" type="qcurve" smooth="yes"/>
      <point x="-117" y="-145"/>
      <point x="-83" y="-145" type="qcurve" smooth="yes"/>
      <point x="-50" y="-145"/>
      <point x="-29" y="-118" type="qcurve"/>
      <point x="17" y="-165" type="line"/>
      <point x="-15" y="-210"/>
    </contour>
  </outline>
</glyph>
<glyph name="dialytikatonos" format="2">
  <advance width="590"/>
  <unicode hex="0385"/>
  <outline>
    <contour>
      <point x="365" y="582" type="line"/>
      <point x="314" y="598" type="line"/>
      <point x="380" y="798" type="line"/>
      <point x="459" y="775" type="line"/>
    </contour>
    <contour>
      <point x="240" y="611" type="qcurve" smooth="yes"/>
      <point x="194" y="611"/>
      <point x="194" y="651" type="qcurve" smooth="yes"/>
      <point x="194" y="666"/>
      <point x="201" y="695"/>
      <point x="217" y="718"/>
      <point x="242" y="733"/>
      <point x="260" y="733" type="qcurve" smooth="yes"/>
      <point x="281" y="733"/>
      <point x="305" y="712"/>
      <point x="305" y="693" type="qcurve" smooth="yes"/>
      <point x="305" y="681"/>
      <point x="299" y="652"/>
      <point x="284" y="627"/>
      <point x="259" y="611"/>
    </contour>
    <contour>
      <point x="492" y="611" type="qcurve" smooth="yes"/>
      <point x="471" y="611"/>
      <point x="447" y="632"/>
      <point x="447" y="651" type="qcurve" smooth="yes"/>
      <point x="447" y="666"/>
      <point x="454" y="695"/>
      <point x="469" y="718"/>
      <point x="494" y="733"/>
      <point x="512" y="733" type="qcurve" smooth="yes"/>
      <point x="533" y="733"/>
      <point x="558" y="712"/>
      <point x="558" y="693" type="qcurve" smooth="yes"/>
      <point x="558" y="681"/>
      <point x="551" y="652"/>
      <point x="536" y="627"/>
      <point x="511" y="611"/>
    </contour>
  </outline>
</glyph>
<glyph name="Alphatonos" format="2">
  <advance width="645"/>
  <unicode hex="0386"/>
  <outline>
    <contour>
      <point x="389" y="594" type="line"/>
      <point x="383" y="594" type="line"/>
      <point x="230" y="284" type="line"/>
      <point x="421" y="284" type="line"/>
    </contour>
    <contour>
      <point x="451" y="0" type="line"/>
      <point x="430" y="188" type="line"/>
      <point x="183" y="188" type="line"/>
      <point x="88" y="0" type="line"/>
      <point x="-32" y="0" type="line"/>
      <point x="334" y="698" type="line"/>
      <point x="480" y="698" type="line"/>
      <point x="566" y="0" type="line"/>
    </contour>
    <contour>
      <point x="172" y="582" type="line"/>
      <point x="102" y="602" type="line"/>
      <point x="170" y="797" type="line"/>
      <point x="269" y="773" type="line"/>
    </contour>
  </outline>
</glyph>
<glyph name="anoteleia" format="2">
  <advance width="309"/>
  <unicode hex="0387"/>
  <outline>
    <contour>
      <point x="181" y="375" type="line" smooth="yes"/>
      <point x="149" y="375"/>
      <point x="117" y="402"/>
      <point x="117" y="425" type="qcurve" smooth="yes"/>
      <point x="117" y="443"/>
      <point x="124" y="480"/>
      <point x="144" y="510"/>
      <point x="178" y="530"/>
      <point x="204" y="530" type="qcurve" smooth="yes"/>
      <point x="236" y="530"/>
      <point x="267" y="501"/>
      <point x="267" y="480" type="qcurve" smooth="yes"/>
      <point x="267" y="435"/>
      <point x="227" y="377"/>
      <point x="187" y="375" type="qcurve"/>
    </contour>
  </outline>
</glyph>
<glyph name="Upsilontonos" format="2">
  <advance width="717"/>
  <unicode hex="038E"/>
  <outline>
    <contour>
      <point x="124" y="582" type="line"/>
      <point x="54" y="602" type="line"/>
      <point x="122" y="797" type="line"/>
      <point x="221" y="773" type="line"/>
    </contour>
    <contour>
      <point x="306" y="0" type="line"/>
      <point x="361" y="272" type="line"/>
      <point x="214" y="698" type="line"/>
      <point x="329" y="698" type="line"/>
      <point x="434" y="380" type="line"/>
      <point x="440" y="380" type="line"/>
      <point x="665" y="698" type="line"/>
      <point x="792" y="698" type="line"/>
      <point x="473" y="265" type="line"/>
      <point x="419" y="0" type="line"/>
    </contour>
  </outline>
</glyph>
<glyph name="iotadieresistonos" format="2">
  <advance width="295"/>
  <unicode hex="0390"/>
  <outline>
    <contour>
      <point x="232" y="0" type="line"/>
      <point x="157" y="0" type="line" smooth="yes"/>
      <point x="103" y="0"/>
      <point x="45" y="34"/>
      <point x="45" y="81" type="qcurve" smooth="yes"/>
      <point x="45" y="87"/>
      <point x="46" y="105"/>
      <point x="48" y="114" type="qcurve" smooth="yes"/>
      <point x="130" y="520" type="line"/>
      <point x="238" y="520" type="line"/>
      <point x="152" y="90" type="line"/>
      <point x="250" y="90" type="line"/>
    </contour>
    <contour>
      <point x="213" y="582" type="line"/>
      <point x="162" y="598" type="line"/>
      <point x="228" y="798" type="line"/>
      <point x="307" y="775" type="line"/>
    </contour>
    <contour>
      <point x="88" y="611" type="qcurve" smooth="yes"/>
      <point x="42" y="611"/>
      <point x="42" y="651" type="qcurve" smooth="yes"/>
      <point x="42" y="666"/>
      <point x="49" y="695"/>
      <point x="65" y="718"/>
      <point x="90" y="733"/>
      <point x="108" y="733" type="qcurve" smooth="yes"/>
      <point x="129" y="733"/>
      <point x="153" y="712"/>
      <point x="153" y="693" type="qcurve" smooth="yes"/>
      <point x="153" y="681"/>
      <point x="147" y="652"/>
      <point x="132" y="627"/>
      <point x="107" y="611"/>
    </contour>
    <contour>
      <point x="340" y="611" type="qcurve" smooth="yes"/>
      <point x="319" y="611"/>
      <point x="295" y="632"/>
      <point x="295" y="651" type="qcurve" smooth="yes"/>
      <point x="295" y="666"/>
      <point x="302" y="695"/>
      <point x="317" y="718"/>
      <point x="342" y="733"/>
      <point x="360" y="733" type="qcurve" smooth="yes"/>
      <point x="381" y="733"/>
      <point x="406" y="712"/>
      <point x="406" y="693" type="qcurve" smooth="yes"/>
      <point x="406" y="681"/>
      <point x="399" y="652"/>
      <point x="384" y="627"/>
      <point x="359" y="611"/>
    </contour>
  </outline>
</glyph>
<glyph name="Beta" format="2">
  <advance width="642"/>
  <unicode hex="0392"/>
  <outline>
    <contour>
      <point x="345" y="98" type="line" smooth="yes"/>
      <point x="388" y="98"/>
      <point x="444" y="140"/>
      <point x="454" y="186" type="qcurve" smooth="yes"/>
      <point x="459" y="212"/>
      <point x="462" y="236"/>
      <point x="463" y="244" type="qcurve"/>
      <point x="463" y="275"/>
      <point x="422" y="307"/>
      <point x="384" y="307" type="qcurve" smooth="yes"/>
      <point x="204" y="307" type="line"/>
      <point x="162" y="98" type="line"/>
    </contour>
    <contour>
      <point x="378" y="402" type="line" smooth="yes"/>
      <point x="423" y="402"/>
      <point x="479" y="438"/>
      <point x="489" y="483" type="qcurve"/>
      <point x="495" y="514" type="line"/>
      <point x="496" y="522"/>
      <point x="497" y="533"/>
      <point x="497" y="538" type="qcurve" smooth="yes"/>
      <point x="497" y="567"/>
      <point x="461" y="600"/>
      <point x="426" y="600" type="qcurve" smooth="yes"/>
      <point x="262" y="600" type="line"/>
      <point x="223" y="402" type="line"/>
    </contour>
    <contour>
      <point x="169" y="698" type="line"/>
      <point x="426" y="698" type="line" smooth="yes"/>
      <point x="469" y="698"/>
      <point x="539" y="682"/>
      <point x="589" y="647"/>
      <point x="617" y="591"/>
      <point x="617" y="552" type="qcurve" smooth="yes"/>
      <point x="617" y="519"/>
      <point x="599" y="458"/>
      <point x="564" y="409"/>
      <point x="512" y="373"/>
      <point x="478" y="364" type="qcurve"/>
      <point x="478" y="362"/>
      <point x="477" y="361"/>
      <point x="477" y="359" type="qcurve"/>
      <point x="580" y="331"/>
      <point x="580" y="230" type="qcurve" smooth="yes"/>
      <point x="580" y="179"/>
      <point x="546" y="95"/>
      <point x="485" y="34"/>
      <point x="398" y="0"/>
      <point x="345" y="0" type="qcurve" smooth="yes"/>
      <point x="29" y="0" type="line"/>
    </contour>
  </outline>
</glyph>
<glyph name="Deltagreek" format="2">
  <advance width="663"/>
  <unicode hex="0394"/>
  <outline>
    <contour>
      <point x="17" y="98" type="line"/>
      <point x="344" y="698" type="line"/>
      <point x="490" y="698" type="line"/>
      <point x="577" y="98" type="line"/>
      <point x="558" y="0" type="line"/>
      <point x="-2" y="0" type="line"/>
    </contour>
    <contour>
      <point x="400" y="594" type="line"/>
      <point x="393" y="594" type="line"/>
      <point x="136" y="100" type="line"/>
      <point x="464" y="100" type="line"/>
    </contour>
  </outline>
</glyph>
<glyph name="Zeta" format="2">
  <advance width="568"/>
  <unicode hex="0396"/>
  <outline>
    <contour>
      <point x="480" y="0" type="line"/>
      <point x="-12" y="0" type="line"/>
      <point x="9" y="103" type="line"/>
      <point x="460" y="598" type="line"/>
      <point x="120" y="598" type="line"/>
      <point x="140" y="698" type="line"/>
      <point x="614" y="698" type="line"/>
      <point x="593" y="595" type="line"/>
      <point x="142" y="100" type="line"/>
      <point x="500" y="100" type="line"/>
    </contour>
  </outline>
</glyph>
<glyph name="Phi" format="2">
  <advance width="808"/>
  <unicode hex="03A6"/>
  <outline>
    <contour>
      <point x="298" y="31" type="line"/>
      <point x="242" y="31"/>
      <point x="150" y="62"/>
      <point x="85" y="123"/>
      <point x="49" y="215"/>
      <point x="49" y="277" type="qcurve" smooth="yes"/>
      <point x="49" y="360"/>
      <point x="97" y="505"/>
      <point x="192" y="613"/>
      <point x="334" y="676"/>
      <point x="428" y="676" type="qcurve"/>
      <point x="439" y="732" type="line"/>
      <point x="552" y="732" type="line"/>
      <point x="541" y="676" type="line"/>
      <point x="596" y="676"/>
      <point x="688" y="645"/>
      <point x="754" y="584"/>
      <point x="790" y="492"/>
      <point x="790" y="431" type="qcurve" smooth="yes"/>
      <point x="790" y="347"/>
      <point x="741" y="201"/>
      <point x="646" y="93"/>
      <point x="504" y="31"/>
      <point x="411" y="31" type="qcurve"/>
      <point x="397" y="-37" type="line"/>
      <point x="284" y="-37" type="line"/>
    </contour>
    <contour>
      <point x="411" y="583" type="line"/>
      <point x="317" y="583"/>
      <point x="198" y="482"/>
      <point x="177" y="380" type="qcurve" smooth="yes"/>
      <point x="167" y="331" type="line" smooth="yes"/>
      <point x="164" y="316"/>
      <point x="162" y="289"/>
      <point x="162" y="272" type="qcurve" smooth="yes"/>
      <point x="162" y="196"/>
      <point x="236" y="125"/>
      <point x="320" y="125" type="qcurve"/>
    </contour>
    <contour>
      <point x="433" y="125" type="line" smooth="yes"/>
      <point x="524" y="125"/>
      <point x="640" y="227"/>
      <point x="661" y="328" type="qcurve" smooth="yes"/>
      <point x="671" y="377" type="line"/>
      <point x="673" y="390"/>
      <point x="676" y="418"/>
      <point x="676" y="435" type="qcurve" smooth="yes"/>
      <point x="676" y="511"/>
      <point x="602" y="583"/>
      <point x="519" y="583" type="qcurve"/>
      <point x="427" y="125" type="line"/>
    </contour>
  </outline>
</glyph>
<glyph name="Upsilondieresis" format="2">
  <advance width="606"/>
  <unicode hex="03AB"/>
  <outline>
    <contour>
      <point x="324" y="0" type="line"/>
      <point x="379" y="272" type="line"/>
      <point x="232" y="698" type="line"/>
      <point x="347" y="698" type="line"/>
      <point x="452" y="380" type="line"/>
      <point x="458" y="380" type="line"/>
      <point x="683" y="698" type="line"/>
      <point x="810" y="698" type="line"/>
      <point x="491" y="265" type="line"/>
      <point x="437" y="0" type="line"/>
    </contour>
    <contour>
      <point x="426" y="773" type="qcurve" smooth="yes"/>
      <point x="399" y="773"/>
      <point x="372" y="795"/>
      <point x="372" y="815" type="qcurve" smooth="yes"/>
      <point x="372" y="827"/>
      <point x="378" y="856"/>
      <point x="394" y="883"/>
      <point x="424" y="901"/>
      <point x="447" y="901" type="qcurve" smooth="yes"/>
      <point x="473" y="901"/>
      <point x="501" y="879"/>
      <point x="501" y="859" type="qcurve" smooth="yes"/>
      <point x="501" y="847"/>
      <point x="495" y="818"/>
      <point x="478" y="791"/>
      <point x="449" y="773"/>
    </contour>
    <contour>
      <point x="617" y="773" type="qcurve" smooth="yes"/>
      <point x="590" y="773"/>
      <point x="563" y="795"/>
      <point x="563" y="815" type="qcurve" smooth="yes"/>
      <point x="563" y="827"/>
      <point x="569" y="856"/>
      <point x="585" y="883"/>
      <point x="615" y="901"/>
      <point x="638" y="901" type="qcurve" smooth="yes"/>
      <point x="664" y="901"/>
      <point x="692" y="879"/>
      <point x="692" y="859" type="qcurve" smooth="yes"/>
      <point x="692" y="847"/>
      <point x="686" y="818"/>
      <point x="669" y="791"/>
      <point x="640" y="773"/>
    </contour>
  </outline>
</glyph>
<glyph name="etatonos" format="2">
  <advance width="585"/>
  <unicode hex="03AE"/>
  <outline>
    <contour>
      <point x="36" y="0" type="line"/>
      <point x="123" y="430" type="line"/>
      <point x="57" y="430" type="line"/>
      <point x="74" y="520" type="line"/>
      <point x="140" y="520" type="line" smooth="yes"/>
      <point x="158" y="520"/>
      <point x="191" y="514"/>
      <point x="217" y="498"/>
      <point x="233" y="471"/>
      <point x="233" y="450" type="qcurve" smooth="yes"/>
      <point x="233" y="443"/>
      <point x="231" y="427"/>
      <point x="229" y="421" type="qcurve"/>
      <point x="227" y="408" type="line"/>
      <point x="232" y="408" type="line"/>
      <point x="261" y="467"/>
      <point x="337" y="532"/>
      <point x="398" y="532" type="qcurve" smooth="yes"/>
      <point x="464" y="532"/>
      <point x="528" y="458"/>
      <point x="528" y="393" type="qcurve"/>
      <point x="527" y="375"/>
      <point x="524" y="340"/>
      <point x="520" y="322" type="qcurve" smooth="yes"/>
      <point x="415" y="-200" type="line"/>
      <point x="307" y="-200" type="line"/>
      <point x="404" y="285" type="line"/>
      <point x="409" y="306"/>
      <point x="416" y="350"/>
      <point x="416" y="369" type="qcurve" smooth="yes"/>
      <point x="416" y="402"/>
      <point x="385" y="439"/>
      <point x="350" y="439" type="qcurve" smooth="yes"/>
      <point x="321" y="439"/>
      <point x="271" y="409"/>
      <point x="232" y="362"/>
      <point x="206" y="306"/>
      <point x="201" y="279" type="qcurve" smooth="yes"/>
      <point x="145" y="0" type="line"/>
    </contour>
    <contour>
      <point x="392" y="582" type="line"/>
      <point x="322" y="602" type="line"/>
      <point x="390" y="797" type="line"/>
      <point x="489" y="773" type="line"/>
    </contour>
  </outline>
</glyph>
<glyph name="alpha" format="2">
  <advance width="638"/>
  <unicode hex="03B1"/>
  <outline>
    <contour>
      <point x="222" y="80" type="qcurve" smooth="yes"/>
      <point x="237" y="80"/>
      <point x="263" y="91"/>
      <point x="290" y="116"/>
      <point x="320" y="156"/>
      <point x="338" y="185" type="qcurve" smooth="yes"/>
      <point x="382" y="260" type="line"/>
      <point x="370" y="335" type="line" smooth="yes"/>
      <point x="361" y="390"/>
      <point x="326" y="440"/>
      <point x="293" y="440" type="qcurve" smooth="yes"/>
      <point x="251" y="440"/>
      <point x="186" y="371"/>
      <point x="172" y="303" type="qcurve" smooth="yes"/>
      <point x="158" y="236" type="line" smooth="yes"/>
      <point x="155" y="222"/>
      <point x="153" y="198"/>
      <point x="152" y="188" type="qcurve"/>
      <point x="152" y="171" type="line" smooth="yes"/>
      <point x="152" y="162"/>
      <point x="153" y="153" type="qcurve" smooth="yes"/>
      <point x="161" y="80"/>
    </contour>
    <contour>
      <point x="563" y="0" type="line"/>
      <point x="513" y="0" type="line" smooth="yes"/>
      <point x="466" y="0"/>
      <point x="417" y="37"/>
      <point x="417" y="86" type="qcurve" smooth="yes"/>
      <point x="418" y="166" type="line"/>
      <point x="415" y="166" type="line"/>
      <point x="389" y="114"/>
      <point x="338" y="46"/>
      <point x="287" y="5"/>
      <point x="232" y="-12"/>
      <point x="201" y="-12" type="qcurve" smooth="yes"/>
      <point x="122" y="-12"/>
      <point x="41" y="83"/>
      <point x="41" y="177" type="qcurve" smooth="yes"/>
      <point x="41" y="249"/>
      <point x="75" y="377"/>
      <point x="140" y="475"/>
      <point x="232" y="532"/>
      <point x="290" y="532" type="qcurve" smooth="yes"/>
      <point x="366" y="532"/>
      <point x="443" y="448"/>
      <point x="449" y="354" type="qcurve"/>
      <point x="453" y="354" type="line"/>
      <point x="496" y="446" type="line"/>
      <point x="534" y="520" type="line"/>
      <point x="655" y="520" type="line"/>
      <point x="493" y="261" type="line"/>
      <point x="522" y="90" type="line"/>
      <point x="580" y="90" type="line"/>
    </contour>
  </outline>
</glyph>
<glyph name="beta" format="2">
  <advance width="565"/>
  <unicode hex="03B2"/>
  <outline>
    <contour>
      <point x="127" y="511" type="line" smooth="yes"/>
      <point x="150" y="629"/>
      <point x="279" y="752"/>
      <point x="377" y="752" type="qcurve" smooth="yes"/>
      <point x="462" y="752"/>
      <point x="553" y="665"/>
      <point x="553" y="587" type="qcurve" smooth="yes"/>
      <point x="553" y="545"/>
      <point x="529" y="481"/>
      <point x="488" y="433"/>
      <point x="432" y="402"/>
      <point x="399" y="395" type="qcurve"/>
      <point x="399" y="393"/>
      <point x="398" y="392"/>
      <point x="398" y="390" type="qcurve"/>
      <point x="457" y="378"/>
      <point x="519" y="300"/>
      <point x="519" y="229" type="qcurve" smooth="yes"/>
      <point x="519" y="181"/>
      <point x="488" y="98"/>
      <point x="434" y="34"/>
      <point x="360" y="-6"/>
      <point x="317" y="-10" type="qcurve"/>
      <point x="308" y="-12"/>
      <point x="299" y="-12" type="qcurve" smooth="yes"/>
      <point x="297" y="-12"/>
      <point x="284" y="-11"/>
      <point x="273" y="-10" type="qcurve" smooth="yes"/>
      <point x="226" y="-6"/>
      <point x="163" y="45"/>
      <point x="155" y="87" type="qcurve"/>
      <point x="150" y="87" type="line"/>
      <point x="93" y="-200" type="line"/>
      <point x="-16" y="-200" type="line"/>
    </contour>
    <contour>
      <point x="286" y="435" type="line"/>
      <point x="316" y="435" type="line" smooth="yes"/>
      <point x="347" y="435"/>
      <point x="390" y="449"/>
      <point x="419" y="481"/>
      <point x="437" y="529"/>
      <point x="442" y="564" type="qcurve" smooth="yes"/>
      <point x="443" y="571"/>
      <point x="444" y="582"/>
      <point x="444" y="588" type="qcurve" smooth="yes"/>
      <point x="444" y="621"/>
      <point x="407" y="660"/>
      <point x="367" y="660" type="qcurve" smooth="yes"/>
      <point x="322" y="660"/>
      <point x="252" y="595"/>
      <point x="237" y="518" type="qcurve" smooth="yes"/>
      <point x="173" y="199" type="line"/>
      <point x="171" y="186"/>
      <point x="168" y="166"/>
      <point x="168" y="159" type="qcurve" smooth="yes"/>
      <point x="168" y="153"/>
      <point x="169" y="147" type="qcurve"/>
      <point x="173" y="115"/>
      <point x="224" y="79"/>
      <point x="270" y="79" type="qcurve" smooth="yes"/>
      <point x="300" y="79"/>
      <point x="350" y="97"/>
      <point x="388" y="136"/>
      <point x="409" y="198"/>
      <point x="409" y="242" type="qcurve" smooth="yes"/>
      <point x="409" y="246"/>
      <point x="410" y="252"/>
      <point x="410" y="253" type="qcurve" smooth="yes"/>
      <point x="410" y="256"/>
      <point x="409" y="259" type="qcurve"/>
      <point x="404" y="346"/>
      <point x="308" y="346" type="qcurve" smooth="yes"/>
      <point x="267" y="346" type="line"/>
    </contour>
  </outline>
</glyph>
<glyph name="delta" format="2">
  <advance width="546"/>
  <unicode hex="03B4"/>
  <outline>
    <contour>
      <point x="361" y="650" type="line"/>
      <point x="272" y="657" type="line"/>
      <point x="272" y="656" type="line"/>
      <point x="271" y="654" type="line"/>
      <point x="271" y="653" type="line"/>
      <point x="354" y="583" type="line" smooth="yes"/>
      <point x="394" y="550"/>
      <point x="452" y="491"/>
      <point x="489" y="429"/>
      <point x="506" y="360"/>
      <point x="506" y="319" type="qcurve" smooth="yes"/>
      <point x="506" y="254"/>
      <point x="468" y="134"/>
      <point x="398" y="42"/>
      <point x="299" y="-12"/>
      <point x="237" y="-12" type="qcurve" smooth="yes"/>
      <point x="146" y="-12"/>
      <point x="40" y="98"/>
      <point x="40" y="203" type="qcurve" smooth="yes"/>
      <point x="40" y="266"/>
      <point x="80" y="376"/>
      <point x="148" y="457"/>
      <point x="239" y="504"/>
      <point x="291" y="504" type="qcurve"/>
      <point x="291" y="506"/>
      <point x="292" y="507"/>
      <point x="292" y="509" type="qcurve"/>
      <point x="169" y="623" type="line"/>
      <point x="192" y="740" type="line"/>
      <point x="559" y="740" type="line"/>
      <point x="541" y="650" type="line"/>
    </contour>
    <contour>
      <point x="395" y="335" type="qcurve" smooth="yes"/>
      <point x="395" y="353"/>
      <point x="390" y="384"/>
      <point x="377" y="414"/>
      <point x="355" y="445"/>
      <point x="339" y="464" type="qcurve"/>
      <point x="294" y="457"/>
      <point x="231" y="420"/>
      <point x="189" y="360"/>
      <point x="162" y="278"/>
      <point x="152" y="226" type="qcurve" smooth="yes"/>
      <point x="149" y="211"/>
      <point x="147" y="189"/>
      <point x="147" y="181" type="qcurve" smooth="yes"/>
      <point x="147" y="134"/>
      <point x="195" y="79"/>
      <point x="245" y="79" type="qcurve" smooth="yes"/>
      <point x="278" y="79"/>
      <point x="325" y="106"/>
      <point x="358" y="156"/>
      <point x="381" y="228"/>
      <point x="389" y="273" type="qcurve" smooth="yes"/>
      <point x="393" y="293"/>
      <point x="395" y="322"/>
    </contour>
  </outline>
</glyph>
<glyph name="theta" format="2">
  <advance width="591"/>
  <unicode hex="03B8"/>
  <outline>
    <contour>
      <point x="261" y="527" type="line" smooth="yes"/>
      <point x="261" y="489"/>
      <point x="304" y="454"/>
      <point x="361" y="454" type="qcurve" smooth="yes"/>
      <point x="447" y="454" type="line"/>
      <point x="452" y="477" type="line" smooth="yes"/>
      <point x="456" y="497"/>
      <point x="460" y="540"/>
      <point x="460" y="568" type="qcurve" smooth="yes"/>
      <point x="460" y="613"/>
      <point x="417" y="661"/>
      <point x="373" y="661" type="qcurve" smooth="yes"/>
      <point x="345" y="661"/>
      <point x="303" y="640"/>
      <point x="275" y="604"/>
      <point x="261" y="557"/>
      <point x="261" y="531" type="qcurve" smooth="yes"/>
    </contour>
    <contour>
      <point x="123" y="386" type="line" smooth="yes"/>
      <point x="159" y="386"/>
      <point x="201" y="348"/>
      <point x="201" y="316" type="qcurve" smooth="yes"/>
      <point x="201" y="304"/>
      <point x="196" y="282" type="qcurve"/>
      <point x="187" y="234" type="line"/>
      <point x="183" y="217"/>
      <point x="180" y="184"/>
      <point x="180" y="172" type="qcurve" smooth="yes"/>
      <point x="180" y="127"/>
      <point x="223" y="79"/>
      <point x="267" y="79" type="qcurve" smooth="yes"/>
      <point x="329" y="79"/>
      <point x="393" y="180"/>
      <point x="414" y="288" type="qcurve" smooth="yes"/>
      <point x="429" y="364" type="line"/>
      <point x="351" y="364" type="line" smooth="yes"/>
      <point x="299" y="364"/>
      <point x="225" y="389"/>
      <point x="177" y="434"/>
      <point x="154" y="494"/>
      <point x="154" y="530" type="qcurve" smooth="yes"/>
      <point x="154" y="570"/>
      <point x="184" y="649"/>
      <point x="241" y="712"/>
      <point x="326" y="752"/>
      <point x="380" y="752" type="qcurve" smooth="yes"/>
      <point x="465" y="752"/>
      <point x="560" y="655"/>
      <point x="566" y="570" type="qcurve"/>
      <point x="567" y="561"/>
      <point x="567" y="552" type="qcurve" smooth="yes"/>
      <point x="567" y="533" type="line"/>
      <point x="566" y="495"/>
      <point x="556" y="406"/>
      <point x="537" y="313"/>
      <point x="512" y="221"/>
      <point x="480" y="140"/>
      <point x="444" y="74"/>
      <point x="424" y="54" type="qcurve" smooth="yes"/>
      <point x="389" y="19"/>
      <point x="310" y="-12"/>
      <point x="259" y="-12" type="qcurve" smooth="yes"/>
      <point x="212" y="-12"/>
      <point x="143" y="17"/>
      <point x="97" y="70"/>
      <point x="74" y="144"/>
      <point x="74" y="188" type="qcurve" smooth="yes"/>
      <point x="74" y="195" type="line" smooth="yes"/>
      <point x="74" y="205"/>
      <point x="79" y="235"/>
      <point x="84" y="258" type="qcurve"/>
      <point x="91" y="296" type="line"/>
      <point x="30" y="296" type="line"/>
      <point x="48" y="386" type="line"/>
    </contour>
  </outline>
</glyph>
<glyph name="u03BC" format="2">
  <advance width="580"/>
  <unicode hex="03BC"/>
  <outline>
    <contour>
      <point x="-56" y="-200" type="line"/>
      <point x="88" y="520" type="line"/>
      <point x="197" y="520" type="line"/>
      <point x="134" y="206" type="line" smooth="yes"/>
      <point x="131" y="192"/>
      <point x="128" y="162"/>
      <point x="128" y="152" type="qcurve" smooth="yes"/>
      <point x="128" y="117"/>
      <point x="156" y="81"/>
      <point x="191" y="81" type="qcurve" smooth="yes"/>
      <point x="219" y="81"/>
      <point x="268" y="110"/>
      <point x="305" y="157"/>
      <point x="331" y="214"/>
      <point x="337" y="241" type="qcurve" smooth="yes"/>
      <point x="393" y="520" type="line"/>
      <point x="502" y="520" type="line"/>
      <point x="415" y="90" type="line"/>
      <point x="481" y="90" type="line"/>
      <point x="464" y="0" type="line"/>
      <point x="398" y="0" type="line" smooth="yes"/>
      <point x="378" y="0"/>
      <point x="345" y="7"/>
      <point x="319" y="23"/>
      <point x="305" y="50"/>
      <point x="305" y="70" type="qcurve" smooth="yes"/>
      <point x="305" y="76"/>
      <point x="307" y="92"/>
      <point x="309" y="99" type="qcurve"/>
      <point x="311" y="112" type="line"/>
      <point x="306" y="112" type="line"/>
      <point x="290" y="78"/>
      <point x="260" y="31"/>
      <point x="227" y="1"/>
      <point x="189" y="-12"/>
      <point x="166" y="-12" type="qcurve" smooth="yes"/>
      <point x="126" y="-12"/>
      <point x="89" y="31"/>
      <point x="83" y="73" type="qcurve"/>
      <point x="78" y="73" type="line"/>
      <point x="78" y="-3" type="line" smooth="yes"/>
      <point x="78" y="-40"/>
      <point x="77" y="-78" type="qcurve"/>
      <point x="52" y="-200" type="line"/>
    </contour>
  </outline>
</glyph>
<glyph name="rho" format="2">
  <advance width="549"/>
  <unicode hex="03C1"/>
  <outline>
    <contour>
      <point x="61" y="281" type="line" smooth="yes"/>
      <point x="86" y="402"/>
      <point x="212" y="532"/>
      <point x="311" y="532" type="qcurve" smooth="yes"/>
      <point x="405" y="532"/>
      <point x="508" y="428"/>
      <point x="508" y="323" type="qcurve" smooth="yes"/>
      <point x="508" y="258"/>
      <point x="474" y="137"/>
      <point x="411" y="44"/>
      <point x="322" y="-12"/>
      <point x="267" y="-12" type="qcurve" smooth="yes"/>
      <point x="211" y="-12"/>
      <point x="143" y="45"/>
      <point x="135" y="87" type="qcurve"/>
      <point x="131" y="87" type="line"/>
      <point x="73" y="-200" type="line"/>
      <point x="-35" y="-200" type="line"/>
    </contour>
    <contour>
      <point x="245" y="79" type="qcurve" smooth="yes"/>
      <point x="300" y="79"/>
      <point x="364" y="148"/>
      <point x="378" y="215" type="qcurve" smooth="yes"/>
      <point x="381" y="230"/>
      <point x="387" y="261"/>
      <point x="391" y="276" type="qcurve"/>
      <point x="395" y="303" type="line"/>
      <point x="397" y="311"/>
      <point x="399" y="330"/>
      <point x="399" y="341" type="qcurve" smooth="yes"/>
      <point x="399" y="386"/>
      <point x="350" y="441"/>
      <point x="304" y="441" type="qcurve" smooth="yes"/>
      <point x="255" y="441"/>
      <point x="187" y="370"/>
      <point x="174" y="303" type="qcurve" smooth="yes"/>
      <point x="152" y="191" type="line"/>
      <point x="150" y="179"/>
      <point x="149" y="164"/>
      <point x="149" y="161" type="qcurve" smooth="yes"/>
      <point x="149" y="153"/>
      <point x="150" y="146" type="qcurve" smooth="yes"/>
      <point x="155" y="115"/>
      <point x="203" y="79"/>
    </contour>
  </outline>
</glyph>
<glyph name="sigma1" format="2">
  <advance width="480"/>
  <unicode hex="03C2"/>
  <outline>
    <contour>
      <point x="265" y="-13" type="line"/>
      <point x="214" y="3" type="line" smooth="yes"/>
      <point x="168" y="18"/>
      <point x="102" y="55"/>
      <point x="60" y="106"/>
      <point x="40" y="172"/>
      <point x="40" y="216" type="qcurve" smooth="yes"/>
      <point x="40" y="276"/>
      <point x="74" y="390"/>
      <point x="141" y="479"/>
      <point x="240" y="532"/>
      <point x="304" y="532" type="qcurve" smooth="yes"/>
      <point x="376" y="532"/>
      <point x="470" y="461"/>
      <point x="483" y="404" type="qcurve"/>
      <point x="392" y="367" type="line"/>
      <point x="381" y="403"/>
      <point x="339" y="441"/>
      <point x="299" y="441" type="qcurve" smooth="yes"/>
      <point x="233" y="441"/>
      <point x="155" y="331"/>
      <point x="148" y="225" type="qcurve"/>
      <point x="148" y="208"/>
      <point x="151" y="198" type="qcurve"/>
      <point x="156" y="158"/>
      <point x="204" y="116"/>
      <point x="251" y="102" type="qcurve" smooth="yes"/>
      <point x="305" y="85" type="line" smooth="yes"/>
      <point x="338" y="74"/>
      <point x="371" y="38"/>
      <point x="371" y="9" type="qcurve" smooth="yes"/>
      <point x="371" y="-5"/>
      <point x="363" y="-34"/>
      <point x="355" y="-51" type="qcurve" smooth="yes"/>
      <point x="298" y="-172" type="line"/>
      <point x="208" y="-135" type="line"/>
    </contour>
  </outline>
</glyph>
<glyph name="phi" format="2">
  <advance width="723"/>
  <unicode hex="03C6"/>
  <outline>
    <contour>
      <point x="245" y="-12" type="line"/>
      <point x="195" y="-12"/>
      <point x="119" y="16"/>
      <point x="68" y="67"/>
      <point x="41" y="137"/>
      <point x="41" y="179" type="qcurve" smooth="yes"/>
      <point x="41" y="235"/>
      <point x="64" y="341"/>
      <point x="111" y="432"/>
      <point x="184" y="507"/>
      <point x="234" y="532" type="qcurve"/>
      <point x="289" y="458" type="line"/>
      <point x="236" y="429"/>
      <point x="179" y="345"/>
      <point x="165" y="277" type="qcurve" smooth="yes"/>
      <point x="153" y="219" type="line"/>
      <point x="150" y="202"/>
      <point x="148" y="181"/>
      <point x="148" y="173" type="qcurve" smooth="yes"/>
      <point x="148" y="125"/>
      <point x="200" y="78"/>
      <point x="263" y="78" type="qcurve"/>
      <point x="304" y="282" type="line" smooth="yes"/>
      <point x="329" y="412"/>
      <point x="434" y="532"/>
      <point x="529" y="532" type="qcurve" smooth="yes"/>
      <point x="602" y="532"/>
      <point x="682" y="445"/>
      <point x="682" y="359" type="qcurve" smooth="yes"/>
      <point x="682" y="273"/>
      <point x="639" y="136"/>
      <point x="556" y="40"/>
      <point x="433" y="-12"/>
      <point x="352" y="-12" type="qcurve"/>
      <point x="314" y="-200" type="line"/>
      <point x="207" y="-200" type="line"/>
    </contour>
    <contour>
      <point x="370" y="78" type="line"/>
      <point x="445" y="78"/>
      <point x="536" y="153"/>
      <point x="553" y="234" type="qcurve"/>
      <point x="555" y="245"/>
      <point x="557" y="255" type="qcurve" smooth="yes"/>
      <point x="560" y="270" type="line"/>
      <point x="563" y="281"/>
      <point x="564" y="291" type="qcurve"/>
      <point x="572" y="336" type="line" smooth="yes"/>
      <point x="574" y="347"/>
      <point x="574" y="367"/>
      <point x="575" y="376" type="qcurve"/>
      <point x="575" y="409"/>
      <point x="544" y="442"/>
      <point x="515" y="442" type="qcurve" smooth="yes"/>
      <point x="480" y="442"/>
      <point x="433" y="388"/>
      <point x="419" y="322" type="qcurve" smooth="yes"/>
    </contour>
  </outline>
</glyph>
<glyph name="psi" format="2">
  <advance width="718"/>
  <unicode hex="03C8"/>
  <outline>
    <contour>
      <point x="212" y="-200" type="line"/>
      <point x="250" y="-12" type="line"/>
      <point x="208" y="-12"/>
      <point x="137" y="12"/>
      <point x="86" y="58"/>
      <point x="58" y="123"/>
      <point x="58" y="164" type="qcurve" smooth="yes"/>
      <point x="58" y="197"/>
      <point x="71" y="283"/>
      <point x="91" y="378"/>
      <point x="112" y="476"/>
      <point x="121" y="520" type="qcurve"/>
      <point x="229" y="520" type="line"/>
      <point x="173" y="243" type="line" smooth="yes"/>
      <point x="167" y="214"/>
      <point x="164" y="183"/>
      <point x="164" y="168" type="qcurve" smooth="yes"/>
      <point x="164" y="121"/>
      <point x="213" y="78"/>
      <point x="268" y="78" type="qcurve"/>
      <point x="395" y="710" type="line"/>
      <point x="502" y="710" type="line"/>
      <point x="375" y="78" type="line"/>
      <point x="415" y="78"/>
      <point x="468" y="95"/>
      <point x="504" y="139"/>
      <point x="530" y="216"/>
      <point x="542" y="276" type="qcurve" smooth="yes"/>
      <point x="591" y="520" type="line"/>
      <point x="700" y="520" type="line"/>
      <point x="645" y="251" type="line" smooth="yes"/>
      <point x="630" y="183"/>
      <point x="588" y="83"/>
      <point x="522" y="19"/>
      <point x="426" y="-12"/>
      <point x="357" y="-12" type="qcurve"/>
      <point x="319" y="-200" type="line"/>
    </contour>
  </outline>
</glyph>
<glyph name="iotadieresis" format="2">
  <advance width="295"/>
  <unicode hex="03CA"/>
  <outline>
    <contour>
      <point x="324" y="0" type="line"/>
      <point x="249" y="0" type="line" smooth="yes"/>
      <point x="195" y="0"/>
      <point x="137" y="34"/>
      <point x="137" y="81" type="qcurve" smooth="yes"/>
      <point x="137" y="87"/>
      <point x="138" y="105"/>
      <point x="140" y="114" type="qcurve" smooth="yes"/>
      <point x="222" y="520" type="line"/>
      <point x="330" y="520" type="line"/>
      <point x="244" y="90" type="line"/>
      <point x="342" y="90" type="line"/>
    </contour>
    <contour>
      <point x="208" y="609" type="qcurve" smooth="yes"/>
      <point x="180" y="609"/>
      <point x="154" y="631"/>
      <point x="154" y="650" type="qcurve" smooth="yes"/>
      <point x="154" y="663"/>
      <point x="161" y="693"/>
      <point x="177" y="719"/>
      <point x="206" y="736"/>
      <point x="229" y="736" type="qcurve" smooth="yes"/>
      <point x="255" y="736"/>
      <point x="283" y="714"/>
      <point x="283" y="694" type="qcurve" smooth="yes"/>
      <point x="283" y="682"/>
      <point x="277" y="652"/>
      <point x="260" y="626"/>
      <point x="231" y="609"/>
    </contour>
    <contour>
      <point x="399" y="609" type="qcurve" smooth="yes"/>
      <point x="371" y="609"/>
      <point x="345" y="631"/>
      <point x="345" y="650" type="qcurve" smooth="yes"/>
      <point x="345" y="663"/>
      <point x="352" y="693"/>
      <point x="368" y="719"/>
      <point x="397" y="736"/>
      <point x="420" y="736" type="qcurve" smooth="yes"/>
      <point x="446" y="736"/>
      <point x="474" y="714"/>
      <point x="474" y="694" type="qcurve" smooth="yes"/>
      <point x="474" y="682"/>
      <point x="468" y="652"/>
      <point x="451" y="626"/>
      <point x="422" y="609"/>
    </contour>
  </outline>
</glyph>
<glyph name="upsilontonos" format="2">
  <advance width="558"/>
  <unicode hex="03CD"/>
  <outline>
    <contour>
      <point x="174" y="243" type="line" smooth="yes"/>
      <point x="169" y="217"/>
      <point x="164" y="181"/>
      <point x="164" y="162" type="qcurve" smooth="yes"/>
      <point x="164" y="118"/>
      <point x="205" y="79"/>
      <point x="248" y="79" type="qcurve" smooth="yes"/>
      <point x="274" y="79"/>
      <point x="314" y="95"/>
      <point x="345" y="137"/>
      <point x="370" y="211"/>
      <point x="381" y="269" type="qcurve" smooth="yes"/>
      <point x="394" y="332"/>
      <point x="418" y="457"/>
      <point x="432" y="520" type="qcurve"/>
      <point x="540" y="520" type="line"/>
      <point x="484" y="244" type="line" smooth="yes"/>
      <point x="458" y="112"/>
      <point x="342" y="-12"/>
      <point x="240" y="-12" type="qcurve" smooth="yes"/>
      <point x="197" y="-12"/>
      <point x="130" y="14"/>
      <point x="83" y="60"/>
      <point x="58" y="124"/>
      <point x="58" y="162" type="qcurve" smooth="yes"/>
      <point x="58" y="182"/>
      <point x="62" y="226"/>
      <point x="68" y="253" type="qcurve" smooth="yes"/>
      <point x="121" y="520" type="line"/>
      <point x="230" y="520" type="line"/>
    </contour>
    <contour>
      <point x="371" y="582" type="line"/>
      <point x="301" y="602" type="line"/>
      <point x="369" y="797" type="line"/>
      <point x="468" y="773" type="line"/>
    </contour>
  </outline>
</glyph>
<glyph name="uni0400" format="2">
  <advance width="573"/>
  <unicode hex="0400"/>
  <outline>
    <contour>
      <point x="377" y="746" type="line"/>
      <point x="280" y="917" type="line"/>
      <point x="383" y="966" type="line"/>
      <point x="449" y="778" type="line"/>
    </contour>
    <contour>
      <point x="476" y="0" type="line"/>
      <point x="29" y="0" type="line"/>
      <point x="169" y="698" type="line"/>
      <point x="603" y="698" type="line"/>
      <point x="581" y="591" type="line"/>
      <point x="268" y="591" type="line"/>
      <point x="231" y="406" type="line"/>
      <point x="510" y="406" type="line"/>
      <point x="488" y="299" type="line"/>
      <point x="210" y="299" type="line"/>
      <point x="171" y="107" type="line"/>
      <point x="497" y="107" type="line"/>
    </contour>
  </outline>
</glyph>
<glyph name="Eukrcyr" format="2">
  <advance width="638"/>
  <unicode hex="0404"/>
  <outline>
    <contour>
      <point x="308" y="-12" type="qcurve" smooth="yes"/>
      <point x="190" y="-12"/>
      <point x="56" y="132"/>
      <point x="56" y="270" type="qcurve" smooth="yes"/>
      <point x="56" y="386"/>
      <point x="142" y="586"/>
      <point x="303" y="710"/>
      <point x="414" y="710" type="qcurve" smooth="yes"/>
      <point x="599" y="710"/>
      <point x="652" y="549" type="qcurve"/>
      <point x="547" y="501" type="line"/>
      <point x="533" y="550"/>
      <point x="467" y="602"/>
      <point x="404" y="602" type="qcurve" smooth="yes"/>
      <point x="317" y="602"/>
      <point x="219" y="495"/>
      <point x="204" y="407" type="qcurve"/>
      <point x="456" y="407" type="line"/>
      <point x="435" y="300" type="line"/>
      <point x="183" y="300" type="line"/>
      <point x="177" y="268"/>
      <point x="177" y="246" type="qcurve" smooth="yes"/>
      <point x="177" y="96"/>
      <point x="318" y="96" type="qcurve" smooth="yes"/>
      <point x="383" y="96"/>
      <point x="464" y="150"/>
      <point x="494" y="207" type="qcurve"/>
      <point x="594" y="157" type="line"/>
      <point x="543" y="69"/>
      <point x="403" y="-12"/>
    </contour>
  </outline>
</glyph>
<glyph name="u0409" format="2">
  <advance width="1009"/>
  <unicode hex="0409"/>
  <outline>
    <contour>
      <point x="730" y="107" type="line" smooth="yes"/>
      <point x="797" y="107"/>
      <point x="826" y="168" type="qcurve" smooth="yes"/>
      <point x="846" y="212"/>
      <point x="846" y="265" type="qcurve" smooth="yes"/>
      <point x="846" y="327"/>
      <point x="773" y="327" type="qcurve" smooth="yes"/>
      <point x="605" y="327" type="line"/>
      <point x="561" y="107" type="line"/>
    </contour>
    <contour>
      <point x="12" y="-4" type="qcurve" smooth="yes"/>
      <point x="-33" y="-4" type="line"/>
      <point x="-12" y="107" type="line"/>
      <point x="65" y="107" type="line"/>
      <point x="103" y="138"/>
      <point x="136" y="212" type="qcurve"/>
      <point x="162" y="275"/>
      <point x="190" y="398" type="qcurve" smooth="yes"/>
      <point x="212" y="493"/>
      <point x="254" y="698" type="qcurve"/>
      <point x="680" y="698" type="line"/>
      <point x="627" y="434" type="line"/>
      <point x="771" y="434" type="line" smooth="yes"/>
      <point x="875" y="434"/>
      <point x="971" y="334"/>
      <point x="971" y="252" type="qcurve" smooth="yes"/>
      <point x="971" y="136"/>
      <point x="825" y="0"/>
      <point x="714" y="0" type="qcurve" smooth="yes"/>
      <point x="419" y="0" type="line"/>
      <point x="537" y="591" type="line"/>
      <point x="349" y="591" type="line"/>
      <point x="325" y="463"/>
      <point x="290" y="305"/>
      <point x="264" y="230" type="qcurve" smooth="yes"/>
      <point x="218" y="97"/>
      <point x="101" y="-4"/>
    </contour>
  </outline>
</glyph>
<glyph name="Njecyr" format="2">
  <advance width="1010"/>
  <unicode hex="040A"/>
  <outline>
    <contour>
      <point x="731" y="107" type="line" smooth="yes"/>
      <point x="781" y="107"/>
      <point x="830" y="166"/>
      <point x="847" y="241"/>
      <point x="847" y="265" type="qcurve" smooth="yes"/>
      <point x="847" y="327"/>
      <point x="773" y="327" type="qcurve" smooth="yes"/>
      <point x="606" y="327" type="line"/>
      <point x="562" y="107" type="line"/>
    </contour>
    <contour>
      <point x="714" y="0" type="qcurve" smooth="yes"/>
      <point x="420" y="0" type="line"/>
      <point x="480" y="299" type="line"/>
      <point x="210" y="299" type="line"/>
      <point x="149" y="0" type="line"/>
      <point x="29" y="0" type="line"/>
      <point x="169" y="698" type="line"/>
      <point x="289" y="698" type="line"/>
      <point x="231" y="406" type="line"/>
      <point x="501" y="406" type="line"/>
      <point x="560" y="698" type="line"/>
      <point x="680" y="698" type="line"/>
      <point x="628" y="434" type="line"/>
      <point x="771" y="434" type="line" smooth="yes"/>
      <point x="876" y="434"/>
      <point x="972" y="334"/>
      <point x="972" y="252" type="qcurve" smooth="yes"/>
      <point x="972" y="139"/>
      <point x="828" y="0"/>
    </contour>
  </outline>
</glyph>
<glyph name="u040D" format="2">
  <advance width="694"/>
  <unicode hex="040D"/>
  <outline>
    <contour>
      <point x="560" y="0" type="line"/>
      <point x="443" y="0" type="line"/>
      <point x="519" y="381" type="line"/>
      <point x="561" y="523" type="line"/>
      <point x="558" y="523" type="line"/>
      <point x="466" y="393" type="line"/>
      <point x="137" y="0" type="line"/>
      <point x="29" y="0" type="line"/>
      <point x="169" y="698" type="line"/>
      <point x="286" y="698" type="line"/>
      <point x="209" y="317" type="line"/>
      <point x="167" y="175" type="line"/>
      <point x="170" y="175" type="line"/>
      <point x="262" y="305" type="line"/>
      <point x="592" y="698" type="line"/>
      <point x="700" y="698" type="line"/>
    </contour>
    <contour>
      <point x="428" y="746" type="line"/>
      <point x="331" y="917" type="line"/>
      <point x="434" y="966" type="line"/>
      <point x="500" y="778" type="line"/>
    </contour>
  </outline>
</glyph>
<glyph name="u040E" format="2">
  <advance width="588"/>
  <unicode hex="040E"/>
  <outline>
    <contour>
      <point x="173" y="0" type="qcurve" smooth="yes"/>
      <point x="72" y="0" type="line"/>
      <point x="93" y="107" type="line"/>
      <point x="200" y="107" type="line"/>
      <point x="232" y="162" type="line"/>
      <point x="103" y="698" type="line"/>
      <point x="225" y="698" type="line"/>
      <point x="287" y="424" type="line"/>
      <point x="312" y="292" type="line"/>
      <point x="318" y="292" type="line"/>
      <point x="348" y="354" type="line" smooth="yes"/>
      <point x="363" y="387"/>
      <point x="381" y="422" type="qcurve" smooth="yes"/>
      <point x="438" y="533"/>
      <point x="501" y="642" type="qcurve" smooth="yes"/>
      <point x="533" y="698" type="line"/>
      <point x="660" y="698" type="line"/>
      <point x="309" y="88" type="line" smooth="yes"/>
      <point x="283" y="41"/>
      <point x="221" y="0"/>
    </contour>
    <contour>
      <point x="387" y="750" type="qcurve" smooth="yes"/>
      <point x="384" y="750" type="line" smooth="yes"/>
      <point x="281" y="750"/>
      <point x="249" y="849" type="qcurve" smooth="yes"/>
      <point x="233" y="896" type="line"/>
      <point x="329" y="933" type="line"/>
      <point x="347" y="840" type="line"/>
      <point x="369" y="833"/>
      <point x="394" y="833" type="qcurve" smooth="yes"/>
      <point x="423" y="833"/>
      <point x="438" y="840" type="qcurve"/>
      <point x="487" y="933" type="line"/>
      <point x="578" y="894" type="line"/>
      <point x="550" y="849" type="line"/>
      <point x="493" y="750"/>
    </contour>
  </outline>
</glyph>
<glyph name="Vecyr" format="2">
  <advance width="642"/>
  <unicode hex="0412"/>
  <outline>
    <contour>
      <point x="349" y="105" type="line" smooth="yes"/>
      <point x="436" y="105"/>
      <point x="452" y="187" type="qcurve" smooth="yes"/>
      <point x="460" y="231"/>
      <point x="461" y="245" type="qcurve"/>
      <point x="461" y="304"/>
      <point x="377" y="304" type="qcurve" smooth="yes"/>
      <point x="210" y="304" type="line"/>
      <point x="170" y="105" type="line"/>
    </contour>
    <contour>
      <point x="382" y="404" type="line" smooth="yes"/>
      <point x="470" y="404"/>
      <point x="487" y="481" type="qcurve"/>
      <point x="489" y="489"/>
      <point x="491" y="500"/>
      <point x="492" y="506"/>
      <point x="495" y="536" type="qcurve"/>
      <point x="495" y="568"/>
      <point x="456" y="593"/>
      <point x="415" y="593" type="qcurve" smooth="yes"/>
      <point x="268" y="593" type="line"/>
      <point x="230" y="404" type="line"/>
    </contour>
    <contour>
      <point x="350" y="0" type="qcurve" smooth="yes"/>
      <point x="29" y="0" type="line"/>
      <point x="169" y="698" type="line"/>
      <point x="451" y="698" type="line" smooth="yes"/>
      <point x="525" y="698"/>
      <point x="622" y="627"/>
      <point x="622" y="553" type="qcurve" smooth="yes"/>
      <point x="622" y="488"/>
      <point x="555" y="385"/>
      <point x="484" y="364" type="qcurve"/>
      <point x="483" y="359" type="line"/>
      <point x="586" y="332"/>
      <point x="586" y="228" type="qcurve" smooth="yes"/>
      <point x="586" y="126"/>
      <point x="459" y="0"/>
    </contour>
  </outline>
</glyph>
<glyph name="Zecyr" format="2">
  <advance width="593"/>
  <unicode hex="0417"/>
  <outline>
    <contour>
      <point x="238" y="-12" type="qcurve"/>
      <point x="80" y="-8"/>
      <point x="3" y="111" type="qcurve"/>
      <point x="96" y="184" type="line"/>
      <point x="152" y="96"/>
      <point x="249" y="96" type="qcurve" smooth="yes"/>
      <point x="397" y="96"/>
      <point x="397" y="229" type="qcurve" smooth="yes"/>
      <point x="397" y="231" type="line" smooth="yes"/>
      <point x="397" y="302"/>
      <point x="292" y="302" type="qcurve" smooth="yes"/>
      <point x="194" y="302" type="line"/>
      <point x="216" y="408" type="line"/>
      <point x="307" y="408" type="line" smooth="yes"/>
      <point x="378" y="408"/>
      <point x="446" y="468"/>
      <point x="446" y="531" type="qcurve" smooth="yes"/>
      <point x="446" y="563"/>
      <point x="395" y="602"/>
      <point x="344" y="602" type="qcurve" smooth="yes"/>
      <point x="239" y="602"/>
      <point x="177" y="531" type="qcurve"/>
      <point x="105" y="611" type="line"/>
      <point x="202" y="710"/>
      <point x="356" y="710" type="qcurve" smooth="yes"/>
      <point x="463" y="710"/>
      <point x="573" y="623"/>
      <point x="573" y="546" type="qcurve" smooth="yes"/>
      <point x="573" y="402"/>
      <point x="422" y="362" type="qcurve"/>
      <point x="421" y="357" type="line"/>
      <point x="475" y="343"/>
      <point x="522" y="277"/>
      <point x="522" y="227" type="qcurve" smooth="yes"/>
      <point x="522" y="141"/>
      <point x="408" y="21"/>
      <point x="317" y="11" type="qcurve"/>
      <point x="298" y="5"/>
      <point x="262" y="-2" type="qcurve"/>
      <point x="234" y="-9"/>
      <point x="233" y="-10" type="qcurve"/>
      <point x="233" y="-12"/>
    </contour>
  </outline>
</glyph>
<glyph name="Ishortcyr" format="2">
  <advance width="694"/>
  <unicode hex="0419"/>
  <outline>
    <contour>
      <point x="560" y="0" type="line"/>
      <point x="443" y="0" type="line"/>
      <point x="474" y="154" type="line" smooth="yes"/>
      <point x="500" y="289"/>
      <point x="527" y="405" type="qcurve"/>
      <point x="543" y="464"/>
      <point x="561" y="523" type="qcurve"/>
      <point x="558" y="523" type="line"/>
      <point x="466" y="393" type="line"/>
      <point x="137" y="0" type="line"/>
      <point x="29" y="0" type="line"/>
      <point x="169" y="698" type="line"/>
      <point x="286" y="698" type="line"/>
      <point x="217" y="361"/>
      <point x="202" y="293" type="qcurve"/>
      <point x="167" y="175" type="line"/>
      <point x="170" y="175" type="line"/>
      <point x="262" y="305" type="line"/>
      <point x="592" y="698" type="line"/>
      <point x="700" y="698" type="line"/>
    </contour>
    <contour>
      <point x="450" y="750" type="qcurve" smooth="yes"/>
      <point x="447" y="750" type="line" smooth="yes"/>
      <point x="393" y="750"/>
      <point x="328" y="797"/>
      <point x="311" y="849" type="qcurve" smooth="yes"/>
      <point x="296" y="896" type="line"/>
      <point x="392" y="933" type="line"/>
      <point x="410" y="840" type="line"/>
      <point x="430" y="833"/>
      <point x="457" y="833" type="qcurve" smooth="yes"/>
      <point x="486" y="833"/>
      <point x="501" y="840" type="qcurve"/>
      <point x="549" y="933" type="line"/>
      <point x="641" y="894" type="line"/>
      <point x="613" y="849" type="line"/>
      <point x="554" y="750"/>
    </contour>
  </outline>
</glyph>
<glyph name="u041A" format="2">
  <advance width="651"/>
  <unicode hex="041A"/>
  <outline>
    <contour>
      <point x="553" y="0" type="line"/>
      <point x="504" y="0" type="line" smooth="yes"/>
      <point x="460" y="0"/>
      <point x="415" y="34"/>
      <point x="402" y="76" type="qcurve"/>
      <point x="317" y="300" type="line"/>
      <point x="210" y="300" type="line"/>
      <point x="149" y="0" type="line"/>
      <point x="29" y="0" type="line"/>
      <point x="169" y="698" type="line"/>
      <point x="289" y="698" type="line"/>
      <point x="231" y="406" type="line"/>
      <point x="338" y="406" type="line"/>
      <point x="503" y="630" type="line" smooth="yes"/>
      <point x="530" y="668"/>
      <point x="581" y="698"/>
      <point x="620" y="698" type="qcurve" smooth="yes"/>
      <point x="679" y="698" type="line"/>
      <point x="657" y="591" type="line"/>
      <point x="603" y="591" type="line"/>
      <point x="475" y="416" type="line"/>
      <point x="453" y="383"/>
      <point x="431" y="373" type="qcurve"/>
      <point x="427" y="371"/>
      <point x="421" y="369" type="qcurve" smooth="yes"/>
      <point x="407" y="364" type="line"/>
      <point x="402" y="363"/>
      <point x="399" y="361" type="qcurve"/>
      <point x="391" y="358"/>
      <point x="391" y="354" type="qcurve"/>
      <point x="426" y="343"/>
      <point x="445" y="294" type="qcurve" smooth="yes"/>
      <point x="516" y="107" type="line"/>
      <point x="575" y="107" type="line"/>
    </contour>
  </outline>
</glyph>
<glyph name="u041B" format="2">
  <advance width="699"/>
  <unicode hex="041B"/>
  <outline>
    <contour>
      <point x="12" y="-4" type="qcurve" smooth="yes"/>
      <point x="-33" y="-4" type="line"/>
      <point x="-12" y="107" type="line"/>
      <point x="65" y="107" type="line"/>
      <point x="105" y="139"/>
      <point x="139" y="219" type="qcurve" smooth="yes"/>
      <point x="162" y="273"/>
      <point x="209" y="479"/>
      <point x="233" y="599" type="qcurve" smooth="yes"/>
      <point x="254" y="698" type="line"/>
      <point x="705" y="698" type="line"/>
      <point x="565" y="0" type="line"/>
      <point x="445" y="0" type="line"/>
      <point x="563" y="591" type="line"/>
      <point x="349" y="591" type="line"/>
      <point x="325" y="466" type="line" smooth="yes"/>
      <point x="245" y="64"/>
      <point x="113" y="15" type="qcurve"/>
      <point x="68" y="-4"/>
    </contour>
  </outline>
</glyph>
<glyph name="afii10034" format="2">
  <advance width="618"/>
  <unicode hex="0420"/>
  <outline>
    <contour>
      <point x="149" y="0" type="line"/>
      <point x="29" y="0" type="line"/>
      <point x="169" y="698" type="line"/>
      <point x="426" y="698" type="line" smooth="yes"/>
      <point x="531" y="698"/>
      <point x="628" y="597"/>
      <point x="628" y="518" type="qcurve" smooth="yes"/>
      <point x="628" y="412"/>
      <point x="486" y="271"/>
      <point x="371" y="271" type="qcurve" smooth="yes"/>
      <point x="203" y="271" type="line"/>
    </contour>
    <contour>
      <point x="388" y="378" type="line" smooth="yes"/>
      <point x="427" y="378"/>
      <point x="479" y="423"/>
      <point x="504" y="492"/>
      <point x="504" y="527" type="qcurve" smooth="yes"/>
      <point x="504" y="591"/>
      <point x="428" y="591" type="qcurve" smooth="yes"/>
      <point x="268" y="591" type="line"/>
      <point x="225" y="378" type="line"/>
    </contour>
  </outline>
</glyph>
<glyph name="u0422" format="2">
  <advance width="564"/>
  <unicode hex="0422"/>
  <outline>
    <contour>
      <point x="289" y="0" type="line"/>
      <point x="169" y="0" type="line"/>
      <point x="287" y="591" type="line"/>
      <point x="92" y="591" type="line"/>
      <point x="114" y="698" type="line"/>
      <point x="624" y="698" type="line"/>
      <point x="603" y="591" type="line"/>
      <point x="408" y="591" type="line"/>
    </contour>
  </outline>
</glyph>
<glyph name="u0425" format="2">
  <advance width="624"/>
  <unicode hex="0425"/>
  <outline>
    <contour>
      <point x="548" y="0" type="line"/>
      <point x="418" y="0" type="line"/>
      <point x="311" y="260" type="line"/>
      <point x="304" y="260" type="line"/>
      <point x="106" y="0" type="line"/>
      <point x="-34" y="0" type="line"/>
      <point x="255" y="365" type="line"/>
      <point x="111" y="698" type="line"/>
      <point x="239" y="698" type="line"/>
      <point x="344" y="446" type="line"/>
      <point x="350" y="446" type="line"/>
      <point x="547" y="698" type="line"/>
      <point x="686" y="698" type="line"/>
      <point x="397" y="346" type="line"/>
    </contour>
  </outline>
</glyph>
<glyph name="u0426" format="2">
  <advance width="727"/>
  <unicode hex="0426"/>
  <outline>
    <contour>
      <point x="620" y="-150" type="line"/>
      <point x="508" y="-150" type="line"/>
      <point x="538" y="0" type="line"/>
      <point x="29" y="0" type="line"/>
      <point x="169" y="698" type="line"/>
      <point x="289" y="698" type="line"/>
      <point x="170" y="107" type="line"/>
      <point x="445" y="107" type="line"/>
      <point x="564" y="698" type="line"/>
      <point x="684" y="698" type="line"/>
      <point x="566" y="107" type="line"/>
      <point x="672" y="107" type="line"/>
    </contour>
  </outline>
</glyph>
<glyph name="afii10041" format="2">
  <advance width="645"/>
  <unicode hex="0427"/>
  <outline>
    <contour>
      <point x="511" y="0" type="line"/>
      <point x="390" y="0" type="line"/>
      <point x="443" y="261" type="line"/>
      <point x="438" y="261" type="line"/>
      <point x="382" y="234"/>
      <point x="295" y="234" type="qcurve" smooth="yes"/>
      <point x="193" y="234"/>
      <point x="94" y="328"/>
      <point x="94" y="415" type="qcurve" smooth="yes"/>
      <point x="94" y="464"/>
      <point x="108" y="528" type="qcurve" smooth="yes"/>
      <point x="143" y="698" type="line"/>
      <point x="263" y="698" type="line"/>
      <point x="224" y="502" type="line"/>
      <point x="214" y="462"/>
      <point x="214" y="434" type="qcurve" smooth="yes"/>
      <point x="214" y="384"/>
      <point x="270" y="342"/>
      <point x="327" y="342" type="qcurve" smooth="yes"/>
      <point x="409" y="342"/>
      <point x="463" y="363" type="qcurve"/>
      <point x="530" y="698" type="line"/>
      <point x="651" y="698" type="line"/>
    </contour>
  </outline>
</glyph>
<glyph name="u0428" format="2">
  <advance width="968"/>
  <unicode hex="0428"/>
  <outline>
    <contour>
      <point x="834" y="0" type="line"/>
      <point x="29" y="0" type="line"/>
      <point x="169" y="698" type="line"/>
      <point x="289" y="698" type="line"/>
      <point x="171" y="107" type="line"/>
      <point x="393" y="107" type="line"/>
      <point x="511" y="698" type="line"/>
      <point x="631" y="698" type="line"/>
      <point x="513" y="107" type="line"/>
      <point x="735" y="107" type="line"/>
      <point x="853" y="698" type="line"/>
      <point x="974" y="698" type="line"/>
    </contour>
  </outline>
</glyph>
<glyph name="u0429" format="2">
  <advance width="1016"/>
  <unicode hex="0429"/>
  <outline>
    <contour>
      <point x="909" y="-150" type="line"/>
      <point x="797" y="-150" type="line"/>
      <point x="827" y="0" type="line"/>
      <point x="29" y="0" type="line"/>
      <point x="169" y="698" type="line"/>
      <point x="289" y="698" type="line"/>
      <point x="171" y="107" type="line"/>
      <point x="393" y="107" type="line"/>
      <point x="511" y="698" type="line"/>
      <point x="631" y="698" type="line"/>
      <point x="513" y="107" type="line"/>
      <point x="735" y="107" type="line"/>
      <point x="853" y="698" type="line"/>
      <point x="974" y="698" type="line"/>
      <point x="855" y="107" type="line"/>
      <point x="961" y="107" type="line"/>
    </contour>
  </outline>
</glyph>
<glyph name="afii10047" format="2">
  <advance width="638"/>
  <unicode hex="042D"/>
  <outline>
    <contour>
      <point x="255" y="-12" type="qcurve" smooth="yes"/>
      <point x="162" y="-12"/>
      <point x="43" y="66"/>
      <point x="13" y="155" type="qcurve"/>
      <point x="116" y="206" type="line"/>
      <point x="148" y="96"/>
      <point x="264" y="96" type="qcurve" smooth="yes"/>
      <point x="349" y="96"/>
      <point x="445" y="200"/>
      <point x="465" y="300" type="qcurve"/>
      <point x="213" y="300" type="line"/>
      <point x="234" y="407" type="line"/>
      <point x="486" y="407" type="line"/>
      <point x="490" y="430"/>
      <point x="490" y="452" type="qcurve" smooth="yes"/>
      <point x="490" y="520"/>
      <point x="423" y="602"/>
      <point x="348" y="602" type="qcurve" smooth="yes"/>
      <point x="288" y="602"/>
      <point x="207" y="550"/>
      <point x="179" y="497" type="qcurve"/>
      <point x="78" y="545" type="line"/>
      <point x="169" y="710"/>
      <point x="355" y="710" type="qcurve" smooth="yes"/>
      <point x="471" y="710"/>
      <point x="611" y="569"/>
      <point x="611" y="429" type="qcurve" smooth="yes"/>
      <point x="611" y="304"/>
      <point x="519" y="104"/>
      <point x="359" y="-12"/>
    </contour>
  </outline>
</glyph>
<glyph name="afii10048" format="2">
  <advance width="966"/>
  <unicode hex="042E"/>
  <outline>
    <contour>
      <point x="588" y="-12" type="qcurve" smooth="yes"/>
      <point x="480" y="-12"/>
      <point x="346" y="134"/>
      <point x="346" y="267" type="qcurve" smooth="yes"/>
      <point x="346" y="299" type="line"/>
      <point x="210" y="299" type="line"/>
      <point x="149" y="0" type="line"/>
      <point x="29" y="0" type="line"/>
      <point x="169" y="698" type="line"/>
      <point x="289" y="698" type="line"/>
      <point x="231" y="406" type="line"/>
      <point x="363" y="406" type="line"/>
      <point x="396" y="538"/>
      <point x="577" y="710"/>
      <point x="698" y="710" type="qcurve" smooth="yes"/>
      <point x="811" y="710"/>
      <point x="939" y="563"/>
      <point x="939" y="431" type="qcurve" smooth="yes"/>
      <point x="939" y="314"/>
      <point x="851" y="112"/>
      <point x="693" y="-12"/>
    </contour>
    <contour>
      <point x="597" y="96" type="qcurve" smooth="yes"/>
      <point x="669" y="96"/>
      <point x="772" y="198"/>
      <point x="792" y="302" type="qcurve" smooth="yes"/>
      <point x="812" y="398" type="line"/>
      <point x="816" y="424"/>
      <point x="817" y="445" type="qcurve"/>
      <point x="818" y="456" type="line"/>
      <point x="818" y="531"/>
      <point x="749" y="602"/>
      <point x="688" y="602" type="qcurve" smooth="yes"/>
      <point x="608" y="602"/>
      <point x="509" y="490"/>
      <point x="493" y="396" type="qcurve"/>
      <point x="473" y="300" type="line"/>
      <point x="469" y="273"/>
      <point x="468" y="252" type="qcurve"/>
      <point x="467" y="242" type="line"/>
      <point x="467" y="96"/>
    </contour>
  </outline>
</glyph>
<glyph name="Yacyr" format="2">
  <advance width="646"/>
  <unicode hex="042F"/>
  <outline>
    <contour>
      <point x="467" y="376" type="line"/>
      <point x="510" y="591" type="line"/>
      <point x="351" y="591" type="line" smooth="yes"/>
      <point x="301" y="591"/>
      <point x="251" y="535"/>
      <point x="234" y="463"/>
      <point x="234" y="438" type="qcurve" smooth="yes"/>
      <point x="234" y="376"/>
      <point x="311" y="376" type="qcurve" smooth="yes"/>
    </contour>
    <contour>
      <point x="512" y="0" type="line"/>
      <point x="391" y="0" type="line"/>
      <point x="446" y="272" type="line"/>
      <point x="331" y="272" type="line"/>
      <point x="188" y="67" type="line"/>
      <point x="146" y="0"/>
      <point x="65" y="0" type="qcurve" smooth="yes"/>
      <point x="-1" y="0" type="line"/>
      <point x="20" y="107" type="line"/>
      <point x="78" y="107" type="line"/>
      <point x="162" y="229" type="line" smooth="yes"/>
      <point x="197" y="281"/>
      <point x="249" y="287" type="qcurve"/>
      <point x="250" y="293" type="line"/>
      <point x="110" y="317"/>
      <point x="110" y="449" type="qcurve" smooth="yes"/>
      <point x="110" y="558"/>
      <point x="254" y="698"/>
      <point x="367" y="698" type="qcurve" smooth="yes"/>
      <point x="652" y="698" type="line"/>
    </contour>
  </outline>
</glyph>
<glyph name="afii10067" format="2">
  <advance width="546"/>
  <unicode hex="0432"/>
  <outline>
    <contour>
      <point x="303" y="0" type="qcurve" smooth="yes"/>
      <point x="23" y="0" type="line"/>
      <point x="127" y="522" type="line"/>
      <point x="378" y="522" type="line" smooth="yes"/>
      <point x="436" y="522"/>
      <point x="512" y="462"/>
      <point x="512" y="406" type="qcurve" smooth="yes"/>
      <point x="512" y="357"/>
      <point x="453" y="287"/>
      <point x="392" y="274" type="qcurve"/>
      <point x="391" y="269" type="line"/>
      <point x="481" y="251"/>
      <point x="481" y="172" type="qcurve" smooth="yes"/>
      <point x="481" y="100"/>
      <point x="383" y="0"/>
    </contour>
    <contour>
      <point x="315" y="304" type="line" smooth="yes"/>
      <point x="359" y="304"/>
      <point x="398" y="356"/>
      <point x="398" y="393" type="qcurve" smooth="yes"/>
      <point x="398" y="433"/>
      <point x="345" y="433" type="qcurve" smooth="yes"/>
      <point x="223" y="433" type="line"/>
      <point x="197" y="304" type="line"/>
    </contour>
    <contour>
      <point x="281" y="89" type="line" smooth="yes"/>
      <point x="367" y="89"/>
      <point x="367" y="181" type="qcurve"/>
      <point x="366" y="227"/>
      <point x="309" y="227" type="qcurve" smooth="yes"/>
      <point x="182" y="227" type="line"/>
      <point x="154" y="89" type="line"/>
    </contour>
  </outline>
</glyph>
<glyph name="afii10068" format="2">
  <advance width="426"/>
  <unicode hex="0433"/>
  <outline>
    <contour>
      <point x="139" y="0" type="line"/>
      <point x="23" y="0" type="line"/>
      <point x="127" y="522" type="line"/>
      <point x="457" y="522" type="line"/>
      <point x="438" y="426" type="line"/>
      <point x="224" y="426" type="line"/>
    </contour>
  </outline>
</glyph>
<glyph name="afii10073" format="2">
  <advance width="494"/>
  <unicode hex="0437"/>
  <outline>
    <contour>
      <point x="194" y="-12" type="qcurve" smooth="yes"/>
      <point x="54" y="-12"/>
      <point x="-6" y="81" type="qcurve"/>
      <point x="70" y="148" type="line"/>
      <point x="109" y="84"/>
      <point x="196" y="84" type="qcurve" smooth="yes"/>
      <point x="315" y="84"/>
      <point x="315" y="178" type="qcurve" smooth="yes"/>
      <point x="315" y="204"/>
      <point x="276" y="225"/>
      <point x="239" y="225" type="qcurve" smooth="yes"/>
      <point x="146" y="225" type="line"/>
      <point x="163" y="310" type="line"/>
      <point x="261" y="310" type="line" smooth="yes"/>
      <point x="296" y="310"/>
      <point x="347" y="344"/>
      <point x="347" y="387" type="qcurve"/>
      <point x="345" y="438"/>
      <point x="263" y="438" type="qcurve" smooth="yes"/>
      <point x="176" y="438"/>
      <point x="125" y="376" type="qcurve"/>
      <point x="58" y="442" type="line"/>
      <point x="136" y="534"/>
      <point x="275" y="534" type="qcurve" smooth="yes"/>
      <point x="373" y="534"/>
      <point x="461" y="456"/>
      <point x="461" y="403" type="qcurve" smooth="yes"/>
      <point x="461" y="296"/>
      <point x="340" y="273" type="qcurve"/>
      <point x="339" y="268" type="line"/>
      <point x="429" y="254"/>
      <point x="429" y="170" type="qcurve" smooth="yes"/>
      <point x="429" y="114"/>
      <point x="365" y="32"/>
      <point x="258" y="-12"/>
    </contour>
  </outline>
</glyph>
<glyph name="u043A" format="2">
  <advance width="556"/>
  <unicode hex="043A"/>
  <outline>
    <contour>
      <point x="467" y="0" type="line"/>
      <point x="416" y="0" type="line" smooth="yes"/>
      <point x="344" y="0"/>
      <point x="319" y="76" type="qcurve"/>
      <point x="264" y="220" type="line"/>
      <point x="183" y="220" type="line"/>
      <point x="139" y="0" type="line"/>
      <point x="23" y="0" type="line"/>
      <point x="127" y="522" type="line"/>
      <point x="243" y="522" type="line"/>
      <point x="201" y="314" type="line"/>
      <point x="282" y="314" type="line"/>
      <point x="398" y="468" type="line" smooth="yes"/>
      <point x="420" y="498"/>
      <point x="467" y="522"/>
      <point x="503" y="522" type="qcurve" smooth="yes"/>
      <point x="560" y="522" type="line"/>
      <point x="540" y="426" type="line"/>
      <point x="488" y="426" type="line"/>
      <point x="402" y="311" type="line"/>
      <point x="390" y="297"/>
      <point x="362" y="279"/>
      <point x="338" y="268"/>
      <point x="338" y="265" type="qcurve"/>
      <point x="372" y="257"/>
      <point x="387" y="214" type="qcurve"/>
      <point x="434" y="95" type="line"/>
      <point x="486" y="95" type="line"/>
    </contour>
  </outline>
</glyph>
<glyph name="emcyr" format="2">
  <advance width="694"/>
  <unicode hex="043C"/>
  <outline>
    <contour>
      <point x="568" y="0" type="line"/>
      <point x="456" y="0" type="line"/>
      <point x="531" y="375" type="line"/>
      <point x="526" y="375" type="line"/>
      <point x="517" y="363"/>
      <point x="499" y="338"/>
      <point x="315" y="99" type="qcurve"/>
      <point x="281" y="191"/>
      <point x="253" y="271" type="qcurve" smooth="yes"/>
      <point x="215" y="375" type="line"/>
      <point x="210" y="375" type="line"/>
      <point x="135" y="0" type="line"/>
      <point x="23" y="0" type="line"/>
      <point x="127" y="522" type="line"/>
      <point x="257" y="522" type="line"/>
      <point x="347" y="279" type="line"/>
      <point x="349" y="279" type="line"/>
      <point x="537" y="522" type="line"/>
      <point x="672" y="522" type="line"/>
    </contour>
  </outline>
</glyph>
<glyph name="u043F" format="2">
  <advance width="578"/>
  <unicode hex="043F"/>
  <outline>
    <contour>
      <point x="509" y="0" type="line"/>
      <point x="426" y="0" type="line" smooth="yes"/>
      <point x="388" y="0"/>
      <point x="350" y="38"/>
      <point x="350" y="69" type="qcurve" smooth="yes"/>
      <point x="350" y="101"/>
      <point x="363" y="151" type="qcurve"/>
      <point x="374" y="203" type="line"/>
      <point x="403" y="326"/>
      <point x="403" y="369" type="qcurve" smooth="yes"/>
      <point x="403" y="435"/>
      <point x="340" y="435" type="qcurve" smooth="yes"/>
      <point x="304" y="435"/>
      <point x="242" y="387"/>
      <point x="201" y="315"/>
      <point x="194" y="277" type="qcurve" smooth="yes"/>
      <point x="139" y="0" type="line"/>
      <point x="23" y="0" type="line"/>
      <point x="127" y="522" type="line"/>
      <point x="243" y="522" type="line"/>
      <point x="220" y="407" type="line"/>
      <point x="226" y="407" type="line"/>
      <point x="254" y="468"/>
      <point x="335" y="534"/>
      <point x="394" y="534" type="qcurve" smooth="yes"/>
      <point x="461" y="534"/>
      <point x="522" y="457"/>
      <point x="522" y="395" type="qcurve" smooth="yes"/>
      <point x="522" y="355"/>
      <point x="512" y="313" type="qcurve"/>
      <point x="468" y="95" type="line"/>
      <point x="528" y="95" type="line"/>
    </contour>
  </outline>
</glyph>
<glyph name="afii10084" format="2">
  <advance width="466"/>
  <unicode hex="0442"/>
  <outline>
    <contour>
      <point x="239" y="0" type="line"/>
      <point x="123" y="0" type="line"/>
      <point x="208" y="426" type="line"/>
      <point x="54" y="426" type="line"/>
      <point x="73" y="522" type="line"/>
      <point x="498" y="522" type="line"/>
      <point x="479" y="426" type="line"/>
      <point x="324" y="426" type="line"/>
    </contour>
  </outline>
</glyph>
<glyph name="afii10086" format="2">
  <advance width="783"/>
  <unicode hex="0444"/>
  <outline>
    <contour>
      <point x="357" y="-200" type="line"/>
      <point x="241" y="-200" type="line"/>
      <point x="298" y="82" type="line"/>
      <point x="292" y="82" type="line"/>
      <point x="265" y="31"/>
      <point x="204" y="-12"/>
      <point x="161" y="-12" type="qcurve" smooth="yes"/>
      <point x="99" y="-12"/>
      <point x="42" y="72"/>
      <point x="42" y="144" type="qcurve" smooth="yes"/>
      <point x="42" y="237"/>
      <point x="93" y="417"/>
      <point x="193" y="534"/>
      <point x="265" y="534" type="qcurve" smooth="yes"/>
      <point x="347" y="534"/>
      <point x="364" y="439" type="qcurve"/>
      <point x="369" y="439" type="line"/>
      <point x="423" y="710" type="line"/>
      <point x="539" y="710" type="line"/>
      <point x="485" y="439" type="line"/>
      <point x="491" y="439" type="line"/>
      <point x="536" y="534"/>
      <point x="622" y="534" type="qcurve"/>
      <point x="741" y="530"/>
      <point x="741" y="377" type="qcurve" smooth="yes"/>
      <point x="741" y="310"/>
      <point x="712" y="172"/>
      <point x="656" y="58"/>
      <point x="573" y="-12"/>
      <point x="518" y="-12" type="qcurve" smooth="yes"/>
      <point x="434" y="-12"/>
      <point x="418" y="82" type="qcurve"/>
      <point x="414" y="82" type="line"/>
    </contour>
    <contour>
      <point x="211" y="77" type="qcurve" smooth="yes"/>
      <point x="252" y="77"/>
      <point x="285" y="117" type="qcurve"/>
      <point x="311" y="152"/>
      <point x="332" y="254"/>
      <point x="336" y="272" type="qcurve" smooth="yes"/>
      <point x="345" y="318" type="line" smooth="yes"/>
      <point x="353" y="363"/>
      <point x="353" y="376" type="qcurve" smooth="yes"/>
      <point x="353" y="445"/>
      <point x="296" y="445" type="qcurve" smooth="yes"/>
      <point x="251" y="445"/>
      <point x="196" y="372"/>
      <point x="180" y="295" type="qcurve" smooth="yes"/>
      <point x="166" y="223" type="line" smooth="yes"/>
      <point x="157" y="178"/>
      <point x="157" y="154" type="qcurve" smooth="yes"/>
      <point x="157" y="143" type="line" smooth="yes"/>
      <point x="157" y="77"/>
    </contour>
    <contour>
      <point x="487" y="77" type="qcurve" smooth="yes"/>
      <point x="574" y="77"/>
      <point x="603" y="227" type="qcurve" smooth="yes"/>
      <point x="616" y="290" type="line" smooth="yes"/>
      <point x="626" y="339"/>
      <point x="626" y="379" type="qcurve" smooth="yes"/>
      <point x="626" y="445"/>
      <point x="572" y="445" type="qcurve" smooth="yes"/>
      <point x="537" y="445"/>
      <point x="514" y="423" type="qcurve" smooth="yes"/>
      <point x="475" y="385"/>
      <point x="447" y="251"/>
      <point x="433" y="182" type="qcurve"/>
      <point x="430" y="161"/>
      <point x="430" y="146" type="qcurve" smooth="yes"/>
      <point x="430" y="77"/>
    </contour>
  </outline>
</glyph>
<glyph name="u0449" format="2">
  <advance width="879"/>
  <unicode hex="0449"/>
  <outline>
    <contour>
      <point x="771" y="-140" type="line"/>
      <point x="668" y="-140" type="line"/>
      <point x="696" y="0" type="line"/>
      <point x="612" y="0"/>
      <point x="612" y="71" type="qcurve" smooth="yes"/>
      <point x="612" y="86"/>
      <point x="616" y="104" type="qcurve"/>
      <point x="618" y="115" type="line"/>
      <point x="612" y="115" type="line"/>
      <point x="558" y="-12"/>
      <point x="451" y="-12" type="qcurve" smooth="yes"/>
      <point x="341" y="-12"/>
      <point x="338" y="115" type="qcurve"/>
      <point x="333" y="115" type="line"/>
      <point x="279" y="-12"/>
      <point x="168" y="-12" type="qcurve" smooth="yes"/>
      <point x="104" y="-12"/>
      <point x="49" y="63"/>
      <point x="49" y="122" type="qcurve" smooth="yes"/>
      <point x="49" y="166"/>
      <point x="59" y="206" type="qcurve"/>
      <point x="121" y="522" type="line"/>
      <point x="237" y="522" type="line"/>
      <point x="175" y="207" type="line"/>
      <point x="167" y="177"/>
      <point x="167" y="149" type="qcurve" smooth="yes"/>
      <point x="167" y="87"/>
      <point x="222" y="87" type="qcurve" smooth="yes"/>
      <point x="268" y="87"/>
      <point x="342" y="185"/>
      <point x="355" y="245" type="qcurve" smooth="yes"/>
      <point x="411" y="522" type="line"/>
      <point x="526" y="522" type="line"/>
      <point x="464" y="207" type="line"/>
      <point x="456" y="177"/>
      <point x="456" y="149" type="qcurve" smooth="yes"/>
      <point x="456" y="120"/>
      <point x="479" y="87"/>
      <point x="508" y="87" type="qcurve" smooth="yes"/>
      <point x="540" y="87"/>
      <point x="596" y="137"/>
      <point x="636" y="209"/>
      <point x="644" y="245" type="qcurve"/>
      <point x="700" y="522" type="line"/>
      <point x="816" y="522" type="line"/>
      <point x="730" y="95" type="line"/>
      <point x="819" y="95" type="line"/>
    </contour>
  </outline>
</glyph>
<glyph name="u044A" format="2">
  <advance width="602"/>
  <unicode hex="044A"/>
  <outline>
    <contour>
      <point x="334" y="89" type="line" smooth="yes"/>
      <point x="381" y="89"/>
      <point x="437" y="149"/>
      <point x="437" y="207" type="qcurve" smooth="yes"/>
      <point x="437" y="232"/>
      <point x="403" y="265"/>
      <point x="369" y="265" type="qcurve" smooth="yes"/>
      <point x="263" y="265" type="line"/>
      <point x="228" y="89" type="line"/>
    </contour>
    <contour>
      <point x="343" y="0" type="qcurve" smooth="yes"/>
      <point x="94" y="0" type="line"/>
      <point x="180" y="426" type="line"/>
      <point x="54" y="426" type="line"/>
      <point x="73" y="522" type="line"/>
      <point x="315" y="522" type="line"/>
      <point x="281" y="354" type="line"/>
      <point x="407" y="354" type="line" smooth="yes"/>
      <point x="482" y="354"/>
      <point x="553" y="275"/>
      <point x="553" y="212" type="qcurve" smooth="yes"/>
      <point x="553" y="114"/>
      <point x="434" y="0"/>
    </contour>
  </outline>
</glyph>
<glyph name="ylongcyr" format="2">
  <advance width="745"/>
  <unicode hex="044B"/>
  <outline>
    <contour>
      <point x="253" y="89" type="line" smooth="yes"/>
      <point x="303" y="89"/>
      <point x="356" y="155"/>
      <point x="356" y="207" type="qcurve" smooth="yes"/>
      <point x="356" y="232"/>
      <point x="322" y="265"/>
      <point x="287" y="265" type="qcurve" smooth="yes"/>
      <point x="191" y="265" type="line"/>
      <point x="156" y="89" type="line"/>
    </contour>
    <contour>
      <point x="618" y="0" type="line"/>
      <point x="502" y="0" type="line"/>
      <point x="606" y="522" type="line"/>
      <point x="722" y="522" type="line"/>
    </contour>
    <contour>
      <point x="262" y="0" type="qcurve" smooth="yes"/>
      <point x="23" y="0" type="line"/>
      <point x="127" y="522" type="line"/>
      <point x="243" y="522" type="line"/>
      <point x="209" y="354" type="line"/>
      <point x="325" y="354" type="line" smooth="yes"/>
      <point x="401" y="354"/>
      <point x="471" y="275"/>
      <point x="471" y="212" type="qcurve" smooth="yes"/>
      <point x="471" y="111"/>
      <point x="350" y="0"/>
    </contour>
  </outline>
</glyph>
<glyph name="afii10095" format="2">
  <advance width="506"/>
  <unicode hex="044D"/>
  <outline>
    <contour>
      <point x="192" y="-12" type="qcurve" smooth="yes"/>
      <point x="112" y="-12"/>
      <point x="16" y="56"/>
      <point x="-1" y="118" type="qcurve"/>
      <point x="93" y="162" type="line"/>
      <point x="119" y="84"/>
      <point x="198" y="84" type="qcurve" smooth="yes"/>
      <point x="258" y="84"/>
      <point x="323" y="153"/>
      <point x="334" y="222" type="qcurve"/>
      <point x="153" y="222" type="line"/>
      <point x="170" y="307" type="line"/>
      <point x="351" y="307" type="line"/>
      <point x="353" y="323"/>
      <point x="353" y="341" type="qcurve" smooth="yes"/>
      <point x="353" y="384"/>
      <point x="305" y="438"/>
      <point x="250" y="438" type="qcurve" smooth="yes"/>
      <point x="170" y="438"/>
      <point x="129" y="363" type="qcurve"/>
      <point x="45" y="417" type="line"/>
      <point x="84" y="476"/>
      <point x="188" y="534"/>
      <point x="261" y="534" type="qcurve" smooth="yes"/>
      <point x="354" y="534"/>
      <point x="468" y="426"/>
      <point x="468" y="313" type="qcurve" smooth="yes"/>
      <point x="468" y="223"/>
      <point x="399" y="75"/>
      <point x="275" y="-12"/>
    </contour>
  </outline>
</glyph>
<glyph name="u044E" format="2">
  <advance width="780"/>
  <unicode hex="044E"/>
  <outline>
    <contour>
      <point x="485" y="84" type="qcurve" smooth="yes"/>
      <point x="516" y="84"/>
      <point x="569" y="120"/>
      <point x="589" y="166" type="qcurve" smooth="yes"/>
      <point x="605" y="204"/>
      <point x="626" y="302"/>
      <point x="626" y="345" type="qcurve" smooth="yes"/>
      <point x="626" y="383"/>
      <point x="585" y="437"/>
      <point x="540" y="437" type="qcurve" smooth="yes"/>
      <point x="490" y="437"/>
      <point x="433" y="367"/>
      <point x="418" y="301" type="qcurve"/>
      <point x="403" y="223" type="line" smooth="yes"/>
      <point x="399" y="202"/>
      <point x="399" y="177" type="qcurve" smooth="yes"/>
      <point x="399" y="137"/>
      <point x="439" y="84"/>
    </contour>
    <contour>
      <point x="478" y="-12" type="qcurve" smooth="yes"/>
      <point x="284" y="-12"/>
      <point x="284" y="219" type="qcurve"/>
      <point x="182" y="219" type="line"/>
      <point x="139" y="0" type="line"/>
      <point x="23" y="0" type="line"/>
      <point x="127" y="522" type="line"/>
      <point x="243" y="522" type="line"/>
      <point x="201" y="314" type="line"/>
      <point x="296" y="314" type="line"/>
      <point x="322" y="413"/>
      <point x="454" y="534"/>
      <point x="547" y="534" type="qcurve" smooth="yes"/>
      <point x="634" y="534"/>
      <point x="741" y="428"/>
      <point x="741" y="317" type="qcurve" smooth="yes"/>
      <point x="741" y="228"/>
      <point x="675" y="78"/>
      <point x="557" y="-12"/>
    </contour>
  </outline>
</glyph>
<glyph name="eukrcyr" format="2">
  <advance width="506"/>
  <unicode hex="0454"/>
  <outline>
    <contour>
      <point x="244" y="-12" type="qcurve" smooth="yes"/>
      <point x="151" y="-12"/>
      <point x="38" y="92"/>
      <point x="38" y="209" type="qcurve" smooth="yes"/>
      <point x="38" y="300"/>
      <point x="106" y="447"/>
      <point x="231" y="534"/>
      <point x="315" y="534" type="qcurve" smooth="yes"/>
      <point x="464" y="534"/>
      <point x="503" y="411" type="qcurve"/>
      <point x="407" y="367" type="line"/>
      <point x="395" y="404"/>
      <point x="350" y="437"/>
      <point x="309" y="437" type="qcurve" smooth="yes"/>
      <point x="255" y="437"/>
      <point x="191" y="380"/>
      <point x="177" y="317" type="qcurve"/>
      <point x="174" y="307" type="line"/>
      <point x="353" y="307" type="line"/>
      <point x="336" y="222" type="line"/>
      <point x="158" y="222" type="line"/>
      <point x="153" y="201"/>
      <point x="153" y="183" type="qcurve" smooth="yes"/>
      <point x="153" y="84"/>
      <point x="251" y="84" type="qcurve" smooth="yes"/>
      <point x="297" y="84"/>
      <point x="352" y="124"/>
      <point x="376" y="169" type="qcurve"/>
      <point x="465" y="122" type="line"/>
      <point x="394" y="-12"/>
    </contour>
  </outline>
</glyph>
<glyph name="u0459" format="2">
  <advance width="814"/>
  <unicode hex="0459"/>
  <outline>
    <contour>
      <point x="546" y="89" type="line" smooth="yes"/>
      <point x="593" y="89"/>
      <point x="618" y="117" type="qcurve" smooth="yes"/>
      <point x="646" y="148"/>
      <point x="649" y="204" type="qcurve"/>
      <point x="647" y="217" type="line"/>
      <point x="642" y="265"/>
      <point x="580" y="265" type="qcurve" smooth="yes"/>
      <point x="483" y="265" type="line"/>
      <point x="448" y="89" type="line"/>
    </contour>
    <contour>
      <point x="-1" y="-4" type="qcurve" smooth="yes"/>
      <point x="-42" y="-4" type="line"/>
      <point x="-22" y="95" type="line"/>
      <point x="44" y="95" type="line"/>
      <point x="104" y="166"/>
      <point x="146" y="380" type="qcurve" smooth="yes"/>
      <point x="174" y="522" type="line"/>
      <point x="535" y="522" type="line"/>
      <point x="501" y="354" type="line"/>
      <point x="618" y="354" type="line" smooth="yes"/>
      <point x="695" y="354"/>
      <point x="765" y="275"/>
      <point x="765" y="212" type="qcurve" smooth="yes"/>
      <point x="765" y="114"/>
      <point x="646" y="0"/>
      <point x="555" y="0" type="qcurve" smooth="yes"/>
      <point x="315" y="0" type="line"/>
      <point x="400" y="426" type="line"/>
      <point x="265" y="426" type="line"/>
      <point x="242" y="309"/>
      <point x="206" y="171"/>
      <point x="156" y="66"/>
      <point x="100" y="13"/>
      <point x="36" y="-4"/>
    </contour>
  </outline>
</glyph>
<glyph name="uni045D" format="2">
  <advance width="574"/>
  <unicode hex="045D"/>
  <outline>
    <contour>
      <point x="323" y="581" type="line"/>
      <point x="226" y="752" type="line"/>
      <point x="330" y="801" type="line"/>
      <point x="396" y="614" type="line"/>
    </contour>
    <contour>
      <point x="176" y="-12" type="qcurve" smooth="yes"/>
      <point x="110" y="-12"/>
      <point x="49" y="64"/>
      <point x="49" y="127" type="qcurve" smooth="yes"/>
      <point x="49" y="162"/>
      <point x="57" y="199" type="qcurve" smooth="yes"/>
      <point x="121" y="522" type="line"/>
      <point x="237" y="522" type="line"/>
      <point x="175" y="207" type="line"/>
      <point x="168" y="179"/>
      <point x="168" y="154" type="qcurve" smooth="yes"/>
      <point x="168" y="87"/>
      <point x="228" y="87" type="qcurve" smooth="yes"/>
      <point x="279" y="87"/>
      <point x="358" y="186"/>
      <point x="371" y="246" type="qcurve" smooth="yes"/>
      <point x="427" y="522" type="line"/>
      <point x="543" y="522" type="line"/>
      <point x="457" y="95" type="line"/>
      <point x="521" y="95" type="line"/>
      <point x="503" y="0" type="line"/>
      <point x="418" y="0" type="line"/>
      <point x="340" y="4"/>
      <point x="340" y="72" type="qcurve" smooth="yes"/>
      <point x="340" y="85"/>
      <point x="344" y="106" type="qcurve"/>
      <point x="345" y="115" type="line"/>
      <point x="340" y="115" type="line"/>
      <point x="309" y="50"/>
      <point x="231" y="-12"/>
    </contour>
  </outline>
</glyph>
<glyph name="afii10110" format="2">
  <advance width="500"/>
  <unicode hex="045E"/>
  <outline>
    <contour>
      <point x="305" y="586" type="qcurve" smooth="yes"/>
      <point x="302" y="586" type="line" smooth="yes"/>
      <point x="199" y="586"/>
      <point x="167" y="684" type="qcurve" smooth="yes"/>
      <point x="151" y="732" type="line"/>
      <point x="247" y="769" type="line"/>
      <point x="265" y="675" type="line"/>
      <point x="287" y="668"/>
      <point x="312" y="668" type="qcurve" smooth="yes"/>
      <point x="341" y="668"/>
      <point x="356" y="675" type="qcurve"/>
      <point x="405" y="769" type="line"/>
      <point x="496" y="729" type="line"/>
      <point x="468" y="684" type="line"/>
      <point x="411" y="586"/>
    </contour>
    <contour>
      <point x="53" y="-200" type="qcurve" smooth="yes"/>
      <point x="-26" y="-200" type="line"/>
      <point x="-7" y="-105" type="line"/>
      <point x="89" y="-105" type="line"/>
      <point x="131" y="-25" type="line"/>
      <point x="54" y="522" type="line"/>
      <point x="168" y="522" type="line"/>
      <point x="185" y="381" type="line" smooth="yes"/>
      <point x="190" y="345"/>
      <point x="195" y="299"/>
      <point x="213" y="109" type="qcurve"/>
      <point x="219" y="109" type="line"/>
      <point x="301" y="284" type="line"/>
      <point x="316" y="318"/>
      <point x="352" y="388" type="qcurve" smooth="yes"/>
      <point x="419" y="522" type="line"/>
      <point x="543" y="522" type="line"/>
      <point x="210" y="-97" type="line" smooth="yes"/>
      <point x="182" y="-151"/>
      <point x="113" y="-200"/>
    </contour>
  </outline>
</glyph>
<glyph name="u0491" format="2">
  <advance width="426"/>
  <unicode hex="0491"/>
  <outline>
    <contour>
      <point x="139" y="0" type="line"/>
      <point x="23" y="0" type="line"/>
      <point x="127" y="522" type="line"/>
      <point x="353" y="522" type="line"/>
      <point x="381" y="662" type="line"/>
      <point x="485" y="662" type="line"/>
      <point x="438" y="426" type="line"/>
      <point x="224" y="426" type="line"/>
    </contour>
  </outline>
</glyph>
<glyph name="u0493" format="2">
  <advance width="442"/>
  <unicode hex="0493"/>
  <outline>
    <contour>
      <point x="154" y="0" type="line"/>
      <point x="38" y="0" type="line"/>
      <point x="81" y="215" type="line"/>
      <point x="16" y="215" type="line"/>
      <point x="32" y="298" type="line"/>
      <point x="98" y="298" type="line"/>
      <point x="143" y="522" type="line"/>
      <point x="472" y="522" type="line"/>
      <point x="454" y="426" type="line"/>
      <point x="240" y="426" type="line"/>
      <point x="214" y="298" type="line"/>
      <point x="350" y="298" type="line"/>
      <point x="334" y="215" type="line"/>
      <point x="197" y="215" type="line"/>
    </contour>
  </outline>
</glyph>
<glyph name="u0495" format="2">
  <advance width="542"/>
  <unicode hex="0495"/>
  <outline>
    <contour>
      <point x="233" y="-200" type="qcurve" smooth="yes"/>
      <point x="175" y="-200" type="line"/>
      <point x="195" y="-103" type="line"/>
      <point x="279" y="-103" type="line"/>
      <point x="313" y="-72"/>
      <point x="329" y="3" type="qcurve" smooth="yes"/>
      <point x="334" y="28" type="line"/>
      <point x="354" y="115"/>
      <point x="354" y="154" type="qcurve" smooth="yes"/>
      <point x="354" y="208"/>
      <point x="289" y="208" type="qcurve" smooth="yes"/>
      <point x="229" y="208"/>
      <point x="166" y="146"/>
      <point x="149" y="49"/>
      <point x="139" y="0" type="qcurve"/>
      <point x="23" y="0" type="line"/>
      <point x="126" y="522" type="line"/>
      <point x="457" y="522" type="line"/>
      <point x="438" y="426" type="line"/>
      <point x="224" y="426" type="line"/>
      <point x="181" y="215" type="line"/>
      <point x="187" y="215" type="line"/>
      <point x="239" y="307"/>
      <point x="340" y="307" type="qcurve" smooth="yes"/>
      <point x="409" y="307"/>
      <point x="474" y="234"/>
      <point x="474" y="184" type="qcurve" smooth="yes"/>
      <point x="474" y="144"/>
      <point x="467" y="113" type="qcurve"/>
      <point x="443" y="-7" type="line"/>
      <point x="421" y="-104"/>
      <point x="318" y="-200"/>
    </contour>
  </outline>
</glyph>
<glyph name="u0496" format="2">
  <advance width="984"/>
  <unicode hex="0496"/>
  <outline>
    <contour>
      <point x="885" y="-150" type="line"/>
      <point x="773" y="-150" type="line"/>
      <point x="802" y="1" type="line"/>
      <point x="766" y="3"/>
      <point x="729" y="39"/>
      <point x="718" y="78" type="qcurve"/>
      <point x="647" y="300" type="line"/>
      <point x="551" y="300" type="line"/>
      <point x="491" y="0" type="line"/>
      <point x="370" y="0" type="line"/>
      <point x="430" y="300" type="line"/>
      <point x="335" y="300" type="line"/>
      <point x="185" y="71" type="line"/>
      <point x="161" y="32"/>
      <point x="100" y="0"/>
      <point x="51" y="0" type="qcurve" smooth="yes"/>
      <point x="-8" y="0" type="line"/>
      <point x="13" y="107" type="line"/>
      <point x="72" y="107" type="line"/>
      <point x="184" y="279" type="line" smooth="yes"/>
      <point x="225" y="344"/>
      <point x="285" y="354" type="qcurve"/>
      <point x="286" y="360" type="line"/>
      <point x="252" y="367"/>
      <point x="236" y="421" type="qcurve"/>
      <point x="182" y="591" type="line"/>
      <point x="123" y="591" type="line"/>
      <point x="145" y="698" type="line"/>
      <point x="170" y="698" type="line" smooth="yes"/>
      <point x="221" y="698"/>
      <point x="274" y="663"/>
      <point x="286" y="620" type="qcurve"/>
      <point x="356" y="406" type="line"/>
      <point x="451" y="406" type="line"/>
      <point x="509" y="698" type="line"/>
      <point x="631" y="698" type="line"/>
      <point x="572" y="406" type="line"/>
      <point x="668" y="406" type="line"/>
      <point x="819" y="631" type="line"/>
      <point x="858" y="698"/>
      <point x="944" y="698" type="qcurve" smooth="yes"/>
      <point x="996" y="698" type="line"/>
      <point x="974" y="591" type="line"/>
      <point x="920" y="591" type="line"/>
      <point x="808" y="423" type="line" smooth="yes"/>
      <point x="787" y="392"/>
      <point x="766" y="377" type="qcurve"/>
      <point x="761" y="373"/>
      <point x="743" y="366" type="qcurve" smooth="yes"/>
      <point x="720" y="357"/>
      <point x="720" y="354" type="qcurve"/>
      <point x="758" y="340"/>
      <point x="777" y="276" type="qcurve"/>
      <point x="831" y="107" type="line"/>
      <point x="937" y="107" type="line"/>
    </contour>
  </outline>
</glyph>
<glyph name="kadescendercyrillic" format="2">
  <advance width="564"/>
  <unicode hex="049B"/>
  <outline>
    <contour>
      <point x="473" y="-140" type="line"/>
      <point x="370" y="-140" type="line"/>
      <point x="398" y="2" type="line"/>
      <point x="355" y="7"/>
      <point x="299" y="115"/>
      <point x="278" y="181" type="qcurve"/>
      <point x="264" y="220" type="line"/>
      <point x="183" y="220" type="line"/>
      <point x="139" y="0" type="line"/>
      <point x="23" y="0" type="line"/>
      <point x="127" y="522" type="line"/>
      <point x="243" y="522" type="line"/>
      <point x="201" y="314" type="line"/>
      <point x="282" y="314" type="line"/>
      <point x="398" y="468" type="line" smooth="yes"/>
      <point x="420" y="498"/>
      <point x="467" y="522"/>
      <point x="503" y="522" type="qcurve" smooth="yes"/>
      <point x="560" y="522" type="line"/>
      <point x="540" y="426" type="line"/>
      <point x="488" y="426" type="line"/>
      <point x="402" y="311" type="line"/>
      <point x="390" y="297"/>
      <point x="362" y="279"/>
      <point x="338" y="268"/>
      <point x="338" y="265" type="qcurve"/>
      <point x="372" y="257"/>
      <point x="387" y="214" type="qcurve"/>
      <point x="434" y="95" type="line"/>
      <point x="521" y="95" type="line"/>
    </contour>
  </outline>
</glyph>
<glyph name="Kaverticalstrokecyr" format="2">
  <advance width="711"/>
  <unicode hex="049C"/>
  <outline>
    <contour>
      <point x="614" y="0" type="line"/>
      <point x="565" y="0" type="line" smooth="yes"/>
      <point x="522" y="0"/>
      <point x="476" y="35"/>
      <point x="463" y="78" type="qcurve"/>
      <point x="388" y="300" type="line"/>
      <point x="348" y="300" type="line"/>
      <point x="320" y="157" type="line"/>
      <point x="231" y="157" type="line"/>
      <point x="259" y="300" type="line"/>
      <point x="210" y="300" type="line"/>
      <point x="149" y="0" type="line"/>
      <point x="29" y="0" type="line"/>
      <point x="169" y="698" type="line"/>
      <point x="289" y="698" type="line"/>
      <point x="231" y="406" type="line"/>
      <point x="281" y="406" type="line"/>
      <point x="310" y="549" type="line"/>
      <point x="399" y="549" type="line"/>
      <point x="370" y="406" type="line"/>
      <point x="409" y="406" type="line"/>
      <point x="565" y="631" type="line"/>
      <point x="601" y="698"/>
      <point x="681" y="698" type="qcurve" smooth="yes"/>
      <point x="739" y="698" type="line"/>
      <point x="718" y="591" type="line"/>
      <point x="664" y="591" type="line"/>
      <point x="544" y="418" type="line"/>
      <point x="518" y="379"/>
      <point x="486" y="367" type="qcurve" smooth="yes"/>
      <point x="462" y="358"/>
      <point x="462" y="354" type="qcurve"/>
      <point x="481" y="347"/>
      <point x="505" y="317"/>
      <point x="516" y="288" type="qcurve"/>
      <point x="578" y="107" type="line"/>
      <point x="635" y="107" type="line"/>
    </contour>
  </outline>
</glyph>
<glyph name="Kabashkircyrillic" format="2">
  <advance width="746"/>
  <unicode hex="04A0"/>
  <outline>
    <contour>
      <point x="649" y="0" type="line"/>
      <point x="599" y="0" type="line" smooth="yes"/>
      <point x="556" y="0"/>
      <point x="511" y="34"/>
      <point x="498" y="76" type="qcurve"/>
      <point x="412" y="300" type="line"/>
      <point x="305" y="300" type="line"/>
      <point x="244" y="0" type="line"/>
      <point x="124" y="0" type="line"/>
      <point x="243" y="591" type="line"/>
      <point x="85" y="591" type="line"/>
      <point x="106" y="698" type="line"/>
      <point x="384" y="698" type="line"/>
      <point x="326" y="406" type="line"/>
      <point x="433" y="406" type="line"/>
      <point x="598" y="630" type="line" smooth="yes"/>
      <point x="625" y="668"/>
      <point x="676" y="698"/>
      <point x="715" y="698" type="qcurve" smooth="yes"/>
      <point x="774" y="698" type="line"/>
      <point x="753" y="591" type="line"/>
      <point x="698" y="591" type="line"/>
      <point x="570" y="416" type="line"/>
      <point x="548" y="383"/>
      <point x="526" y="373" type="qcurve"/>
      <point x="522" y="371"/>
      <point x="516" y="369" type="qcurve" smooth="yes"/>
      <point x="502" y="364" type="line"/>
      <point x="497" y="363"/>
      <point x="494" y="361" type="qcurve"/>
      <point x="486" y="358"/>
      <point x="486" y="354" type="qcurve"/>
      <point x="521" y="343"/>
      <point x="540" y="294" type="qcurve" smooth="yes"/>
      <point x="612" y="107" type="line"/>
      <point x="670" y="107" type="line"/>
    </contour>
  </outline>
</glyph>
<glyph name="u04A1" format="2">
  <advance width="628"/>
  <unicode hex="04A1"/>
  <outline>
    <contour>
      <point x="539" y="0" type="line"/>
      <point x="488" y="0" type="line" smooth="yes"/>
      <point x="416" y="0"/>
      <point x="391" y="76" type="qcurve"/>
      <point x="335" y="220" type="line"/>
      <point x="254" y="220" type="line"/>
      <point x="210" y="0" type="line"/>
      <point x="94" y="0" type="line"/>
      <point x="180" y="426" type="line"/>
      <point x="54" y="426" type="line"/>
      <point x="73" y="522" type="line"/>
      <point x="315" y="522" type="line"/>
      <point x="273" y="314" type="line"/>
      <point x="354" y="314" type="line"/>
      <point x="470" y="468" type="line" smooth="yes"/>
      <point x="492" y="498"/>
      <point x="539" y="522"/>
      <point x="575" y="522" type="qcurve" smooth="yes"/>
      <point x="632" y="522" type="line"/>
      <point x="612" y="426" type="line"/>
      <point x="560" y="426" type="line"/>
      <point x="473" y="311" type="line"/>
      <point x="461" y="297"/>
      <point x="433" y="279"/>
      <point x="409" y="268"/>
      <point x="409" y="265" type="qcurve"/>
      <point x="426" y="260"/>
      <point x="449" y="237"/>
      <point x="459" y="214" type="qcurve"/>
      <point x="505" y="95" type="line"/>
      <point x="558" y="95" type="line"/>
    </contour>
  </outline>
</glyph>
<glyph name="endescendercyrillic" format="2">
  <advance width="616"/>
  <unicode hex="04A3"/>
  <outline>
    <contour>
      <point x="508" y="-140" type="line"/>
      <point x="405" y="-140" type="line"/>
      <point x="433" y="0" type="line"/>
      <point x="332" y="0" type="line"/>
      <point x="375" y="219" type="line"/>
      <point x="182" y="219" type="line"/>
      <point x="139" y="0" type="line"/>
      <point x="23" y="0" type="line"/>
      <point x="127" y="522" type="line"/>
      <point x="243" y="522" type="line"/>
      <point x="201" y="314" type="line"/>
      <point x="395" y="314" type="line"/>
      <point x="436" y="522" type="line"/>
      <point x="552" y="522" type="line"/>
      <point x="467" y="95" type="line"/>
      <point x="556" y="95" type="line"/>
    </contour>
  </outline>
</glyph>
<glyph name="Estailcyr" format="2">
  <advance width="622"/>
  <unicode hex="04AA"/>
  <outline>
    <contour>
      <point x="319" y="-150" type="line"/>
      <point x="207" y="-150" type="line"/>
      <point x="236" y="-5" type="line"/>
      <point x="155" y="13"/>
      <point x="56" y="147"/>
      <point x="56" y="270" type="qcurve" smooth="yes"/>
      <point x="56" y="386"/>
      <point x="142" y="587"/>
      <point x="299" y="710"/>
      <point x="406" y="710" type="qcurve" smooth="yes"/>
      <point x="585" y="710"/>
      <point x="637" y="544" type="qcurve"/>
      <point x="529" y="498" type="line"/>
      <point x="515" y="549"/>
      <point x="453" y="602"/>
      <point x="396" y="602" type="qcurve" smooth="yes"/>
      <point x="316" y="602"/>
      <point x="222" y="497"/>
      <point x="206" y="414" type="qcurve" smooth="yes"/>
      <point x="183" y="302" type="line" smooth="yes"/>
      <point x="177" y="270"/>
      <point x="177" y="246" type="qcurve" smooth="yes"/>
      <point x="177" y="176"/>
      <point x="242" y="96"/>
      <point x="310" y="96" type="qcurve" smooth="yes"/>
      <point x="370" y="96"/>
      <point x="450" y="154"/>
      <point x="478" y="210" type="qcurve"/>
      <point x="578" y="163" type="line"/>
      <point x="499" y="9"/>
      <point x="348" y="-9" type="qcurve"/>
    </contour>
  </outline>
</glyph>
<glyph name="estailcyr" format="2">
  <advance width="492"/>
  <unicode hex="04AB"/>
  <outline>
    <contour>
      <point x="251" y="-140" type="line"/>
      <point x="148" y="-140" type="line"/>
      <point x="175" y="-4" type="line"/>
      <point x="38" y="30"/>
      <point x="38" y="209" type="qcurve" smooth="yes"/>
      <point x="38" y="300"/>
      <point x="107" y="447"/>
      <point x="229" y="534"/>
      <point x="307" y="534" type="qcurve" smooth="yes"/>
      <point x="381" y="534"/>
      <point x="475" y="463"/>
      <point x="489" y="404" type="qcurve"/>
      <point x="391" y="365" type="line"/>
      <point x="380" y="401"/>
      <point x="340" y="437"/>
      <point x="301" y="437" type="qcurve" smooth="yes"/>
      <point x="200" y="437"/>
      <point x="176" y="313" type="qcurve" smooth="yes"/>
      <point x="158" y="226" type="line" smooth="yes"/>
      <point x="153" y="201"/>
      <point x="153" y="183" type="qcurve" smooth="yes"/>
      <point x="153" y="84"/>
      <point x="248" y="84" type="qcurve" smooth="yes"/>
      <point x="285" y="84"/>
      <point x="336" y="128"/>
      <point x="362" y="174" type="qcurve"/>
      <point x="451" y="132" type="line"/>
      <point x="393" y="10"/>
      <point x="278" y="-8" type="qcurve"/>
    </contour>
  </outline>
</glyph>
